{
DisplayStrings = (
"Queen Josephine Stuart"
);
copyright = "Copyright (c) 2015 Dan Reynolds. Copyright (c) 2015 Mathieu R\U00E9guer. With Reserved Font Name Martel Sans.";
customParameters = (
{
name = license;
value = "This Font Software is licensed under the SIL Open Font License Version 1.1. This license is available with a FAQ at: http://scripts.sil.org/OFL";
},
{
name = licenseURL;
value = "http://scripts.sil.org/OFL";
},
{
name = vendorID;
value = toff;
},
{
name = fsType;
value = (
);
}
);
date = "2015-04-28 13:26:39 +0000";
designer = "Dan Reynolds and Mathieu R\U00E9guer";
designerURL = "https://github.com/typeoff/martel_sans";
familyName = "Martel Sans Long";
featurePrefixes = (
{
automatic = 1;
code = "languagesystem DFLT dflt;\012languagesystem latn dflt;\012languagesystem latn CAT;\012languagesystem latn ROM;\012languagesystem latn MOL;\012";
name = Languagesystems;
}
);
features = (
{
code = "sub two by two.offenbach;";
name = ss01;
},
{
automatic = 1;
code = "feature ss01;\012feature locl;\012feature sups;\012feature frac;\012feature ordn;\012";
name = aalt;
},
{
automatic = 1;
code = "script latn;\012language CAT;\012sub  l' periodcentered' l by ldot;\012sub  L' periodcentered' L by Ldot;\012language ROM;\012sub Scedilla by Scommaaccent;\012sub scedilla by scommaaccent;\012language MOL;\012sub Scedilla by Scommaaccent;\012sub scedilla by scommaaccent;\012";
name = locl;
},
{
automatic = 1;
code = "sub one by onesuperior;\012sub two by twosuperior;\012sub three by threesuperior;\012";
name = sups;
},
{
automatic = 1;
code = "sub one slash four by onequarter;\012sub one slash two by onehalf;\012sub three slash four by threequarters;\012";
name = frac;
},
{
automatic = 1;
code = "sub [zero one two three four five six seven eight nine] [A a]' by ordfeminine;\012sub [zero one two three four five six seven eight nine] [O o]' by ordmasculine;\012";
name = ordn;
},
{
automatic = 1;

glyphs = (
{
glyphname = A;
lastChange = "2015-04-28 13:51:32 +0000";
layers = (
{
anchors = (
{
name = bottom;
position = "{504, -9}";
},
{
name = top;
position = "{289, 669}";
}
);
background = {
paths = (
{
closed = 1;
nodes = (
"192 211 LINE",
"437 211 LINE",
"501 55 LINE",
"404 21 LINE",
"404 0 LINE",
"648 0 LINE",
"648 29 LINE",
"599 48 LINE",
"350 634 LINE",
"294 605 LINE",
"68 55 LINE",
"12 21 LINE",
"12 0 LINE",
"229 0 LINE",
"229 29 LINE",
"132 48 LINE"
);
},
{
closed = 1;
nodes = (
"311 516 LINE",
"417 260 LINE",
"211 260 LINE",
"308 516 LINE"
);
}
);
};
layerId = "E777F328-EA17-4AE7-9EBA-8002E537BA4F";
name = Light;
paths = (
{
closed = 1;
nodes = (
"73 0 LINE",
"291 568 LINE",
"283 568 LINE",
"502 0 LINE",
"554 0 LINE",
"310 632 LINE",
"266 632 LINE",
"23 0 LINE"
);
},
{
closed = 1;
nodes = (
"435 215 LINE",
"435 257 LINE",
"141 257 LINE",
"141 215 LINE"
);
}
);
width = 577;
},
{
anchors = (
{
name = bottom;
position = "{527, -9}";
},
{
name = top;
position = "{323, 669}";
}
);
guideLines = (
{
angle = 90;
position = "{323, 374}";
}
);
layerId = "AE81D269-4BA9-4AA4-8188-ACE3070EB296";
name = Bold;
paths = (
{
closed = 1;
nodes = (
"171 0 LINE",
"357 568 LINE",
"289 568 LINE",
"476 0 LINE",
"644 0 LINE",
"403 632 LINE",
"244 632 LINE",
"5 0 LINE"
);
},
{
closed = 1;
nodes = (
"470 144 LINE",
"470 257 LINE",
"177 257 LINE",
"177 144 LINE"
);
}
);
width = 648;
}
);
leftKerningGroup = A;
rightKerningGroup = A;
unicode = 0041;
userData = {
com.typemytype.robofont.layerData = {
background = {
anchors = (
);
components = (
);
contours = (
{
points = (
{
segmentType = line;
smooth = 0;
x = "-96";
y = 57;
},
{
segmentType = line;
smooth = 0;
x = "-361";
y = 690;
},
{
segmentType = line;
smooth = 0;
x = "-444";
y = 659;
},
{
segmentType = line;
smooth = 0;
x = "-683";
y = 70;
},
{
segmentType = line;
smooth = 0;
x = "-737";
y = 31;
},
{
segmentType = line;
smooth = 0;
x = "-737";
y = 0;
},
{
segmentType = line;
smooth = 0;
x = "-508";
y = 0;
},
{
segmentType = line;
smooth = 0;
x = "-508";
y = 38;
},
{
segmentType = line;
smooth = 0;
x = "-620";
y = 57;
},
{
segmentType = line;
smooth = 0;
x = "-556";
y = 230;
},
{
segmentType = line;
smooth = 0;
x = "-286";
y = 230;
},
{
segmentType = line;
smooth = 0;
x = "-221";
y = 70;
},
{
segmentType = line;
smooth = 0;
x = "-325";
y = 31;
},
{
segmentType = line;
smooth = 0;
x = "-325";
y = 0;
},
{
segmentType = line;
smooth = 0;
x = "-42";
y = 0;
},
{
segmentType = line;
smooth = 0;
x = "-42";
y = 38;
}
);
},
{
points = (
{
segmentType = line;
smooth = 0;
x = "-425";
y = 575;
},
{
segmentType = line;
smooth = 0;
x = "-308";
y = 284;
},
{
segmentType = line;
smooth = 0;
x = "-536";
y = 284;
},
{
segmentType = line;
smooth = 0;
x = "-428";
y = 575;
}
);
},
{
points = (
{
segmentType = line;
smooth = 0;
x = 637;
y = 57;
},
{
segmentType = line;
smooth = 0;
x = 372;
y = 690;
},
{
segmentType = line;
smooth = 0;
x = 289;
y = 659;
},
{
segmentType = line;
smooth = 0;
x = 50;
y = 70;
},
{
segmentType = line;
smooth = 0;
x = "-4";
y = 31;
},
{
segmentType = line;
smooth = 0;
x = "-4";
y = 0;
},
{
segmentType = line;
smooth = 0;
x = 225;
y = 0;
},
{
segmentType = line;
smooth = 0;
x = 225;
y = 38;
},
{
segmentType = line;
smooth = 0;
x = 113;
y = 57;
},
{
segmentType = line;
smooth = 0;
x = 177;
y = 230;
},
{
segmentType = line;
smooth = 0;
x = 447;
y = 230;
},
{
segmentType = line;
smooth = 0;
x = 512;
y = 70;
},
{
segmentType = line;
smooth = 0;
x = 408;
y = 31;
},
{
segmentType = line;
smooth = 0;
x = 408;
y = 0;
},
{
segmentType = line;
smooth = 0;
x = 691;
y = 0;
},
{
segmentType = line;
smooth = 0;
x = 691;
y = 38;
}
);
},
{
points = (
{
segmentType = line;
smooth = 0;
x = 308;
y = 575;
},
{
segmentType = line;
smooth = 0;
x = 425;
y = 284;
},
{
segmentType = line;
smooth = 0;
x = 197;
y = 284;
},
{
segmentType = line;
smooth = 0;
x = 305;
y = 575;
}
);
}
);
lib = {
};
name = A;
unicodes = (
);
width = 629;
};
layer_01 = {
anchors = (
);
components = (
);
contours = (
);
lib = {
};
name = A;
unicodes = (
);
width = 629;
};
layer_02 = {
anchors = (
);
components = (
);
contours = (
);
lib = {
};
name = A;
unicodes = (
);
width = 629;
};
};
};
},
{
glyphname = Aacute;
lastChange = "2015-04-28 13:51:32 +0000";
layers = (
{
background = {
paths = (
{
closed = 1;
nodes = (
"192 211 LINE",
"437 211 LINE",
"501 55 LINE",
"404 21 LINE",
"404 0 LINE",
"648 0 LINE",
"648 29 LINE",
"599 48 LINE",
"350 634 LINE",
"294 605 LINE",
"68 55 LINE",
"12 21 LINE",
"12 0 LINE",
"229 0 LINE",
"229 29 LINE",
"132 48 LINE"
);
},
{
closed = 1;
nodes = (
"311 516 LINE",
"417 260 LINE",
"211 260 LINE",
"308 516 LINE"
);
},
{
closed = 1;
nodes = (
"206 753 LINE",
"205 749 LINE",
"221 713 LINE",
"446 783 LINE",
"446 797 LINE",
"432 817 OFFCURVE",
"404 844 OFFCURVE",
"382 853 CURVE"
);
}
);
};
components = (
{
name = A;
},
{
name = acute.cap;
transform = "{1, 0, 0, 1, 138, 0}";
}
);
layerId = "E777F328-EA17-4AE7-9EBA-8002E537BA4F";
name = Light;
width = 577;
},
{
components = (
{
name = A;
},
{
name = acute.cap;
transform = "{1, 0, 0, 1, 158, -61}";
}
);
layerId = "AE81D269-4BA9-4AA4-8188-ACE3070EB296";
name = Bold;
width = 594;
}
);
leftKerningGroup = A;
rightKerningGroup = A;
unicode = 00C1;
userData = {
com.typemytype.robofont.layerData = {
background = {
anchors = (
);
components = (
);
contours = (
);
lib = {
};
name = Aacute;
unicodes = (
);
width = 629;
};
layer_01 = {
anchors = (
);
components = (
);
contours = (
);
lib = {
};
name = Aacute;
unicodes = (
);
width = 629;
};
layer_02 = {
anchors = (
);
components = (
);
contours = (
);
lib = {
};
name = Aacute;
unicodes = (
);
width = 629;
};
};
};
},
{
glyphname = Abreve;
lastChange = "2015-04-28 13:51:32 +0000";
layers = (
{
background = {
paths = (
{
closed = 1;
nodes = (
"192 211 LINE",
"437 211 LINE",
"501 55 LINE",
"404 21 LINE",
"404 0 LINE",
"648 0 LINE",
"648 29 LINE",
"599 48 LINE",
"350 634 LINE",
"294 605 LINE",
"68 55 LINE",
"12 21 LINE",
"12 0 LINE",
"229 0 LINE",
"229 29 LINE",
"132 48 LINE"
);
},
{
closed = 1;
nodes = (
"311 516 LINE",
"417 260 LINE",
"211 260 LINE",
"308 516 LINE"
);
},
{
closed = 1;
nodes = (
"246 797 OFFCURVE",
"199 831 OFFCURVE",
"169 866 CURVE",
"144 848 LINE",
"169 781 OFFCURVE",
"239 723 OFFCURVE",
"321 723 CURVE SMOOTH",
"402 723 OFFCURVE",
"472 781 OFFCURVE",
"497 848 CURVE",
"472 866 LINE",
"443 831 OFFCURVE",
"396 797 OFFCURVE",
"321 797 CURVE SMOOTH"
);
}
);
};
components = (
{
name = A;
},
{
name = breve.cap;
transform = "{1, 0, 0, 1, 60, 25}";
}
);
layerId = "E777F328-EA17-4AE7-9EBA-8002E537BA4F";
name = Light;
width = 577;
},
{
components = (
{
name = A;
},
{
name = breve.cap;
transform = "{1, 0, 0, 1, 73, -61}";
}
);
layerId = "AE81D269-4BA9-4AA4-8188-ACE3070EB296";
name = Bold;
width = 594;
}
);
leftKerningGroup = A;
rightKerningGroup = A;
unicode = 0102;
userData = {
com.typemytype.robofont.layerData = {
background = {
anchors = (
);
components = (
);
contours = (
);
lib = {
};
name = Abreve;
unicodes = (
);
width = 629;
};
layer_01 = {
anchors = (
);
components = (
);
contours = (
);
lib = {
};
name = Abreve;
unicodes = (
);
width = 629;
};
layer_02 = {
anchors = (
);
components = (
);
contours = (
);
lib = {
};
name = Abreve;
unicodes = (
);
width = 629;
};
};
};
},
{
glyphname = Acircumflex;
lastChange = "2015-04-28 13:51:32 +0000";
layers = (
{
background = {
paths = (
{
closed = 1;
nodes = (
"192 211 LINE",
"437 211 LINE",
"501 55 LINE",
"404 21 LINE",
"404 0 LINE",
"648 0 LINE",
"648 29 LINE",
"599 48 LINE",
"350 634 LINE",
"294 605 LINE",
"68 55 LINE",
"12 21 LINE",
"12 0 LINE",
"229 0 LINE",
"229 29 LINE",
"132 48 LINE"
);
},
{
closed = 1;
nodes = (
"311 516 LINE",
"417 260 LINE",
"211 260 LINE",
"308 516 LINE"
);
},
{
closed = 1;
nodes = (
"331 774 LINE",
"366 755 OFFCURVE",
"426 726 OFFCURVE",
"469 713 CURVE",
"488 741 LINE",
"488 745 LINE",
"451 772 OFFCURVE",
"397 816 OFFCURVE",
"363 847 CURVE",
"293 847 LINE",
"258 816 OFFCURVE",
"204 772 OFFCURVE",
"167 745 CURVE",
"167 741 LINE",
"186 713 LINE",
"229 726 OFFCURVE",
"289 755 OFFCURVE",
"325 774 CURVE"
);
}
);
};
components = (
{
name = A;
},
{
name = circumflex.cap;
transform = "{1, 0, 0, 1, 60, 0}";
}
);
layerId = "E777F328-EA17-4AE7-9EBA-8002E537BA4F";
name = Light;
width = 577;
},
{
components = (
{
name = A;
},
{
name = circumflex.cap;
transform = "{1, 0, 0, 1, 73, -61}";
}
);
layerId = "AE81D269-4BA9-4AA4-8188-ACE3070EB296";
name = Bold;
width = 594;
}
);
leftKerningGroup = A;
rightKerningGroup = A;
unicode = 00C2;
userData = {
com.typemytype.robofont.layerData = {
background = {
anchors = (
);
components = (
);
contours = (
);
lib = {
};
name = Acircumflex;
unicodes = (
);
width = 629;
};
layer_01 = {
anchors = (
);
components = (
);
contours = (
);
lib = {
};
name = Acircumflex;
unicodes = (
);
width = 629;
};
layer_02 = {
anchors = (
);
components = (
);
contours = (
);
lib = {
};
name = Acircumflex;
unicodes = (
);
width = 629;
};
};
};
},
{
glyphname = Adieresis;
lastChange = "2015-04-28 13:51:32 +0000";
layers = (
{
background = {
paths = (
{
closed = 1;
nodes = (
"192 211 LINE",
"437 211 LINE",
"501 55 LINE",
"404 21 LINE",
"404 0 LINE",
"648 0 LINE",
"648 29 LINE",
"599 48 LINE",
"350 634 LINE",
"294 605 LINE",
"68 55 LINE",
"12 21 LINE",
"12 0 LINE",
"229 0 LINE",
"229 29 LINE",
"132 48 LINE"
);
},
{
closed = 1;
nodes = (
"311 516 LINE",
"417 260 LINE",
"211 260 LINE",
"308 516 LINE"
);
},
{
closed = 1;
nodes = (
"136 748 OFFCURVE",
"159 724 OFFCURVE",
"188 724 CURVE SMOOTH",
"218 724 OFFCURVE",
"241 748 OFFCURVE",
"241 779 CURVE SMOOTH",
"241 809 OFFCURVE",
"218 834 OFFCURVE",
"188 834 CURVE SMOOTH",
"159 834 OFFCURVE",
"136 809 OFFCURVE",
"136 779 CURVE SMOOTH"
);
},
{
closed = 1;
nodes = (
"405 748 OFFCURVE",
"428 724 OFFCURVE",
"457 724 CURVE SMOOTH",
"487 724 OFFCURVE",
"510 748 OFFCURVE",
"510 779 CURVE SMOOTH",
"510 809 OFFCURVE",
"487 834 OFFCURVE",
"457 834 CURVE SMOOTH",
"428 834 OFFCURVE",
"405 809 OFFCURVE",
"405 779 CURVE SMOOTH"
);
}
);
};
components = (
{
name = A;
},
{
name = dieresis.cap;
transform = "{1, 0, 0, 1, 60, 0}";
}
);
layerId = "E777F328-EA17-4AE7-9EBA-8002E537BA4F";
name = Light;
width = 577;
},
{
components = (
{
name = A;
},
{
name = dieresis.cap;
transform = "{1, 0, 0, 1, 73, -61}";
}
);
layerId = "AE81D269-4BA9-4AA4-8188-ACE3070EB296";
name = Bold;
width = 594;
}
);
leftKerningGroup = A;
rightKerningGroup = A;
unicode = 00C4;
userData = {
com.typemytype.robofont.layerData = {
background = {
anchors = (
);
components = (
);
contours = (
);
lib = {
};
name = Adieresis;
unicodes = (
);
width = 629;
};
layer_01 = {
anchors = (
);
components = (
);
contours = (
);
lib = {
};
name = Adieresis;
unicodes = (
);
width = 629;
};
layer_02 = {
anchors = (
);
components = (
);
contours = (
);
lib = {
};
name = Adieresis;
unicodes = (
);
width = 629;
};
};
};
},
{
glyphname = Agrave;
lastChange = "2015-04-28 13:51:32 +0000";
layers = (
{
background = {
paths = (
{
closed = 1;
nodes = (
"192 211 LINE",
"437 211 LINE",
"501 55 LINE",
"404 21 LINE",
"404 0 LINE",
"648 0 LINE",
"648 29 LINE",
"599 48 LINE",
"350 634 LINE",
"294 605 LINE",
"68 55 LINE",
"12 21 LINE",
"12 0 LINE",
"229 0 LINE",
"229 29 LINE",
"132 48 LINE"
);
},
{
closed = 1;
nodes = (
"311 516 LINE",
"417 260 LINE",
"211 260 LINE",
"308 516 LINE"
);
},
{
closed = 1;
nodes = (
"274 856 LINE",
"251 847 OFFCURVE",
"223 820 OFFCURVE",
"210 800 CURVE",
"209 786 LINE",
"434 716 LINE",
"450 752 LINE",
"449 756 LINE"
);
}
);
};
components = (
{
name = A;
},
{
name = grave.cap;
transform = "{1, 0, 0, 1, -18, 0}";
}
);
layerId = "E777F328-EA17-4AE7-9EBA-8002E537BA4F";
name = Light;
width = 577;
},
{
components = (
{
name = A;
},
{
name = grave.cap;
transform = "{1, 0, 0, 1, -12, -61}";
}
);
layerId = "AE81D269-4BA9-4AA4-8188-ACE3070EB296";
name = Bold;
width = 594;
}
);
leftKerningGroup = A;
rightKerningGroup = A;
unicode = 00C0;
userData = {
com.typemytype.robofont.layerData = {
background = {
anchors = (
);
components = (
);
contours = (
);
lib = {
};
name = Agrave;
unicodes = (
);
width = 629;
};
layer_01 = {
anchors = (
);
components = (
);
contours = (
);
lib = {
};
name = Agrave;
unicodes = (
);
width = 629;
};
layer_02 = {
anchors = (
);
components = (
);
contours = (
);
lib = {
};
name = Agrave;
unicodes = (
);
width = 629;
};
};
};
},
{
glyphname = Amacron;
lastChange = "2015-04-28 13:51:32 +0000";
layers = (
{
background = {
paths = (
{
closed = 1;
nodes = (
"192 211 LINE",
"437 211 LINE",
"501 55 LINE",
"404 21 LINE",
"404 0 LINE",
"648 0 LINE",
"648 29 LINE",
"599 48 LINE",
"350 634 LINE",
"294 605 LINE",
"68 55 LINE",
"12 21 LINE",
"12 0 LINE",
"229 0 LINE",
"229 29 LINE",
"132 48 LINE"
);
},
{
closed = 1;
nodes = (
"311 516 LINE",
"417 260 LINE",
"211 260 LINE",
"308 516 LINE"
);
},
{
closed = 1;
nodes = (
"531 746 LINE",
"546 782 LINE",
"546 795 LINE",
"135 795 LINE",
"120 760 LINE",
"120 746 LINE"
);
}
);
};
components = (
{
name = A;
},
{
name = macron.cap;
transform = "{1, 0, 0, 1, 60, 0}";
}
);
layerId = "E777F328-EA17-4AE7-9EBA-8002E537BA4F";
name = Light;
width = 577;
},
{
components = (
{
name = A;
},
{
name = macron.cap;
transform = "{1, 0, 0, 1, 73, -61}";
}
);
layerId = "AE81D269-4BA9-4AA4-8188-ACE3070EB296";
name = Bold;
width = 594;
}
);
leftKerningGroup = A;
rightKerningGroup = A;
unicode = 0100;
userData = {
com.typemytype.robofont.layerData = {
background = {
anchors = (
);
components = (
);
contours = (
);
lib = {
};
name = Amacron;
unicodes = (
);
width = 629;
};
layer_01 = {
anchors = (
);
components = (
);
contours = (
);
lib = {
};
name = Amacron;
unicodes = (
);
width = 629;
};
layer_02 = {
anchors = (
);
components = (
);
contours = (
);
lib = {
};
name = Amacron;
unicodes = (
);
width = 629;
};
};
};
},
{
glyphname = Aogonek;
lastChange = "2015-04-28 13:51:32 +0000";
layers = (
{
background = {
paths = (
{
closed = 1;
nodes = (
"192 211 LINE",
"437 211 LINE",
"501 55 LINE",
"404 21 LINE",
"404 0 LINE",
"511 0 LINE",
"450 -44 OFFCURVE",
"375 -121 OFFCURVE",
"375 -188 CURVE SMOOTH",
"375 -229 OFFCURVE",
"398 -265 OFFCURVE",
"439 -265 CURVE SMOOTH",
"481 -265 OFFCURVE",
"538 -225 OFFCURVE",
"578 -174 CURVE",
"553 -151 LINE",
"525 -183 OFFCURVE",
"495 -197 OFFCURVE",
"474 -197 CURVE SMOOTH",
"455 -197 OFFCURVE",
"442 -180 OFFCURVE",
"442 -160 CURVE SMOOTH",
"442 -106 OFFCURVE",
"496 -48 OFFCURVE",
"572 0 CURVE",
"648 0 LINE",
"648 29 LINE",
"599 48 LINE",
"350 634 LINE",
"294 605 LINE",
"68 55 LINE",
"12 21 LINE",
"12 0 LINE",
"229 0 LINE",
"229 29 LINE",
"132 48 LINE"
);
},
{
closed = 1;
nodes = (
"311 516 LINE",
"417 260 LINE",
"211 260 LINE",
"308 516 LINE"
);
}
);
};
components = (
{
name = A;
},
{
name = ogonek;
transform = "{1, 0, 0, 1, 255, 0}";
}
);
layerId = "E777F328-EA17-4AE7-9EBA-8002E537BA4F";
name = Light;
width = 577;
},
{
components = (
{
name = A;
},
{
name = ogonek;
transform = "{1, 0, 0, 1, 256, 1}";
}
);
layerId = "AE81D269-4BA9-4AA4-8188-ACE3070EB296";
name = Bold;
width = 594;
}
);
leftKerningGroup = A;
rightKerningGroup = A;
unicode = 0104;
userData = {
com.typemytype.robofont.layerData = {
background = {
anchors = (
);
components = (
);
contours = (
);
lib = {
};
name = Aogonek;
unicodes = (
);
width = 629;
};
layer_01 = {
anchors = (
);
components = (
);
contours = (
);
lib = {
};
name = Aogonek;
unicodes = (
);
width = 629;
};
layer_02 = {
anchors = (
);
components = (
);
contours = (
);
lib = {
};
name = Aogonek;
unicodes = (
);
width = 629;
};
};
};
},
{
glyphname = Aring;
lastChange = "2015-04-28 13:51:32 +0000";
layers = (
{
background = {
paths = (
{
closed = 1;
nodes = (
"192 211 LINE",
"437 211 LINE",
"501 55 LINE",
"404 21 LINE",
"404 0 LINE",
"648 0 LINE",
"648 29 LINE",
"599 48 LINE",
"350 634 LINE",
"294 605 LINE",
"68 55 LINE",
"12 21 LINE",
"12 0 LINE",
"229 0 LINE",
"229 29 LINE",
"132 48 LINE"
);
},
{
closed = 1;
nodes = (
"311 516 LINE",
"417 260 LINE",
"211 260 LINE",
"308 516 LINE"
);
},
{
closed = 1;
nodes = (
"266 843 OFFCURVE",
"282 871 OFFCURVE",
"314 871 CURVE SMOOTH",
"351 871 OFFCURVE",
"372 821 OFFCURVE",
"372 784 CURVE SMOOTH",
"372 749 OFFCURVE",
"358 717 OFFCURVE",
"323 717 CURVE SMOOTH",
"296 717 OFFCURVE",
"266 754 OFFCURVE",
"266 802 CURVE SMOOTH"
);
},
{
closed = 1;
nodes = (
"202 726 OFFCURVE",
"250 682 OFFCURVE",
"314 682 CURVE SMOOTH",
"373 682 OFFCURVE",
"435 725 OFFCURVE",
"435 799 CURVE SMOOTH",
"435 863 OFFCURVE",
"388 905 OFFCURVE",
"326 905 CURVE SMOOTH",
"268 905 OFFCURVE",
"202 866 OFFCURVE",
"202 789 CURVE SMOOTH"
);
}
);
};
components = (
{
name = A;
},
{
name = ring.cap;
transform = "{1, 0, 0, 1, 60, 0}";
}
);
layerId = "E777F328-EA17-4AE7-9EBA-8002E537BA4F";
name = Light;
width = 577;
},
{
components = (
{
name = A;
},
{
name = ring.cap;
transform = "{1, 0, 0, 1, 73, -61}";
}
);
layerId = "AE81D269-4BA9-4AA4-8188-ACE3070EB296";
name = Bold;
width = 594;
}
);
leftKerningGroup = A;
rightKerningGroup = A;
unicode = 00C5;
userData = {
com.typemytype.robofont.layerData = {
background = {
anchors = (
);
components = (
);
contours = (
);
lib = {
};
name = Aring;
unicodes = (
);
width = 629;
};
layer_01 = {
anchors = (
);
components = (
);
contours = (
);
lib = {
};
name = Aring;
unicodes = (
);
width = 629;
};
layer_02 = {
anchors = (
);
components = (
);
contours = (
);
lib = {
};
name = Aring;
unicodes = (
);
width = 629;
};
};
};
},
{
glyphname = Atilde;
lastChange = "2015-04-28 13:51:32 +0000";
layers = (
{
background = {
paths = (
{
closed = 1;
nodes = (
"192 211 LINE",
"437 211 LINE",
"501 55 LINE",
"404 21 LINE",
"404 0 LINE",
"648 0 LINE",
"648 29 LINE",
"599 48 LINE",
"350 634 LINE",
"294 605 LINE",
"68 55 LINE",
"12 21 LINE",
"12 0 LINE",
"229 0 LINE",
"229 29 LINE",
"132 48 LINE"
);
},
{
closed = 1;
nodes = (
"311 516 LINE",
"417 260 LINE",
"211 260 LINE",
"308 516 LINE"
);
},
{
closed = 1;
nodes = (
"445 709 OFFCURVE",
"498 784 OFFCURVE",
"530 826 CURVE",
"505 848 LINE",
"480 819 OFFCURVE",
"434 777 OFFCURVE",
"401 777 CURVE SMOOTH",
"363 777 OFFCURVE",
"287 838 OFFCURVE",
"254 838 CURVE SMOOTH",
"197 838 OFFCURVE",
"144 770 OFFCURVE",
"112 732 CURVE",
"137 709 LINE",
"163 735 OFFCURVE",
"209 770 OFFCURVE",
"241 770 CURVE SMOOTH",
"277 770 OFFCURVE",
"346 709 OFFCURVE",
"389 709 CURVE SMOOTH"
);
}
);
};
components = (
{
name = A;
},
{
name = tilde.cap;
transform = "{1, 0, 0, 1, 60, 0}";
}
);
layerId = "E777F328-EA17-4AE7-9EBA-8002E537BA4F";
name = Light;
width = 577;
},
{
components = (
{
name = A;
},
{
name = tilde.cap;
transform = "{1, 0, 0, 1, 73, -61}";
}
);
layerId = "AE81D269-4BA9-4AA4-8188-ACE3070EB296";
name = Bold;
width = 594;
}
);
leftKerningGroup = A;
rightKerningGroup = A;
unicode = 00C3;
userData = {
com.typemytype.robofont.layerData = {
background = {
anchors = (
);
components = (
);
contours = (
);
lib = {
};
name = Atilde;
unicodes = (
);
width = 629;
};
layer_01 = {
anchors = (
);
components = (
);
contours = (
);
lib = {
};
name = Atilde;
unicodes = (
);
width = 629;
};
layer_02 = {
anchors = (
);
components = (
);
contours = (
);
lib = {
};
name = Atilde;
unicodes = (
);
width = 629;
};
};
};
},
{
glyphname = AE;
lastChange = "2015-04-28 13:51:32 +0000";
layers = (
{
anchors = (
{
name = top;
position = "{504, 669}";
}
);
background = {
paths = (
{
closed = 1;
nodes = (
"289 277 LINE",
"480 277 LINE",
"480 55 LINE",
"381 21 LINE",
"381 0 LINE",
"853 0 LINE",
"873 150 LINE",
"851 150 LINE",
"752 41 LINE",
"567 41 LINE",
"567 298 LINE",
"712 298 LINE",
"754 227 LINE",
"773 229 LINE",
"787 376 LINE",
"772 381 LINE",
"728 344 LINE",
"567 344 LINE",
"567 585 LINE",
"744 585 LINE",
"818 480 LINE",
"841 486 LINE",
"826 626 LINE",
"284 626 LINE",
"284 605 LINE",
"399 571 LINE",
"78 55 LINE",
"30 21 LINE",
"30 0 LINE",
"258 0 LINE",
"258 29 LINE",
"154 48 LINE"
);
},
{
closed = 1;
nodes = (
"490 317 LINE",
"490 277 LINE",
"480 277 LINE",
"480 317 LINE",
"312 317 LINE",
"470 584 LINE",
"480 584 LINE",
"480 317 LINE"
);
},
{
closed = 1;
nodes = (
"289 277 LINE",
"264 277 LINE",
"296 317 LINE",
"312 317 LINE"
);
}
);
};
layerId = "E777F328-EA17-4AE7-9EBA-8002E537BA4F";
name = Light;
paths = (
{
closed = 1;
nodes = (
"83 0 LINE",
"507 624 LINE",
"454 624 LINE",
"23 0 LINE"
);
},
{
closed = 1;
nodes = (
"843 0 LINE",
"843 42 LINE",
"503 42 LINE",
"503 0 LINE"
);
},
{
closed = 1;
nodes = (
"528 0 LINE",
"528 624 LINE",
"477 624 LINE",
"477 0 LINE"
);
},
{
closed = 1;
nodes = (
"490 282 LINE",
"510 282 LINE",
"788 282 LINE",
"788 324 LINE",
"509 324 LINE",
"489 324 LINE",
"265 324 LINE",
"265 282 LINE"
);
},
{
closed = 1;
nodes = (
"824 581 LINE",
"824 624 LINE",
"494 624 LINE",
"494 581 LINE"
);
}
);
width = 898;
},
{
anchors = (
{
name = top;
position = "{543, 669}";
}
);
layerId = "AE81D269-4BA9-4AA4-8188-ACE3070EB296";
name = Bold;
paths = (
{
closed = 1;
nodes = (
"152 0 LINE",
"515 624 LINE",
"371 624 LINE",
"-14 0 LINE"
);
},
{
closed = 1;
nodes = (
"883 0 LINE",
"883 115 LINE",
"544 115 LINE",
"544 0 LINE"
);
},
{
closed = 1;
nodes = (
"625 0 LINE",
"625 624 LINE",
"460 624 LINE",
"460 0 LINE"
);
},
{
closed = 1;
nodes = (
"491 199 LINE",
"543 259 LINE",
"828 259 LINE",
"828 373 LINE",
"562 373 LINE",
"496 314 LINE",
"269 314 LINE",
"269 199 LINE"
);
},
{
closed = 1;
nodes = (
"865 509 LINE",
"865 624 LINE",
"544 624 LINE",
"544 509 LINE"
);
}
);
width = 929;
}
);
leftKerningGroup = AE;
rightKerningGroup = E;
unicode = 00C6;
userData = {
com.typemytype.robofont.layerData = {
background = {
anchors = (
);
components = (
);
contours = (
);
lib = {
};
name = AE;
unicodes = (
);
width = 979;
};
layer_01 = {
anchors = (
);
components = (
);
contours = (
);
lib = {
};
name = AE;
unicodes = (
);
width = 979;
};
layer_02 = {
anchors = (
);
components = (
);
contours = (
);
lib = {
};
name = AE;
unicodes = (
);
width = 979;
};
};
};
},
{
glyphname = B;
lastChange = "2015-04-28 13:51:32 +0000";
layers = (
{
background = {
paths = (
{
closed = 1;
nodes = (
"392 336 LINE",
"472 353 OFFCURVE",
"531 400 OFFCURVE",
"531 480 CURVE SMOOTH",
"531 596 OFFCURVE",
"442 633 OFFCURVE",
"307 633 CURVE SMOOTH",
"235 633 OFFCURVE",
"143 626 OFFCURVE",
"44 626 CURVE",
"44 605 LINE",
"143 571 LINE",
"143 55 LINE",
"44 21 LINE",
"44 0 LINE",
"299 0 LINE SMOOTH",
"480 0 OFFCURVE",
"573 58 OFFCURVE",
"573 176 CURVE SMOOTH",
"573 261 OFFCURVE",
"499 323 OFFCURVE",
"392 334 CURVE"
);
},
{
closed = 1;
nodes = (
"469 60 OFFCURVE",
"382 44 OFFCURVE",
"327 44 CURVE SMOOTH",
"230 44 LINE",
"230 309 LINE",
"267 309 LINE SMOOTH",
"429 310 OFFCURVE",
"469 233 OFFCURVE",
"469 154 CURVE SMOOTH"
);
},
{
closed = 1;
nodes = (
"230 586 LINE",
"241 588 OFFCURVE",
"279 590 OFFCURVE",
"298 590 CURVE SMOOTH",
"390 590 OFFCURVE",
"425 533 OFFCURVE",
"425 461 CURVE SMOOTH",
"425 394 OFFCURVE",
"390 353 OFFCURVE",
"278 353 CURVE SMOOTH",
"230 353 LINE"
);
}
);
};
layerId = "E777F328-EA17-4AE7-9EBA-8002E537BA4F";
name = Light;
paths = (
{
closed = 1;
nodes = (
"303 0 LINE",
"441 0 OFFCURVE",
"512 76 OFFCURVE",
"512 173 CURVE",
"512 268 OFFCURVE",
"447 335 OFFCURVE",
"321 335 CURVE",
"137 335 LINE",
"137 306 LINE",
"303 306 LINE",
"404 306 OFFCURVE",
"460 262 OFFCURVE",
"460 174 CURVE",
"460 95 OFFCURVE",
"404 42 OFFCURVE",
"303 42 CURVE",
"137 42 LINE",
"137 0 LINE"
);
},
{
closed = 1;
nodes = (
"161 0 LINE",
"161 624 LINE",
"110 624 LINE",
"110 0 LINE"
);
},
{
closed = 1;
nodes = (
"321 320 LINE",
"429 320 OFFCURVE",
"484 383 OFFCURVE",
"484 462 CURVE",
"484 557 OFFCURVE",
"423 624 OFFCURVE",
"303 624 CURVE",
"137 624 LINE",
"137 581 LINE",
"303 581 LINE",
"387 581 OFFCURVE",
"433 542 OFFCURVE",
"433 463 CURVE",
"433 394 OFFCURVE",
"387 348 OFFCURVE",
"303 348 CURVE",
"137 348 LINE",
"137 320 LINE"
);
}
);
width = 558;
},
{
layerId = "AE81D269-4BA9-4AA4-8188-ACE3070EB296";
name = Bold;
paths = (
{
closed = 1;
nodes = (
"332 0 LINE",
"506 0 OFFCURVE",
"598 56 OFFCURVE",
"598 169 CURVE",
"598 267 OFFCURVE",
"524 337 OFFCURVE",
"378 337 CURVE",
"166 337 LINE",
"166 272 LINE",
"332 272 LINE",
"395 272 OFFCURVE",
"433 250 OFFCURVE",
"433 193 CURVE",
"433 137 OFFCURVE",
"395 115 OFFCURVE",
"332 115 CURVE",
"166 115 LINE",
"166 0 LINE"
);
},
{
closed = 1;
nodes = (
"248 0 LINE",
"248 624 LINE",
"83 624 LINE",
"83 0 LINE"
);
},
{
closed = 1;
nodes = (
"378 322 LINE",
"505 322 OFFCURVE",
"570 388 OFFCURVE",
"570 471 CURVE SMOOTH",
"570 580 OFFCURVE",
"488 624 OFFCURVE",
"332 624 CURVE",
"166 624 LINE",
"166 509 LINE",
"332 509 LINE",
"377 509 OFFCURVE",
"405 496 OFFCURVE",
"405 450 CURVE",
"405 404 OFFCURVE",
"377 387 OFFCURVE",
"332 387 CURVE",
"166 387 LINE",
"166 322 LINE"
);
}
);
width = 635;
}
);
leftKerningGroup = StraightsUC;
rightKerningGroup = B;
unicode = 0042;
userData = {
com.typemytype.robofont.layerData = {
background = {
anchors = (
);
components = (
);
contours = (
{
points = (
{
segmentType = line;
smooth = 0;
x = 393;
y = 365;
},
{
smooth = 0;
x = 489;
y = 387;
},
{
smooth = 0;
x = 550;
y = 439;
},
{
segmentType = curve;
smooth = 1;
x = 550;
y = 525;
},
{
smooth = 0;
x = 550;
y = 651;
},
{
smooth = 0;
x = 444;
y = 688;
},
{
segmentType = curve;
smooth = 1;
x = 289;
y = 688;
},
{
smooth = 0;
x = 252;
y = 688;
},
{
smooth = 0;
x = 200;
y = 685;
},
{
segmentType = curve;
smooth = 1;
x = 156;
y = 683;
},
{
smooth = 0;
x = 107;
y = 681;
},
{
smooth = 0;
x = 46;
y = 680;
},
{
segmentType = curve;
smooth = 0;
x = "-13";
y = 680;
},
{
segmentType = line;
smooth = 0;
x = "-13";
y = 649;
},
{
segmentType = line;
smooth = 0;
x = 91;
y = 610;
},
{
segmentType = line;
smooth = 0;
x = 91;
y = 70;
},
{
segmentType = line;
smooth = 0;
x = "-13";
y = 31;
},
{
segmentType = line;
smooth = 0;
x = "-13";
y = 0;
},
{
segmentType = line;
smooth = 1;
x = 275;
y = 0;
},
{
smooth = 0;
x = 486;
y = 0;
},
{
smooth = 0;
x = 597;
y = 62;
},
{
segmentType = curve;
smooth = 1;
x = 597;
y = 196;
},
{
smooth = 0;
x = 597;
y = 288;
},
{
smooth = 0;
x = 508;
y = 351;
},
{
segmentType = curve;
smooth = 0;
x = 393;
y = 363;
}
);
},
{
points = (
{
segmentType = line;
smooth = 0;
x = 206;
y = 45;
},
{
segmentType = line;
smooth = 0;
x = 206;
y = 338;
},
{
segmentType = line;
smooth = 1;
x = 245;
y = 338;
},
{
smooth = 0;
x = 414;
y = 338;
},
{
smooth = 0;
x = 464;
y = 257;
},
{
segmentType = curve;
smooth = 1;
x = 464;
y = 170;
},
{
smooth = 0;
x = 464;
y = 61;
},
{
smooth = 0;
x = 371;
y = 46;
},
{
segmentType = curve;
smooth = 1;
x = 301;
y = 46;
}
);
},
{
points = (
{
segmentType = line;
smooth = 0;
x = 206;
y = 638;
},
{
smooth = 0;
x = 218;
y = 640;
},
{
smooth = 0;
x = 254;
y = 642;
},
{
segmentType = curve;
smooth = 1;
x = 275;
y = 642;
},
{
smooth = 0;
x = 375;
y = 642;
},
{
smooth = 0;
x = 415;
y = 581;
},
{
segmentType = curve;
smooth = 1;
x = 415;
y = 501;
},
{
smooth = 0;
x = 415;
y = 429;
},
{
smooth = 0;
x = 375;
y = 383;
},
{
segmentType = curve;
smooth = 1;
x = 253;
y = 383;
},
{
segmentType = line;
smooth = 0;
x = 206;
y = 383;
}
);
}
);
lib = {
};
name = B;
unicodes = (
);
width = 608;
};
layer_01 = {
anchors = (
);
components = (
);
contours = (
);
lib = {
};
name = B;
unicodes = (
);
width = 608;
};
layer_02 = {
anchors = (
);
components = (
);
contours = (
);
lib = {
};
name = B;
unicodes = (
);
width = 608;
};
};
};
},
{
glyphname = C;
lastChange = "2015-04-28 13:51:32 +0000";
layers = (
{
anchors = (
{
name = bottom;
position = "{362, -9}";
},
{
name = top;
position = "{357, 669}";
}
);
background = {
paths = (
{
closed = 1;
nodes = (
"511 70 LINE",
"484 52 OFFCURVE",
"421 34 OFFCURVE",
"374 34 CURVE SMOOTH",
"201 34 OFFCURVE",
"160 166 OFFCURVE",
"160 338 CURVE SMOOTH",
"160 459 OFFCURVE",
"229 589 OFFCURVE",
"367 589 CURVE SMOOTH",
"403 589 OFFCURVE",
"454 574 OFFCURVE",
"491 550 CURVE",
"563 448 LINE",
"586 454 LINE",
"573 586 LINE",
"532 609 OFFCURVE",
"455 638 OFFCURVE",
"382 638 CURVE SMOOTH",
"191 638 OFFCURVE",
"54 500 OFFCURVE",
"54 298 CURVE SMOOTH",
"54 103 OFFCURVE",
"195 -20 OFFCURVE",
"363 -20 CURVE SMOOTH",
"467 -20 OFFCURVE",
"548 18 OFFCURVE",
"584 40 CURVE",
"599 177 LINE",
"582 177 LINE"
);
}
);
};
layerId = "E777F328-EA17-4AE7-9EBA-8002E537BA4F";
name = Light;
paths = (
{
closed = 1;
nodes = (
"466 -15 OFFCURVE",
"544 41 OFFCURVE",
"594 104 CURVE",
"563 134 LINE",
"515 74 OFFCURVE",
"450 28 OFFCURVE",
"355 28 CURVE",
"193 28 OFFCURVE",
"106 150 OFFCURVE",
"106 312 CURVE",
"106 470 OFFCURVE",
"196 593 OFFCURVE",
"368 593 CURVE",
"435 593 OFFCURVE",
"506 565 OFFCURVE",
"547 515 CURVE",
"581 547 LINE",
"531 604 OFFCURVE",
"452 636 OFFCURVE",
"368 636 CURVE",
"156 636 OFFCURVE",
"55 483 OFFCURVE",
"55 313 CURVE",
"55 141 OFFCURVE",
"151 -15 OFFCURVE",
"355 -15 CURVE"
);
}
);
width = 640;
},
{
anchors = (
{
name = bottom;
position = "{390, -9}";
},
{
name = top;
position = "{384, 669}";
}
);
layerId = "AE81D269-4BA9-4AA4-8188-ACE3070EB296";
name = Bold;
paths = (
{
closed = 1;
nodes = (
"465 -11 OFFCURVE",
"538 8 OFFCURVE",
"586 32 CURVE",
"555 145 LINE",
"518 129 OFFCURVE",
"458 107 OFFCURVE",
"391 107 CURVE SMOOTH",
"268 107 OFFCURVE",
"206 197 OFFCURVE",
"206 312 CURVE",
"206 424 OFFCURVE",
"274 515 OFFCURVE",
"398 515 CURVE SMOOTH",
"468 515 OFFCURVE",
"517 494 OFFCURVE",
"552 477 CURVE",
"585 592 LINE",
"538 616 OFFCURVE",
"474 634 OFFCURVE",
"398 634 CURVE SMOOTH",
"161 634 OFFCURVE",
"41 481 OFFCURVE",
"41 313 CURVE",
"41 144 OFFCURVE",
"153 -11 OFFCURVE",
"391 -11 CURVE"
);
}
);
width = 625;
}
);
leftKerningGroup = RoundsUC;
rightKerningGroup = C;
unicode = 0043;
userData = {
com.typemytype.robofont.layerData = {
background = {
anchors = (
);
components = (
);
contours = (
);
lib = {
};
name = C;
unicodes = (
);
width = 698;
};
layer_01 = {
anchors = (
);
components = (
);
contours = (
);
lib = {
};
name = C;
unicodes = (
);
width = 698;
};
layer_02 = {
anchors = (
);
components = (
);
contours = (
);
lib = {
};
name = C;
unicodes = (
);
width = 698;
};
};
};
},
{
glyphname = Cacute;
lastChange = "2015-04-28 13:51:32 +0000";
layers = (
{
background = {
paths = (
{
closed = 1;
nodes = (
"511 70 LINE",
"484 52 OFFCURVE",
"421 34 OFFCURVE",
"374 34 CURVE SMOOTH",
"201 34 OFFCURVE",
"160 166 OFFCURVE",
"160 338 CURVE SMOOTH",
"160 459 OFFCURVE",
"229 589 OFFCURVE",
"367 589 CURVE SMOOTH",
"403 589 OFFCURVE",
"454 574 OFFCURVE",
"491 550 CURVE",
"563 448 LINE",
"586 454 LINE",
"573 586 LINE",
"532 609 OFFCURVE",
"455 638 OFFCURVE",
"382 638 CURVE SMOOTH",
"191 638 OFFCURVE",
"54 500 OFFCURVE",
"54 298 CURVE SMOOTH",
"54 103 OFFCURVE",
"195 -20 OFFCURVE",
"363 -20 CURVE SMOOTH",
"467 -20 OFFCURVE",
"548 18 OFFCURVE",
"584 40 CURVE",
"599 177 LINE",
"582 177 LINE"
);
},
{
closed = 1;
nodes = (
"254 753 LINE",
"253 749 LINE",
"269 713 LINE",
"494 783 LINE",
"494 797 LINE",
"480 817 OFFCURVE",
"452 844 OFFCURVE",
"430 853 CURVE"
);
}
);
};
components = (
{
name = C;
},
{
name = acute.cap;
transform = "{1, 0, 0, 1, 206, 0}";
}
);
layerId = "E777F328-EA17-4AE7-9EBA-8002E537BA4F";
name = Light;
width = 640;
},
{
components = (
{
name = C;
},
{
name = acute.cap;
transform = "{1, 0, 0, 1, 219, -61}";
}
);
layerId = "AE81D269-4BA9-4AA4-8188-ACE3070EB296";
name = Bold;
width = 573;
}
);
leftKerningGroup = RoundsUC;
rightKerningGroup = C;
unicode = 0106;
userData = {
com.typemytype.robofont.layerData = {
background = {
anchors = (
);
components = (
);
contours = (
);
lib = {
};
name = Cacute;
unicodes = (
);
width = 698;
};
layer_01 = {
anchors = (
);
components = (
);
contours = (
);
lib = {
};
name = Cacute;
unicodes = (
);
width = 698;
};
layer_02 = {
anchors = (
);
components = (
);
contours = (
);
lib = {
};
name = Cacute;
unicodes = (
);
width = 698;
};
};
};
},
{
glyphname = Ccaron;
lastChange = "2015-04-28 13:51:32 +0000";
layers = (
{
background = {
paths = (
{
closed = 1;
nodes = (
"511 70 LINE",
"484 52 OFFCURVE",
"421 34 OFFCURVE",
"374 34 CURVE SMOOTH",
"201 34 OFFCURVE",
"160 166 OFFCURVE",
"160 338 CURVE SMOOTH",
"160 459 OFFCURVE",
"229 589 OFFCURVE",
"367 589 CURVE SMOOTH",
"403 589 OFFCURVE",
"454 574 OFFCURVE",
"491 550 CURVE",
"563 448 LINE",
"586 454 LINE",
"573 586 LINE",
"532 609 OFFCURVE",
"455 638 OFFCURVE",
"382 638 CURVE SMOOTH",
"191 638 OFFCURVE",
"54 500 OFFCURVE",
"54 298 CURVE SMOOTH",
"54 103 OFFCURVE",
"195 -20 OFFCURVE",
"363 -20 CURVE SMOOTH",
"467 -20 OFFCURVE",
"548 18 OFFCURVE",
"584 40 CURVE",
"599 177 LINE",
"582 177 LINE"
);
},
{
closed = 1;
nodes = (
"359 795 LINE",
"324 814 OFFCURVE",
"264 843 OFFCURVE",
"221 856 CURVE",
"202 828 LINE",
"202 824 LINE",
"239 797 OFFCURVE",
"293 753 OFFCURVE",
"327 722 CURVE",
"397 722 LINE",
"432 753 OFFCURVE",
"486 797 OFFCURVE",
"523 824 CURVE",
"523 828 LINE",
"504 856 LINE",
"461 843 OFFCURVE",
"401 814 OFFCURVE",
"365 795 CURVE"
);
}
);
};
components = (
{
name = C;
},
{
name = caron.cap;
transform = "{1, 0, 0, 1, 128, 0}";
}
);
layerId = "E777F328-EA17-4AE7-9EBA-8002E537BA4F";
name = Light;
width = 640;
},
{
components = (
{
name = C;
},
{
name = caron.cap;
transform = "{1, 0, 0, 1, 134, -61}";
}
);
layerId = "AE81D269-4BA9-4AA4-8188-ACE3070EB296";
name = Bold;
width = 573;
}
);
leftKerningGroup = RoundsUC;
rightKerningGroup = C;
unicode = 010C;
userData = {
com.typemytype.robofont.layerData = {
background = {
anchors = (
);
components = (
);
contours = (
);
lib = {
};
name = Ccaron;
unicodes = (
);
width = 698;
};
layer_01 = {
anchors = (
);
components = (
);
contours = (
);
lib = {
};
name = Ccaron;
unicodes = (
);
width = 698;
};
layer_02 = {
anchors = (
);
components = (
);
contours = (
);
lib = {
};
name = Ccaron;
unicodes = (
);
width = 698;
};
};
};
},
{
glyphname = Ccedilla;
lastChange = "2015-04-28 13:51:32 +0000";
layers = (
{
background = {
paths = (
{
closed = 1;
nodes = (
"511 70 LINE",
"484 52 OFFCURVE",
"421 34 OFFCURVE",
"374 34 CURVE SMOOTH",
"201 34 OFFCURVE",
"160 166 OFFCURVE",
"160 338 CURVE SMOOTH",
"160 459 OFFCURVE",
"229 589 OFFCURVE",
"367 589 CURVE SMOOTH",
"403 589 OFFCURVE",
"454 574 OFFCURVE",
"491 550 CURVE",
"563 448 LINE",
"586 454 LINE",
"573 586 LINE",
"532 609 OFFCURVE",
"455 638 OFFCURVE",
"382 638 CURVE SMOOTH",
"191 638 OFFCURVE",
"54 500 OFFCURVE",
"54 298 CURVE SMOOTH",
"54 117 OFFCURVE",
"175 -2 OFFCURVE",
"327 -18 CURVE",
"306 -57 OFFCURVE",
"282 -106 OFFCURVE",
"282 -126 CURVE SMOOTH",
"282 -144 OFFCURVE",
"295 -154 OFFCURVE",
"308 -154 CURVE SMOOTH",
"321 -154 OFFCURVE",
"338 -152 OFFCURVE",
"347 -152 CURVE SMOOTH",
"362 -152 OFFCURVE",
"371 -161 OFFCURVE",
"371 -183 CURVE SMOOTH",
"371 -212 OFFCURVE",
"327 -242 OFFCURVE",
"308 -259 CURVE",
"325 -285 LINE",
"349 -268 OFFCURVE",
"399 -233 OFFCURVE",
"425 -196 CURVE SMOOTH",
"438 -177 OFFCURVE",
"454 -152 OFFCURVE",
"454 -129 CURVE SMOOTH",
"454 -99 OFFCURVE",
"440 -77 OFFCURVE",
"412 -77 CURVE SMOOTH",
"399 -77 OFFCURVE",
"386 -80 OFFCURVE",
"372 -80 CURVE SMOOTH",
"363 -80 OFFCURVE",
"355 -76 OFFCURVE",
"355 -60 CURVE SMOOTH",
"355 -48 OFFCURVE",
"359 -33 OFFCURVE",
"363 -20 CURVE",
"467 -20 OFFCURVE",
"548 18 OFFCURVE",
"584 40 CURVE",
"599 177 LINE",
"582 177 LINE"
);
}
);
};
components = (
{
name = C;
},
{
name = cedilla;
transform = "{1, 0, 0, 1, 137, 0}";
}
);
layerId = "E777F328-EA17-4AE7-9EBA-8002E537BA4F";
name = Light;
width = 640;
},
{
components = (
{
name = C;
},
{
name = cedilla;
transform = "{1, 0, 0, 1, 145, 1}";
}
);
layerId = "AE81D269-4BA9-4AA4-8188-ACE3070EB296";
name = Bold;
width = 573;
}
);
leftKerningGroup = RoundsUC;
rightKerningGroup = C;
unicode = 00C7;
userData = {
com.typemytype.robofont.layerData = {
background = {
anchors = (
);
components = (
);
contours = (
);
lib = {
};
name = Ccedilla;
unicodes = (
);
width = 698;
};
layer_01 = {
anchors = (
);
components = (
);
contours = (
);
lib = {
};
name = Ccedilla;
unicodes = (
);
width = 698;
};
layer_02 = {
anchors = (
);
components = (
);
contours = (
);
lib = {
};
name = Ccedilla;
unicodes = (
);
width = 698;
};
};
};
},
{
glyphname = D;
lastChange = "2015-04-28 13:51:32 +0000";
layers = (
{
anchors = (
{
name = top;
position = "{324, 669}";
}
);
background = {
paths = (
{
closed = 1;
nodes = (
"314 585 LINE SMOOTH",
"491 585 OFFCURVE",
"565 475 OFFCURVE",
"565 317 CURVE SMOOTH",
"565 170 OFFCURVE",
"481 44 OFFCURVE",
"310 44 CURVE SMOOTH",
"230 44 LINE",
"230 585 LINE"
);
},
{
closed = 1;
nodes = (
"44 626 LINE",
"44 605 LINE",
"143 571 LINE",
"143 55 LINE",
"44 21 LINE",
"44 0 LINE",
"294 0 LINE SMOOTH",
"539 0 OFFCURVE",
"671 132 OFFCURVE",
"671 357 CURVE SMOOTH",
"671 529 OFFCURVE",
"546 626 OFFCURVE",
"325 626 CURVE SMOOTH"
);
}
);
};
layerId = "E777F328-EA17-4AE7-9EBA-8002E537BA4F";
name = Light;
paths = (
{
closed = 1;
nodes = (
"312 0 LINE",
"504 0 OFFCURVE",
"603 133 OFFCURVE",
"603 313 CURVE",
"603 488 OFFCURVE",
"504 624 OFFCURVE",
"312 624 CURVE",
"137 624 LINE",
"137 581 LINE",
"312 581 LINE",
"468 581 OFFCURVE",
"552 472 OFFCURVE",
"552 312 CURVE",
"552 149 OFFCURVE",
"468 42 OFFCURVE",
"312 42 CURVE",
"137 42 LINE",
"137 0 LINE"
);
},
{
closed = 1;
nodes = (
"161 0 LINE",
"161 624 LINE",
"110 624 LINE",
"110 0 LINE"
);
}
);
width = 658;
},
{
anchors = (
{
name = top;
position = "{333, 669}";
}
);
layerId = "AE81D269-4BA9-4AA4-8188-ACE3070EB296";
name = Bold;
paths = (
{
closed = 1;
nodes = (
"341 0 LINE",
"558 0 OFFCURVE",
"671 133 OFFCURVE",
"671 313 CURVE",
"671 488 OFFCURVE",
"558 624 OFFCURVE",
"341 624 CURVE",
"166 624 LINE",
"166 507 LINE",
"341 507 LINE",
"447 507 OFFCURVE",
"506 426 OFFCURVE",
"506 312 CURVE",
"506 195 OFFCURVE",
"447 116 OFFCURVE",
"341 116 CURVE",
"166 116 LINE",
"166 0 LINE"
);
},
{
closed = 1;
nodes = (
"248 0 LINE",
"248 624 LINE",
"83 624 LINE",
"83 0 LINE"
);
}
);
width = 713;
}
);
leftKerningGroup = StraightsUC;
rightKerningGroup = RoundsUC;
unicode = 0044;
userData = {
com.typemytype.robofont.layerData = {
background = {
anchors = (
);
components = (
);
contours = (
);
lib = {
};
name = D;
unicodes = (
);
width = 718;
};
layer_01 = {
anchors = (
);
components = (
);
contours = (
);
lib = {
};
name = D;
unicodes = (
);
width = 718;
};
layer_02 = {
anchors = (
);
components = (
);
contours = (
);
lib = {
};
name = D;
unicodes = (
);
width = 718;
};
};
};
},
{
glyphname = Eth;
lastChange = "2015-04-28 13:51:32 +0000";
layers = (
{
background = {
paths = (
{
closed = 1;
nodes = (
"44 626 LINE",
"44 605 LINE",
"143 571 LINE",
"143 353 LINE",
"52 353 LINE",
"52 310 LINE",
"143 310 LINE",
"143 55 LINE",
"44 21 LINE",
"44 0 LINE",
"294 0 LINE SMOOTH",
"539 0 OFFCURVE",
"671 132 OFFCURVE",
"671 357 CURVE SMOOTH",
"671 529 OFFCURVE",
"546 626 OFFCURVE",
"325 626 CURVE SMOOTH"
);
},
{
closed = 1;
nodes = (
"314 585 LINE SMOOTH",
"491 585 OFFCURVE",
"565 475 OFFCURVE",
"565 317 CURVE SMOOTH",
"565 170 OFFCURVE",
"481 44 OFFCURVE",
"310 44 CURVE SMOOTH",
"230 44 LINE",
"230 310 LINE",
"387 310 LINE",
"387 353 LINE",
"230 353 LINE",
"230 585 LINE"
);
}
);
};
components = (
{
name = D;
}
);
layerId = "E777F328-EA17-4AE7-9EBA-8002E537BA4F";
name = Light;
paths = (
{
closed = 1;
nodes = (
"360 293 LINE",
"360 331 LINE",
"3 331 LINE",
"3 293 LINE"
);
}
);
width = 658;
},
{
components = (
{
name = D;
}
);
layerId = "AE81D269-4BA9-4AA4-8188-ACE3070EB296";
name = Bold;
paths = (
{
closed = 1;
nodes = (
"360 274 LINE",
"360 386 LINE",
"3 386 LINE",
"3 274 LINE"
);
}
);
width = 713;
}
);
leftKerningGroup = StraightsUC;
rightKerningGroup = RoundsUC;
unicode = 00D0;
userData = {
com.typemytype.robofont.layerData = {
background = {
anchors = (
);
components = (
);
contours = (
);
lib = {
};
name = Eth;
unicodes = (
);
width = 800;
};
layer_01 = {
anchors = (
);
components = (
);
contours = (
);
lib = {
};
name = Eth;
unicodes = (
);
width = 800;
};
layer_02 = {
anchors = (
);
components = (
);
contours = (
);
lib = {
};
name = Eth;
unicodes = (
);
width = 800;
};
};
};
},
{
glyphname = Dcaron;
lastChange = "2015-04-28 13:51:32 +0000";
layers = (
{
background = {
paths = (
{
closed = 1;
nodes = (
"314 585 LINE SMOOTH",
"491 585 OFFCURVE",
"565 475 OFFCURVE",
"565 317 CURVE SMOOTH",
"565 170 OFFCURVE",
"481 44 OFFCURVE",
"310 44 CURVE SMOOTH",
"230 44 LINE",
"230 585 LINE"
);
},
{
closed = 1;
nodes = (
"44 626 LINE",
"44 605 LINE",
"143 571 LINE",
"143 55 LINE",
"44 21 LINE",
"44 0 LINE",
"294 0 LINE SMOOTH",
"539 0 OFFCURVE",
"671 132 OFFCURVE",
"671 357 CURVE SMOOTH",
"671 529 OFFCURVE",
"546 626 OFFCURVE",
"325 626 CURVE SMOOTH"
);
},
{
closed = 1;
nodes = (
"315 795 LINE",
"280 814 OFFCURVE",
"220 843 OFFCURVE",
"177 856 CURVE",
"158 828 LINE",
"158 824 LINE",
"195 797 OFFCURVE",
"249 753 OFFCURVE",
"283 722 CURVE",
"353 722 LINE",
"388 753 OFFCURVE",
"442 797 OFFCURVE",
"479 824 CURVE",
"479 828 LINE",
"460 856 LINE",
"417 843 OFFCURVE",
"357 814 OFFCURVE",
"321 795 CURVE"
);
}
);
};
components = (
{
name = D;
},
{
name = caron.cap;
transform = "{1, 0, 0, 1, 95, 0}";
}
);
layerId = "E777F328-EA17-4AE7-9EBA-8002E537BA4F";
name = Light;
width = 658;
},
{
components = (
{
name = D;
},
{
name = caron.cap;
transform = "{1, 0, 0, 1, 83, -61}";
}
);
layerId = "AE81D269-4BA9-4AA4-8188-ACE3070EB296";
name = Bold;
width = 654;
}
);
leftKerningGroup = StraightsUC;
rightKerningGroup = RoundsUC;
unicode = 010E;
userData = {
com.typemytype.robofont.layerData = {
background = {
anchors = (
);
components = (
);
contours = (
);
lib = {
};
name = Dcaron;
unicodes = (
);
width = 718;
};
layer_01 = {
anchors = (
);
components = (
);
contours = (
);
lib = {
};
name = Dcaron;
unicodes = (
);
width = 718;
};
layer_02 = {
anchors = (
);
components = (
);
contours = (
);
lib = {
};
name = Dcaron;
unicodes = (
);
width = 718;
};
};
};
},
{
glyphname = Dcroat;
lastChange = "2015-04-28 13:51:32 +0000";
layers = (
{
background = {
paths = (
{
closed = 1;
nodes = (
"44 626 LINE",
"44 605 LINE",
"143 571 LINE",
"143 353 LINE",
"52 353 LINE",
"52 310 LINE",
"143 310 LINE",
"143 55 LINE",
"44 21 LINE",
"44 0 LINE",
"294 0 LINE SMOOTH",
"539 0 OFFCURVE",
"671 132 OFFCURVE",
"671 357 CURVE SMOOTH",
"671 529 OFFCURVE",
"546 626 OFFCURVE",
"325 626 CURVE SMOOTH"
);
},
{
closed = 1;
nodes = (
"314 585 LINE SMOOTH",
"491 585 OFFCURVE",
"565 475 OFFCURVE",
"565 317 CURVE SMOOTH",
"565 170 OFFCURVE",
"481 44 OFFCURVE",
"310 44 CURVE SMOOTH",
"230 44 LINE",
"230 310 LINE",
"387 310 LINE",
"387 353 LINE",
"230 353 LINE",
"230 585 LINE"
);
}
);
};
components = (
{
name = D;
}
);
layerId = "E777F328-EA17-4AE7-9EBA-8002E537BA4F";
name = Light;
paths = (
{
closed = 1;
nodes = (
"360 293 LINE",
"360 331 LINE",
"3 331 LINE",
"3 293 LINE"
);
}
);
width = 658;
},
{
components = (
{
name = D;
}
);
layerId = "AE81D269-4BA9-4AA4-8188-ACE3070EB296";
name = Bold;
paths = (
{
closed = 1;
nodes = (
"360 274 LINE",
"360 386 LINE",
"3 386 LINE",
"3 274 LINE"
);
}
);
width = 713;
}
);
leftKerningGroup = StraightsUC;
rightKerningGroup = RoundsUC;
unicode = 0110;
userData = {
com.typemytype.robofont.layerData = {
background = {
anchors = (
);
components = (
);
contours = (
);
lib = {
};
name = Dcroat;
unicodes = (
);
width = 800;
};
layer_01 = {
anchors = (
);
components = (
);
contours = (
);
lib = {
};
name = Dcroat;
unicodes = (
);
width = 800;
};
layer_02 = {
anchors = (
);
components = (
);
contours = (
);
lib = {
};
name = Dcroat;
unicodes = (
);
width = 800;
};
};
};
},
{
glyphname = E;
lastChange = "2015-04-28 13:51:32 +0000";
layers = (
{
anchors = (
{
name = bottom;
position = "{425, -9}";
},
{
name = top;
position = "{288, 669}";
}
);
background = {
paths = (
{
closed = 1;
nodes = (
"379 354 LINE",
"230 354 LINE",
"230 585 LINE",
"407 585 LINE",
"481 480 LINE",
"504 486 LINE",
"489 626 LINE",
"44 626 LINE",
"44 605 LINE",
"143 571 LINE",
"143 55 LINE",
"44 21 LINE",
"44 0 LINE",
"516 0 LINE",
"536 150 LINE",
"514 150 LINE",
"415 41 LINE",
"230 41 LINE",
"230 308 LINE",
"364 308 LINE",
"412 225 LINE",
"435 230 LINE",
"450 392 LINE",
"432 398 LINE"
);
}
);
};
layerId = "E777F328-EA17-4AE7-9EBA-8002E537BA4F";
name = Light;
paths = (
{
closed = 1;
nodes = (
"161 0 LINE",
"161 624 LINE",
"110 624 LINE",
"110 0 LINE"
);
},
{
closed = 1;
nodes = (
"476 0 LINE",
"476 42 LINE",
"137 42 LINE",
"137 0 LINE"
);
},
{
closed = 1;
nodes = (
"421 309 LINE",
"421 351 LINE",
"137 351 LINE",
"137 309 LINE"
);
},
{
closed = 1;
nodes = (
"458 581 LINE",
"458 624 LINE",
"137 624 LINE",
"137 581 LINE"
);
}
);
width = 531;
},
{
anchors = (
{
name = bottom;
position = "{368, -9}";
},
{
name = top;
position = "{288, 669}";
}
);
layerId = "AE81D269-4BA9-4AA4-8188-ACE3070EB296";
name = Bold;
paths = (
{
closed = 1;
nodes = (
"248 0 LINE",
"248 624 LINE",
"83 624 LINE",
"83 0 LINE"
);
},
{
closed = 1;
nodes = (
"505 0 LINE",
"505 115 LINE",
"166 115 LINE",
"166 0 LINE"
);
},
{
closed = 1;
nodes = (
"450 272 LINE",
"450 387 LINE",
"166 387 LINE",
"166 272 LINE"
);
},
{
closed = 1;
nodes = (
"487 509 LINE",
"487 624 LINE",
"166 624 LINE",
"166 509 LINE"
);
}
);
width = 551;
}
);
leftKerningGroup = StraightsUC;
rightKerningGroup = E;
unicode = 0045;
userData = {
com.typemytype.robofont.guides = (
{
angle = 90;
isGlobal = 0;
magnetic = 5;
x = 519;
y = "-28";
}
);
com.typemytype.robofont.layerData = {
background = {
anchors = (
);
components = (
);
contours = (
);
lib = {
};
name = E;
unicodes = (
);
width = 579;
};
layer_01 = {
anchors = (
);
components = (
);
contours = (
);
lib = {
};
name = E;
unicodes = (
);
width = 579;
};
layer_02 = {
anchors = (
);
components = (
);
contours = (
);
lib = {
};
name = E;
unicodes = (
);
width = 579;
};
};
};
},
{
glyphname = Eacute;
lastChange = "2015-04-28 13:51:32 +0000";
layers = (
{
background = {
paths = (
{
closed = 1;
nodes = (
"379 354 LINE",
"230 354 LINE",
"230 585 LINE",
"407 585 LINE",
"481 480 LINE",
"504 486 LINE",
"489 626 LINE",
"44 626 LINE",
"44 605 LINE",
"143 571 LINE",
"143 55 LINE",
"44 21 LINE",
"44 0 LINE",
"516 0 LINE",
"536 150 LINE",
"514 150 LINE",
"415 41 LINE",
"230 41 LINE",
"230 308 LINE",
"364 308 LINE",
"412 225 LINE",
"435 230 LINE",
"450 392 LINE",
"432 398 LINE"
);
},
{
closed = 1;
nodes = (
"200 753 LINE",
"199 749 LINE",
"215 713 LINE",
"440 783 LINE",
"440 797 LINE",
"426 817 OFFCURVE",
"398 844 OFFCURVE",
"376 853 CURVE"
);
}
);
};
components = (
{
name = E;
},
{
name = acute.cap;
transform = "{1, 0, 0, 1, 137, 0}";
}
);
layerId = "E777F328-EA17-4AE7-9EBA-8002E537BA4F";
name = Light;
width = 531;
},
{
components = (
{
name = E;
},
{
name = acute.cap;
transform = "{1, 0, 0, 1, 123, -61}";
}
);
layerId = "AE81D269-4BA9-4AA4-8188-ACE3070EB296";
name = Bold;
width = 505;
}
);
leftKerningGroup = StraightsUC;
rightKerningGroup = E;
unicode = 00C9;
userData = {
com.typemytype.robofont.layerData = {
background = {
anchors = (
);
components = (
);
contours = (
);
lib = {
};
name = Eacute;
unicodes = (
);
width = 579;
};
layer_01 = {
anchors = (
);
components = (
);
contours = (
);
lib = {
};
name = Eacute;
unicodes = (
);
width = 579;
};
layer_02 = {
anchors = (
);
components = (
);
contours = (
);
lib = {
};
name = Eacute;
unicodes = (
);
width = 579;
};
};
};
},
{
glyphname = Ecaron;
lastChange = "2015-04-28 13:51:32 +0000";
layers = (
{
background = {
paths = (
{
closed = 1;
nodes = (
"379 354 LINE",
"230 354 LINE",
"230 585 LINE",
"407 585 LINE",
"481 480 LINE",
"504 486 LINE",
"489 626 LINE",
"44 626 LINE",
"44 605 LINE",
"143 571 LINE",
"143 55 LINE",
"44 21 LINE",
"44 0 LINE",
"516 0 LINE",
"536 150 LINE",
"514 150 LINE",
"415 41 LINE",
"230 41 LINE",
"230 308 LINE",
"364 308 LINE",
"412 225 LINE",
"435 230 LINE",
"450 392 LINE",
"432 398 LINE"
);
},
{
closed = 1;
nodes = (
"299 795 LINE",
"264 814 OFFCURVE",
"204 843 OFFCURVE",
"161 856 CURVE",
"142 828 LINE",
"142 824 LINE",
"179 797 OFFCURVE",
"233 753 OFFCURVE",
"267 722 CURVE",
"337 722 LINE",
"372 753 OFFCURVE",
"426 797 OFFCURVE",
"463 824 CURVE",
"463 828 LINE",
"444 856 LINE",
"401 843 OFFCURVE",
"341 814 OFFCURVE",
"305 795 CURVE"
);
}
);
};
components = (
{
name = E;
},
{
name = caron.cap;
transform = "{1, 0, 0, 1, 59, 0}";
}
);
layerId = "E777F328-EA17-4AE7-9EBA-8002E537BA4F";
name = Light;
width = 531;
},
{
components = (
{
name = E;
},
{
name = caron.cap;
transform = "{1, 0, 0, 1, 38, -61}";
}
);
layerId = "AE81D269-4BA9-4AA4-8188-ACE3070EB296";
name = Bold;
width = 505;
}
);
leftKerningGroup = StraightsUC;
rightKerningGroup = E;
unicode = 011A;
userData = {
com.typemytype.robofont.layerData = {
background = {
anchors = (
);
components = (
);
contours = (
);
lib = {
};
name = Ecaron;
unicodes = (
);
width = 579;
};
layer_01 = {
anchors = (
);
components = (
);
contours = (
);
lib = {
};
name = Ecaron;
unicodes = (
);
width = 579;
};
layer_02 = {
anchors = (
);
components = (
);
contours = (
);
lib = {
};
name = Ecaron;
unicodes = (
);
width = 579;
};
};
};
},
{
glyphname = Ecircumflex;
lastChange = "2015-04-28 13:51:32 +0000";
layers = (
{
background = {
paths = (
{
closed = 1;
nodes = (
"379 354 LINE",
"230 354 LINE",
"230 585 LINE",
"407 585 LINE",
"481 480 LINE",
"504 486 LINE",
"489 626 LINE",
"44 626 LINE",
"44 605 LINE",
"143 571 LINE",
"143 55 LINE",
"44 21 LINE",
"44 0 LINE",
"516 0 LINE",
"536 150 LINE",
"514 150 LINE",
"415 41 LINE",
"230 41 LINE",
"230 308 LINE",
"364 308 LINE",
"412 225 LINE",
"435 230 LINE",
"450 392 LINE",
"432 398 LINE"
);
},
{
closed = 1;
nodes = (
"297 773 LINE",
"332 754 OFFCURVE",
"392 725 OFFCURVE",
"435 712 CURVE",
"454 740 LINE",
"454 744 LINE",
"417 771 OFFCURVE",
"363 815 OFFCURVE",
"329 846 CURVE",
"259 846 LINE",
"224 815 OFFCURVE",
"170 771 OFFCURVE",
"133 744 CURVE",
"133 740 LINE",
"152 712 LINE",
"195 725 OFFCURVE",
"255 754 OFFCURVE",
"291 773 CURVE"
);
}
);
};
components = (
{
name = E;
},
{
name = circumflex.cap;
transform = "{1, 0, 0, 1, 59, 0}";
}
);
layerId = "E777F328-EA17-4AE7-9EBA-8002E537BA4F";
name = Light;
width = 531;
},
{
components = (
{
name = E;
},
{
name = circumflex.cap;
transform = "{1, 0, 0, 1, 38, -61}";
}
);
layerId = "AE81D269-4BA9-4AA4-8188-ACE3070EB296";
name = Bold;
width = 505;
}
);
leftKerningGroup = StraightsUC;
rightKerningGroup = E;
unicode = 00CA;
userData = {
com.typemytype.robofont.layerData = {
background = {
anchors = (
);
components = (
);
contours = (
);
lib = {
};
name = Ecircumflex;
unicodes = (
);
width = 579;
};
layer_01 = {
anchors = (
);
components = (
);
contours = (
);
lib = {
};
name = Ecircumflex;
unicodes = (
);
width = 579;
};
layer_02 = {
anchors = (
);
components = (
);
contours = (
);
lib = {
};
name = Ecircumflex;
unicodes = (
);
width = 579;
};
};
};
},
{
glyphname = Edieresis;
lastChange = "2015-04-28 13:51:32 +0000";
layers = (
{
background = {
paths = (
{
closed = 1;
nodes = (
"379 354 LINE",
"230 354 LINE",
"230 585 LINE",
"407 585 LINE",
"481 480 LINE",
"504 486 LINE",
"489 626 LINE",
"44 626 LINE",
"44 605 LINE",
"143 571 LINE",
"143 55 LINE",
"44 21 LINE",
"44 0 LINE",
"516 0 LINE",
"536 150 LINE",
"514 150 LINE",
"415 41 LINE",
"230 41 LINE",
"230 308 LINE",
"364 308 LINE",
"412 225 LINE",
"435 230 LINE",
"450 392 LINE",
"432 398 LINE"
);
},
{
closed = 1;
nodes = (
"105 748 OFFCURVE",
"128 724 OFFCURVE",
"157 724 CURVE SMOOTH",
"187 724 OFFCURVE",
"210 748 OFFCURVE",
"210 779 CURVE SMOOTH",
"210 809 OFFCURVE",
"187 834 OFFCURVE",
"157 834 CURVE SMOOTH",
"128 834 OFFCURVE",
"105 809 OFFCURVE",
"105 779 CURVE SMOOTH"
);
},
{
closed = 1;
nodes = (
"374 748 OFFCURVE",
"397 724 OFFCURVE",
"426 724 CURVE SMOOTH",
"456 724 OFFCURVE",
"479 748 OFFCURVE",
"479 779 CURVE SMOOTH",
"479 809 OFFCURVE",
"456 834 OFFCURVE",
"426 834 CURVE SMOOTH",
"397 834 OFFCURVE",
"374 809 OFFCURVE",
"374 779 CURVE SMOOTH"
);
}
);
};
components = (
{
name = E;
},
{
name = dieresis.cap;
transform = "{1, 0, 0, 1, 59, 0}";
}
);
layerId = "E777F328-EA17-4AE7-9EBA-8002E537BA4F";
name = Light;
width = 531;
},
{
components = (
{
name = E;
},
{
name = dieresis.cap;
transform = "{1, 0, 0, 1, 38, -61}";
}
);
layerId = "AE81D269-4BA9-4AA4-8188-ACE3070EB296";
name = Bold;
width = 505;
}
);
leftKerningGroup = StraightsUC;
rightKerningGroup = E;
unicode = 00CB;
userData = {
com.typemytype.robofont.layerData = {
background = {
anchors = (
);
components = (
);
contours = (
);
lib = {
};
name = Edieresis;
unicodes = (
);
width = 579;
};
layer_01 = {
anchors = (
);
components = (
);
contours = (
);
lib = {
};
name = Edieresis;
unicodes = (
);
width = 579;
};
layer_02 = {
anchors = (
);
components = (
);
contours = (
);
lib = {
};
name = Edieresis;
unicodes = (
);
width = 579;
};
};
};
},
{
glyphname = Edotaccent;
lastChange = "2015-04-28 13:51:32 +0000";
layers = (
{
background = {
paths = (
{
closed = 1;
nodes = (
"379 354 LINE",
"230 354 LINE",
"230 585 LINE",
"407 585 LINE",
"481 480 LINE",
"504 486 LINE",
"489 626 LINE",
"44 626 LINE",
"44 605 LINE",
"143 571 LINE",
"143 55 LINE",
"44 21 LINE",
"44 0 LINE",
"516 0 LINE",
"536 150 LINE",
"514 150 LINE",
"415 41 LINE",
"230 41 LINE",
"230 308 LINE",
"364 308 LINE",
"412 225 LINE",
"435 230 LINE",
"450 392 LINE",
"432 398 LINE"
);
},
{
closed = 1;
nodes = (
"238 775 OFFCURVE",
"263 748 OFFCURVE",
"295 748 CURVE SMOOTH",
"326 748 OFFCURVE",
"352 775 OFFCURVE",
"352 808 CURVE SMOOTH",
"352 840 OFFCURVE",
"326 868 OFFCURVE",
"295 868 CURVE SMOOTH",
"263 868 OFFCURVE",
"238 840 OFFCURVE",
"238 808 CURVE SMOOTH"
);
}
);
};
components = (
{
name = E;
},
{
name = dotaccent.cap;
transform = "{1, 0, 0, 1, 59, 0}";
}
);
layerId = "E777F328-EA17-4AE7-9EBA-8002E537BA4F";
name = Light;
width = 531;
},
{
components = (
{
name = E;
},
{
name = dotaccent.cap;
transform = "{1, 0, 0, 1, 38, -61}";
}
);
layerId = "AE81D269-4BA9-4AA4-8188-ACE3070EB296";
name = Bold;
width = 505;
}
);
leftKerningGroup = StraightsUC;
rightKerningGroup = E;
unicode = 0116;
userData = {
com.typemytype.robofont.layerData = {
background = {
anchors = (
);
components = (
);
contours = (
);
lib = {
};
name = Edotaccent;
unicodes = (
);
width = 579;
};
layer_01 = {
anchors = (
);
components = (
);
contours = (
);
lib = {
};
name = Edotaccent;
unicodes = (
);
width = 579;
};
layer_02 = {
anchors = (
);
components = (
);
contours = (
);
lib = {
};
name = Edotaccent;
unicodes = (
);
width = 579;
};
};
};
},
{
glyphname = Egrave;
lastChange = "2015-04-28 13:51:32 +0000";
layers = (
{
background = {
paths = (
{
closed = 1;
nodes = (
"379 354 LINE",
"230 354 LINE",
"230 585 LINE",
"407 585 LINE",
"481 480 LINE",
"504 486 LINE",
"489 626 LINE",
"44 626 LINE",
"44 605 LINE",
"143 571 LINE",
"143 55 LINE",
"44 21 LINE",
"44 0 LINE",
"516 0 LINE",
"536 150 LINE",
"514 150 LINE",
"415 41 LINE",
"230 41 LINE",
"230 308 LINE",
"364 308 LINE",
"412 225 LINE",
"435 230 LINE",
"450 392 LINE",
"432 398 LINE"
);
},
{
closed = 1;
nodes = (
"239 856 LINE",
"216 847 OFFCURVE",
"188 820 OFFCURVE",
"175 800 CURVE",
"174 786 LINE",
"399 716 LINE",
"415 752 LINE",
"414 756 LINE"
);
}
);
};
components = (
{
name = E;
},
{
name = grave.cap;
transform = "{1, 0, 0, 1, -19, 0}";
}
);
layerId = "E777F328-EA17-4AE7-9EBA-8002E537BA4F";
name = Light;
width = 531;
},
{
components = (
{
name = E;
},
{
name = grave.cap;
transform = "{1, 0, 0, 1, -47, -61}";
}
);
layerId = "AE81D269-4BA9-4AA4-8188-ACE3070EB296";
name = Bold;
width = 505;
}
);
leftKerningGroup = StraightsUC;
rightKerningGroup = E;
unicode = 00C8;
userData = {
com.typemytype.robofont.layerData = {
background = {
anchors = (
);
components = (
);
contours = (
);
lib = {
};
name = Egrave;
unicodes = (
);
width = 579;
};
layer_01 = {
anchors = (
);
components = (
);
contours = (
);
lib = {
};
name = Egrave;
unicodes = (
);
width = 579;
};
layer_02 = {
anchors = (
);
components = (
);
contours = (
);
lib = {
};
name = Egrave;
unicodes = (
);
width = 579;
};
};
};
},
{
glyphname = Emacron;
lastChange = "2015-04-28 13:51:32 +0000";
layers = (
{
background = {
paths = (
{
closed = 1;
nodes = (
"379 354 LINE",
"230 354 LINE",
"230 585 LINE",
"407 585 LINE",
"481 480 LINE",
"504 486 LINE",
"489 626 LINE",
"44 626 LINE",
"44 605 LINE",
"143 571 LINE",
"143 55 LINE",
"44 21 LINE",
"44 0 LINE",
"516 0 LINE",
"536 150 LINE",
"514 150 LINE",
"415 41 LINE",
"230 41 LINE",
"230 308 LINE",
"364 308 LINE",
"412 225 LINE",
"435 230 LINE",
"450 392 LINE",
"432 398 LINE"
);
},
{
closed = 1;
nodes = (
"486 746 LINE",
"501 782 LINE",
"501 795 LINE",
"90 795 LINE",
"75 760 LINE",
"75 746 LINE"
);
}
);
};
components = (
{
name = E;
},
{
name = macron.cap;
transform = "{1, 0, 0, 1, 59, 0}";
}
);
layerId = "E777F328-EA17-4AE7-9EBA-8002E537BA4F";
name = Light;
width = 531;
},
{
components = (
{
name = E;
},
{
name = macron.cap;
transform = "{1, 0, 0, 1, 38, -61}";
}
);
layerId = "AE81D269-4BA9-4AA4-8188-ACE3070EB296";
name = Bold;
width = 505;
}
);
leftKerningGroup = StraightsUC;
rightKerningGroup = E;
unicode = 0112;
userData = {
com.typemytype.robofont.layerData = {
background = {
anchors = (
);
components = (
);
contours = (
);
lib = {
};
name = Emacron;
unicodes = (
);
width = 579;
};
layer_01 = {
anchors = (
);
components = (
);
contours = (
);
lib = {
};
name = Emacron;
unicodes = (
);
width = 579;
};
layer_02 = {
anchors = (
);
components = (
);
contours = (
);
lib = {
};
name = Emacron;
unicodes = (
);
width = 579;
};
};
};
},
{
glyphname = Eogonek;
lastChange = "2015-04-28 13:51:32 +0000";
layers = (
{
background = {
paths = (
{
closed = 1;
nodes = (
"379 354 LINE",
"230 354 LINE",
"230 585 LINE",
"407 585 LINE",
"481 480 LINE",
"504 486 LINE",
"489 626 LINE",
"44 626 LINE",
"44 605 LINE",
"143 571 LINE",
"143 55 LINE",
"44 21 LINE",
"44 0 LINE",
"388 0 LINE",
"327 -44 OFFCURVE",
"252 -121 OFFCURVE",
"252 -188 CURVE SMOOTH",
"252 -229 OFFCURVE",
"275 -265 OFFCURVE",
"316 -265 CURVE SMOOTH",
"358 -265 OFFCURVE",
"415 -225 OFFCURVE",
"455 -174 CURVE",
"430 -151 LINE",
"402 -183 OFFCURVE",
"372 -197 OFFCURVE",
"351 -197 CURVE SMOOTH",
"332 -197 OFFCURVE",
"319 -180 OFFCURVE",
"319 -160 CURVE SMOOTH",
"319 -106 OFFCURVE",
"373 -48 OFFCURVE",
"449 0 CURVE",
"516 0 LINE",
"536 150 LINE",
"514 150 LINE",
"415 41 LINE",
"230 41 LINE",
"230 308 LINE",
"364 308 LINE",
"412 225 LINE",
"435 230 LINE",
"450 392 LINE",
"432 398 LINE"
);
}
);
};
components = (
{
name = E;
},
{
name = ogonek;
transform = "{1, 0, 0, 1, 176, 0}";
}
);
layerId = "E777F328-EA17-4AE7-9EBA-8002E537BA4F";
name = Light;
width = 531;
},
{
components = (
{
name = E;
},
{
name = ogonek;
transform = "{1, 0, 0, 1, 97, 1}";
}
);
layerId = "AE81D269-4BA9-4AA4-8188-ACE3070EB296";
name = Bold;
width = 505;
}
);
leftKerningGroup = StraightsUC;
rightKerningGroup = E;
unicode = 0118;
userData = {
com.typemytype.robofont.layerData = {
background = {
anchors = (
);
components = (
);
contours = (
);
lib = {
};
name = Eogonek;
unicodes = (
);
width = 579;
};
layer_01 = {
anchors = (
);
components = (
);
contours = (
);
lib = {
};
name = Eogonek;
unicodes = (
);
width = 579;
};
layer_02 = {
anchors = (
);
components = (
);
contours = (
);
lib = {
};
name = Eogonek;
unicodes = (
);
width = 579;
};
};
};
},
{
glyphname = F;
lastChange = "2015-04-28 13:51:32 +0000";
layers = (
{
background = {
paths = (
{
closed = 1;
nodes = (
"378 345 LINE",
"230 345 LINE",
"230 585 LINE",
"396 585 LINE",
"484 462 LINE",
"506 469 LINE",
"489 626 LINE",
"44 626 LINE",
"44 605 LINE",
"143 571 LINE",
"143 55 LINE",
"44 21 LINE",
"44 0 LINE",
"328 0 LINE",
"328 29 LINE",
"230 48 LINE",
"230 299 LINE",
"363 299 LINE",
"411 216 LINE",
"434 221 LINE",
"449 383 LINE",
"431 389 LINE"
);
}
);
};
layerId = "E777F328-EA17-4AE7-9EBA-8002E537BA4F";
name = Light;
paths = (
{
closed = 1;
nodes = (
"161 0 LINE",
"161 624 LINE",
"110 624 LINE",
"110 0 LINE"
);
},
{
closed = 1;
nodes = (
"421 300 LINE",
"421 342 LINE",
"137 342 LINE",
"137 300 LINE"
);
},
{
closed = 1;
nodes = (
"458 581 LINE",
"458 624 LINE",
"137 624 LINE",
"137 581 LINE"
);
}
);
width = 485;
},
{
layerId = "AE81D269-4BA9-4AA4-8188-ACE3070EB296";
name = Bold;
paths = (
{
closed = 1;
nodes = (
"248 0 LINE",
"248 624 LINE",
"83 624 LINE",
"83 0 LINE"
);
},
{
closed = 1;
nodes = (
"450 235 LINE",
"450 351 LINE",
"166 351 LINE",
"166 235 LINE"
);
},
{
closed = 1;
nodes = (
"487 507 LINE",
"487 624 LINE",
"166 624 LINE",
"166 507 LINE"
);
}
);
width = 505;
}
);
leftKerningGroup = StraightsUC;
rightKerningGroup = F;
unicode = 0046;
userData = {
com.typemytype.robofont.layerData = {
background = {
anchors = (
);
components = (
);
contours = (
{
points = (
{
segmentType = line;
smooth = 0;
x = 386;
y = 635;
},
{
segmentType = line;
smooth = 0;
x = 481;
y = 499;
},
{
segmentType = line;
smooth = 0;
x = 512;
y = 508;
},
{
segmentType = line;
smooth = 0;
x = 493;
y = 680;
},
{
segmentType = line;
smooth = 0;
x = "-13";
y = 680;
},
{
segmentType = line;
smooth = 0;
x = "-13";
y = 649;
},
{
segmentType = line;
smooth = 0;
x = 91;
y = 610;
},
{
segmentType = line;
smooth = 0;
x = 91;
y = 70;
},
{
segmentType = line;
smooth = 0;
x = "-13";
y = 31;
},
{
segmentType = line;
smooth = 0;
x = "-13";
y = 0;
},
{
segmentType = line;
smooth = 0;
x = 309;
y = 0;
},
{
segmentType = line;
smooth = 0;
x = 309;
y = 38;
},
{
segmentType = line;
smooth = 0;
x = 206;
y = 57;
},
{
segmentType = line;
smooth = 0;
x = 206;
y = 323;
},
{
segmentType = line;
smooth = 0;
x = 360;
y = 323;
},
{
segmentType = line;
smooth = 0;
x = 406;
y = 245;
},
{
segmentType = line;
smooth = 0;
x = 429;
y = 249;
},
{
segmentType = line;
smooth = 0;
x = 444;
y = 412;
},
{
segmentType = line;
smooth = 0;
x = 426;
y = 417;
},
{
segmentType = line;
smooth = 0;
x = 378;
y = 378;
},
{
segmentType = line;
smooth = 0;
x = 206;
y = 378;
},
{
segmentType = line;
smooth = 0;
x = 206;
y = 635;
}
);
}
);
lib = {
};
name = F;
unicodes = (
);
width = 529;
};
layer_01 = {
anchors = (
);
components = (
);
contours = (
);
lib = {
};
name = F;
unicodes = (
);
width = 529;
};
layer_02 = {
anchors = (
);
components = (
);
contours = (
);
lib = {
};
name = F;
unicodes = (
);
width = 529;
};
};
};
},
{
glyphname = G;
lastChange = "2015-04-28 13:51:32 +0000";
layers = (
{
anchors = (
{
name = bottom;
position = "{359, -9}";
},
{
name = top;
position = "{356, 669}";
}
);
background = {
paths = (
{
closed = 1;
nodes = (
"615 240 LINE",
"669 257 LINE",
"669 286 LINE",
"437 286 LINE",
"437 265 LINE",
"535 231 LINE",
"535 68 LINE",
"503 49 OFFCURVE",
"449 34 OFFCURVE",
"390 34 CURVE SMOOTH",
"205 34 OFFCURVE",
"160 166 OFFCURVE",
"160 340 CURVE SMOOTH",
"160 461 OFFCURVE",
"235 589 OFFCURVE",
"384 589 CURVE SMOOTH",
"422 589 OFFCURVE",
"478 576 OFFCURVE",
"512 560 CURVE",
"593 448 LINE",
"616 454 LINE",
"603 587 LINE",
"562 611 OFFCURVE",
"489 638 OFFCURVE",
"399 638 CURVE SMOOTH",
"192 638 OFFCURVE",
"54 506 OFFCURVE",
"54 301 CURVE SMOOTH",
"54 106 OFFCURVE",
"193 -20 OFFCURVE",
"378 -20 CURVE SMOOTH",
"497 -20 OFFCURVE",
"578 21 OFFCURVE",
"615 43 CURVE"
);
}
);
};
layerId = "E777F328-EA17-4AE7-9EBA-8002E537BA4F";
name = Light;
paths = (
{
closed = 1;
nodes = (
"458 -15 OFFCURVE",
"535 7 OFFCURVE",
"577 37 CURVE",
"546 68 LINE",
"509 43 OFFCURVE",
"442 28 OFFCURVE",
"355 28 CURVE",
"193 28 OFFCURVE",
"106 150 OFFCURVE",
"106 312 CURVE",
"106 470 OFFCURVE",
"196 593 OFFCURVE",
"368 593 CURVE",
"435 593 OFFCURVE",
"506 565 OFFCURVE",
"547 515 CURVE",
"581 547 LINE",
"531 604 OFFCURVE",
"452 636 OFFCURVE",
"368 636 CURVE",
"156 636 OFFCURVE",
"55 483 OFFCURVE",
"55 313 CURVE",
"55 141 OFFCURVE",
"151 -15 OFFCURVE",
"355 -15 CURVE"
);
},
{
closed = 1;
nodes = (
"577 37 LINE",
"577 285 LINE",
"527 285 LINE",
"527 37 LINE"
);
}
);
width = 655;
},
{
anchors = (
{
name = bottom;
position = "{390, -9}";
},
{
name = top;
position = "{384, 669}";
}
);
layerId = "AE81D269-4BA9-4AA4-8188-ACE3070EB296";
name = Bold;
paths = (
{
closed = 1;
nodes = (
"474 -11 OFFCURVE",
"556 8 OFFCURVE",
"611 32 CURVE",
"580 145 LINE",
"536 129 OFFCURVE",
"467 107 OFFCURVE",
"391 107 CURVE SMOOTH",
"268 107 OFFCURVE",
"206 197 OFFCURVE",
"206 312 CURVE",
"206 424 OFFCURVE",
"274 515 OFFCURVE",
"398 515 CURVE SMOOTH",
"468 515 OFFCURVE",
"517 494 OFFCURVE",
"552 477 CURVE",
"585 592 LINE",
"538 616 OFFCURVE",
"474 634 OFFCURVE",
"398 634 CURVE SMOOTH",
"161 634 OFFCURVE",
"41 481 OFFCURVE",
"41 313 CURVE",
"41 144 OFFCURVE",
"153 -11 OFFCURVE",
"391 -11 CURVE"
);
},
{
closed = 1;
nodes = (
"611 32 LINE",
"611 308 LINE",
"451 308 LINE",
"451 32 LINE"
);
}
);
width = 652;
}
);
leftKerningGroup = RoundsUC;
rightKerningGroup = G;
unicode = 0047;
userData = {
com.typemytype.robofont.layerData = {
background = {
anchors = (
);
components = (
);
contours = (
{
points = (
{
segmentType = line;
smooth = 0;
x = 607;
y = 479;
},
{
segmentType = line;
smooth = 0;
x = 639;
y = 489;
},
{
segmentType = line;
smooth = 0;
x = 625;
y = 642;
},
{
smooth = 0;
x = 579;
y = 667;
},
{
smooth = 0;
x = 498;
y = 695;
},
{
segmentType = curve;
smooth = 1;
x = 403;
y = 695;
},
{
smooth = 0;
x = 179;
y = 695;
},
{
smooth = 0;
x = 22;
y = 549;
},
{
segmentType = curve;
smooth = 1;
x = 22;
y = 326;
},
{
smooth = 0;
x = 22;
y = 120;
},
{
smooth = 0;
x = 168;
y = "-22";
},
{
segmentType = curve;
smooth = 1;
x = 378;
y = "-22";
},
{
smooth = 0;
x = 501;
y = "-22";
},
{
smooth = 0;
x = 596;
y = 18;
},
{
segmentType = curve;
smooth = 0;
x = 644;
y = 43;
},
{
segmentType = line;
smooth = 0;
x = 644;
y = 254;
},
{
segmentType = line;
smooth = 0;
x = 701;
y = 273;
},
{
segmentType = line;
smooth = 0;
x = 701;
y = 311;
},
{
segmentType = line;
smooth = 0;
x = 426;
y = 311;
},
{
segmentType = line;
smooth = 0;
x = 426;
y = 280;
},
{
segmentType = line;
smooth = 0;
x = 530;
y = 241;
},
{
segmentType = line;
smooth = 0;
x = 530;
y = 65;
},
{
smooth = 0;
x = 504;
y = 51;
},
{
smooth = 0;
x = 451;
y = 35;
},
{
segmentType = curve;
smooth = 1;
x = 393;
y = 35;
},
{
smooth = 0;
x = 207;
y = 35;
},
{
smooth = 0;
x = 157;
y = 181;
},
{
segmentType = curve;
smooth = 1;
x = 157;
y = 371;
},
{
smooth = 0;
x = 157;
y = 503;
},
{
smooth = 0;
x = 233;
y = 642;
},
{
segmentType = curve;
smooth = 1;
x = 386;
y = 642;
},
{
smooth = 0;
x = 429;
y = 642;
},
{
smooth = 0;
x = 483;
y = 630;
},
{
segmentType = curve;
smooth = 0;
x = 517;
y = 614;
}
);
}
);
lib = {
};
name = G;
unicodes = (
);
width = 714;
};
layer_01 = {
anchors = (
);
components = (
);
contours = (
);
lib = {
};
name = G;
unicodes = (
);
width = 714;
};
layer_02 = {
anchors = (
);
components = (
);
contours = (
);
lib = {
};
name = G;
unicodes = (
);
width = 714;
};
};
};
},
{
glyphname = Gbreve;
lastChange = "2015-04-28 13:51:32 +0000";
layers = (
{
background = {
paths = (
{
closed = 1;
nodes = (
"615 240 LINE",
"669 257 LINE",
"669 286 LINE",
"437 286 LINE",
"437 265 LINE",
"535 231 LINE",
"535 68 LINE",
"503 49 OFFCURVE",
"449 34 OFFCURVE",
"390 34 CURVE SMOOTH",
"205 34 OFFCURVE",
"160 166 OFFCURVE",
"160 340 CURVE SMOOTH",
"160 461 OFFCURVE",
"235 589 OFFCURVE",
"384 589 CURVE SMOOTH",
"422 589 OFFCURVE",
"478 576 OFFCURVE",
"512 560 CURVE",
"593 448 LINE",
"616 454 LINE",
"603 587 LINE",
"562 611 OFFCURVE",
"489 638 OFFCURVE",
"399 638 CURVE SMOOTH",
"192 638 OFFCURVE",
"54 506 OFFCURVE",
"54 301 CURVE SMOOTH",
"54 106 OFFCURVE",
"193 -20 OFFCURVE",
"378 -20 CURVE SMOOTH",
"497 -20 OFFCURVE",
"578 21 OFFCURVE",
"615 43 CURVE"
);
},
{
closed = 1;
nodes = (
"313 797 OFFCURVE",
"266 831 OFFCURVE",
"236 866 CURVE",
"211 848 LINE",
"236 781 OFFCURVE",
"306 723 OFFCURVE",
"388 723 CURVE SMOOTH",
"469 723 OFFCURVE",
"539 781 OFFCURVE",
"564 848 CURVE",
"539 866 LINE",
"510 831 OFFCURVE",
"463 797 OFFCURVE",
"388 797 CURVE SMOOTH"
);
}
);
};
components = (
{
name = G;
},
{
name = breve.cap;
transform = "{1, 0, 0, 1, 127, 25}";
}
);
layerId = "E777F328-EA17-4AE7-9EBA-8002E537BA4F";
name = Light;
width = 655;
},
{
components = (
{
name = G;
},
{
name = breve.cap;
transform = "{1, 0, 0, 1, 134, -61}";
}
);
layerId = "AE81D269-4BA9-4AA4-8188-ACE3070EB296";
name = Bold;
width = 598;
}
);
leftKerningGroup = RoundsUC;
rightKerningGroup = G;
unicode = 011E;
userData = {
com.typemytype.robofont.layerData = {
background = {
anchors = (
);
components = (
);
contours = (
);
lib = {
};
name = Gbreve;
unicodes = (
);
width = 714;
};
layer_01 = {
anchors = (
);
components = (
);
contours = (
);
lib = {
};
name = Gbreve;
unicodes = (
);
width = 714;
};
layer_02 = {
anchors = (
);
components = (
);
contours = (
);
lib = {
};
name = Gbreve;
unicodes = (
);
width = 714;
};
};
};
},
{
glyphname = Gcommaaccent;
lastChange = "2015-04-28 13:51:32 +0000";
layers = (
{
background = {
paths = (
{
closed = 1;
nodes = (
"615 240 LINE",
"669 257 LINE",
"669 286 LINE",
"437 286 LINE",
"437 265 LINE",
"535 231 LINE",
"535 68 LINE",
"503 49 OFFCURVE",
"449 34 OFFCURVE",
"390 34 CURVE SMOOTH",
"205 34 OFFCURVE",
"160 166 OFFCURVE",
"160 340 CURVE SMOOTH",
"160 461 OFFCURVE",
"235 589 OFFCURVE",
"384 589 CURVE SMOOTH",
"422 589 OFFCURVE",
"478 576 OFFCURVE",
"512 560 CURVE",
"593 448 LINE",
"616 454 LINE",
"603 587 LINE",
"562 611 OFFCURVE",
"489 638 OFFCURVE",
"399 638 CURVE SMOOTH",
"192 638 OFFCURVE",
"54 506 OFFCURVE",
"54 301 CURVE SMOOTH",
"54 106 OFFCURVE",
"193 -20 OFFCURVE",
"378 -20 CURVE SMOOTH",
"497 -20 OFFCURVE",
"578 21 OFFCURVE",
"615 43 CURVE"
);
},
{
closed = 1;
nodes = (
"434 -115 OFFCURVE",
"402 -90 OFFCURVE",
"367 -90 CURVE SMOOTH",
"332 -90 OFFCURVE",
"312 -121 OFFCURVE",
"312 -143 CURVE SMOOTH",
"312 -151 OFFCURVE",
"314 -158 OFFCURVE",
"315 -163 CURVE",
"375 -191 LINE",
"366 -216 OFFCURVE",
"343 -237 OFFCURVE",
"326 -252 CURVE",
"342 -274 LINE",
"391 -243 OFFCURVE",
"434 -194 OFFCURVE",
"434 -156 CURVE SMOOTH"
);
}
);
};
components = (
{
name = G;
},
{
name = commaaccent;
transform = "{1, 0, 0, 1, 134, 0}";
}
);
layerId = "E777F328-EA17-4AE7-9EBA-8002E537BA4F";
name = Light;
width = 655;
},
{
components = (
{
name = G;
},
{
name = commaaccent;
transform = "{1, 0, 0, 1, 145, 1}";
}
);
layerId = "AE81D269-4BA9-4AA4-8188-ACE3070EB296";
name = Bold;
width = 598;
}
);
leftKerningGroup = RoundsUC;
rightKerningGroup = G;
unicode = 0122;
userData = {
com.typemytype.robofont.layerData = {
background = {
anchors = (
);
components = (
);
contours = (
);
lib = {
};
name = Gcommaaccent;
unicodes = (
);
width = 714;
};
layer_01 = {
anchors = (
);
components = (
);
contours = (
);
lib = {
};
name = Gcommaaccent;
unicodes = (
);
width = 714;
};
layer_02 = {
anchors = (
);
components = (
);
contours = (
);
lib = {
};
name = Gcommaaccent;
unicodes = (
);
width = 714;
};
};
};
},
{
glyphname = H;
lastChange = "2015-04-28 13:51:32 +0000";
layers = (
{
anchors = (
{
name = bottom;
position = "{347, -9}";
},
{
name = top;
position = "{347, 669}";
}
);
background = {
paths = (
{
closed = 1;
nodes = (
"653 580 LINE",
"752 597 LINE",
"752 626 LINE",
"462 626 LINE",
"462 605 LINE",
"566 571 LINE",
"566 356 LINE",
"230 356 LINE",
"230 580 LINE",
"334 597 LINE",
"334 626 LINE",
"44 626 LINE",
"44 605 LINE",
"143 571 LINE",
"143 55 LINE",
"44 21 LINE",
"44 0 LINE",
"334 0 LINE",
"334 29 LINE",
"230 48 LINE",
"230 306 LINE",
"566 306 LINE",
"566 55 LINE",
"462 21 LINE",
"462 0 LINE",
"752 0 LINE",
"752 29 LINE",
"653 48 LINE"
);
}
);
};
layerId = "E777F328-EA17-4AE7-9EBA-8002E537BA4F";
name = Light;
paths = (
{
closed = 1;
nodes = (
"582 0 LINE",
"582 624 LINE",
"531 624 LINE",
"531 0 LINE"
);
},
{
closed = 1;
nodes = (
"161 0 LINE",
"161 624 LINE",
"110 624 LINE",
"110 0 LINE"
);
},
{
closed = 1;
nodes = (
"558 309 LINE",
"558 351 LINE",
"137 351 LINE",
"137 309 LINE"
);
}
);
width = 692;
},
{
anchors = (
{
name = bottom;
position = "{375, -9}";
},
{
name = top;
position = "{375, 669}";
}
);
layerId = "AE81D269-4BA9-4AA4-8188-ACE3070EB296";
name = Bold;
paths = (
{
closed = 1;
nodes = (
"668 0 LINE",
"668 624 LINE",
"503 624 LINE",
"503 0 LINE"
);
},
{
closed = 1;
nodes = (
"248 0 LINE",
"248 624 LINE",
"83 624 LINE",
"83 0 LINE"
);
},
{
closed = 1;
nodes = (
"588 271 LINE",
"588 388 LINE",
"166 388 LINE",
"166 271 LINE"
);
}
);
width = 751;
}
);
leftKerningGroup = StraightsUC;
rightKerningGroup = StraightsUC;
unicode = 0048;
userData = {
com.typemytype.robofont.guides = (
);
com.typemytype.robofont.layerData = {
background = {
anchors = (
);
components = (
);
contours = (
{
points = (
{
segmentType = line;
smooth = 0;
x = 661;
y = 623;
},
{
segmentType = line;
smooth = 0;
x = 765;
y = 642;
},
{
segmentType = line;
smooth = 0;
x = 765;
y = 680;
},
{
segmentType = line;
smooth = 0;
x = 443;
y = 680;
},
{
segmentType = line;
smooth = 0;
x = 443;
y = 649;
},
{
segmentType = line;
smooth = 0;
x = 546;
y = 610;
},
{
segmentType = line;
smooth = 0;
x = 546;
y = 387;
},
{
segmentType = line;
smooth = 0;
x = 206;
y = 387;
},
{
segmentType = line;
smooth = 0;
x = 206;
y = 623;
},
{
segmentType = line;
smooth = 0;
x = 309;
y = 642;
},
{
segmentType = line;
smooth = 0;
x = 309;
y = 680;
},
{
segmentType = line;
smooth = 0;
x = "-13";
y = 680;
},
{
segmentType = line;
smooth = 0;
x = "-13";
y = 649;
},
{
segmentType = line;
smooth = 0;
x = 91;
y = 610;
},
{
segmentType = line;
smooth = 0;
x = 91;
y = 70;
},
{
segmentType = line;
smooth = 0;
x = "-13";
y = 31;
},
{
segmentType = line;
smooth = 0;
x = "-13";
y = 0;
},
{
segmentType = line;
smooth = 0;
x = 309;
y = 0;
},
{
segmentType = line;
smooth = 0;
x = 309;
y = 38;
},
{
segmentType = line;
smooth = 0;
x = 206;
y = 57;
},
{
segmentType = line;
smooth = 0;
x = 206;
y = 332;
},
{
segmentType = line;
smooth = 0;
x = 546;
y = 332;
},
{
segmentType = line;
smooth = 0;
x = 546;
y = 70;
},
{
segmentType = line;
smooth = 0;
x = 443;
y = 31;
},
{
segmentType = line;
smooth = 0;
x = 443;
y = 0;
},
{
segmentType = line;
smooth = 0;
x = 765;
y = 0;
},
{
segmentType = line;
smooth = 0;
x = 765;
y = 38;
},
{
segmentType = line;
smooth = 0;
x = 661;
y = 57;
}
);
}
);
lib = {
};
name = H;
unicodes = (
);
width = 755;
};
layer_01 = {
anchors = (
);
components = (
);
contours = (
);
lib = {
};
name = H;
unicodes = (
);
width = 755;
};
layer_02 = {
anchors = (
);
components = (
);
contours = (
);
lib = {
};
name = H;
unicodes = (
);
width = 755;
};
};
};
},
{
glyphname = Hbar;
lastChange = "2015-04-28 13:51:32 +0000";
layers = (
{
background = {
paths = (
{
closed = 1;
nodes = (
"653 580 LINE",
"752 597 LINE",
"752 626 LINE",
"462 626 LINE",
"462 605 LINE",
"566 571 LINE",
"566 474 LINE",
"230 474 LINE",
"230 580 LINE",
"334 597 LINE",
"334 626 LINE",
"44 626 LINE",
"44 605 LINE",
"143 571 LINE",
"143 474 LINE",
"52 474 LINE",
"52 427 LINE",
"143 427 LINE",
"143 55 LINE",
"44 21 LINE",
"44 0 LINE",
"334 0 LINE",
"334 29 LINE",
"230 48 LINE",
"230 274 LINE",
"566 274 LINE",
"566 55 LINE",
"462 21 LINE",
"462 0 LINE",
"752 0 LINE",
"752 29 LINE",
"653 48 LINE",
"653 427 LINE",
"744 427 LINE",
"744 474 LINE",
"653 474 LINE"
);
},
{
closed = 1;
nodes = (
"230 324 LINE",
"230 427 LINE",
"566 427 LINE",
"566 324 LINE"
);
}
);
};
components = (
{
name = H;
}
);
layerId = "E777F328-EA17-4AE7-9EBA-8002E537BA4F";
name = Light;
paths = (
{
closed = 1;
nodes = (
"691 469 LINE",
"691 507 LINE",
"3 507 LINE",
"3 469 LINE"
);
}
);
width = 692;
},
{
components = (
{
name = H;
}
);
layerId = "AE81D269-4BA9-4AA4-8188-ACE3070EB296";
name = Bold;
paths = (
{
closed = 1;
nodes = (
"748 453 LINE",
"748 565 LINE",
"3 565 LINE",
"3 453 LINE"
);
}
);
width = 751;
}
);
leftKerningGroup = StraightsUC;
rightKerningGroup = StraightsUC;
unicode = 0126;
userData = {
com.typemytype.robofont.guides = (
);
com.typemytype.robofont.layerData = {
background = {
anchors = (
);
components = (
);
contours = (
);
lib = {
};
name = Hbar;
unicodes = (
);
width = 755;
};
layer_01 = {
anchors = (
);
components = (
);
contours = (
);
lib = {
};
name = Hbar;
unicodes = (
);
width = 755;
};
layer_02 = {
anchors = (
);
components = (
);
contours = (
);
lib = {
};
name = Hbar;
unicodes = (
);
width = 755;
};
};
};
},
{
glyphname = I;
lastChange = "2015-04-28 13:51:32 +0000";
layers = (
{
anchors = (
{
name = bottom;
position = "{117, -9}";
},
{
name = top;
position = "{136, 669}";
}
);
background = {
paths = (
{
closed = 1;
nodes = (
"230 580 LINE",
"328 597 LINE",
"328 626 LINE",
"44 626 LINE",
"44 605 LINE",
"143 571 LINE",
"143 55 LINE",
"44 21 LINE",
"44 0 LINE",
"328 0 LINE",
"328 29 LINE",
"230 48 LINE"
);
}
);
};
layerId = "E777F328-EA17-4AE7-9EBA-8002E537BA4F";
name = Light;
paths = (
{
closed = 1;
nodes = (
"161 0 LINE",
"161 624 LINE",
"110 624 LINE",
"110 0 LINE"
);
}
);
width = 271;
},
{
anchors = (
{
name = bottom;
position = "{134, -9}";
},
{
name = top;
position = "{165, 669}";
}
);
layerId = "AE81D269-4BA9-4AA4-8188-ACE3070EB296";
name = Bold;
paths = (
{
closed = 1;
nodes = (
"248 0 LINE",
"248 624 LINE",
"83 624 LINE",
"83 0 LINE"
);
}
);
width = 330;
}
);
leftKerningGroup = StraightsUC;
rightKerningGroup = StraightsUC;
unicode = 0049;
userData = {
com.typemytype.robofont.layerData = {
background = {
anchors = (
);
components = (
);
contours = (
);
lib = {
};
name = I;
unicodes = (
);
width = 296;
};
layer_01 = {
anchors = (
);
components = (
);
contours = (
);
lib = {
};
name = I;
unicodes = (
);
width = 296;
};
layer_02 = {
anchors = (
);
components = (
);
contours = (
);
lib = {
};
name = I;
unicodes = (
);
width = 296;
};
};
};
},
{
glyphname = IJ;
lastChange = "2015-04-28 13:51:32 +0000";
layers = (
{
background = {
paths = (
{
closed = 1;
nodes = (
"230 580 LINE",
"328 597 LINE",
"328 626 LINE",
"44 626 LINE",
"44 605 LINE",
"143 571 LINE",
"143 55 LINE",
"44 21 LINE",
"44 0 LINE",
"328 0 LINE",
"328 29 LINE",
"230 48 LINE"
);
},
{
closed = 1;
nodes = (
"516 68 LINE SMOOTH",
"516 -135 OFFCURVE",
"474 -207 OFFCURVE",
"420 -207 CURVE",
"362 -151 LINE",
"358 -151 LINE",
"342 -164 OFFCURVE",
"309 -193 OFFCURVE",
"309 -233 CURVE SMOOTH",
"309 -256 OFFCURVE",
"344 -270 OFFCURVE",
"376 -270 CURVE SMOOTH",
"413 -270 OFFCURVE",
"444 -253 OFFCURVE",
"473 -235 CURVE",
"555 -176 OFFCURVE",
"603 -138 OFFCURVE",
"603 91 CURVE SMOOTH",
"603 580 LINE",
"701 597 LINE",
"701 626 LINE",
"417 626 LINE",
"417 605 LINE",
"516 571 LINE"
);
}
);
};
components = (
{
name = I;
},
{
name = J;
transform = "{1, 0, 0, 1, 271, 0}";
}
);
layerId = "E777F328-EA17-4AE7-9EBA-8002E537BA4F";
name = Light;
width = 542;
},
{
components = (
{
name = I;
},
{
name = J;
transform = "{1, 0, 0, 1, 330, 0}";
}
);
layerId = "AE81D269-4BA9-4AA4-8188-ACE3070EB296";
name = Bold;
width = 633;
}
);
leftKerningGroup = StraightsUC;
rightKerningGroup = StraightsUC;
unicode = 0132;
userData = {
com.typemytype.robofont.layerData = {
background = {
anchors = (
);
components = (
);
contours = (
);
lib = {
};
name = IJ;
unicodes = (
);
width = 592;
};
layer_01 = {
anchors = (
);
components = (
);
contours = (
);
lib = {
};
name = IJ;
unicodes = (
);
width = 592;
};
layer_02 = {
anchors = (
);
components = (
);
contours = (
);
lib = {
};
name = IJ;
unicodes = (
);
width = 592;
};
};
};
},
{
glyphname = Iacute;
lastChange = "2015-04-28 13:51:32 +0000";
layers = (
{
background = {
paths = (
{
closed = 1;
nodes = (
"230 580 LINE",
"328 597 LINE",
"328 626 LINE",
"44 626 LINE",
"44 605 LINE",
"143 571 LINE",
"143 55 LINE",
"44 21 LINE",
"44 0 LINE",
"328 0 LINE",
"328 29 LINE",
"230 48 LINE"
);
},
{
closed = 1;
nodes = (
"93 753 LINE",
"92 749 LINE",
"108 713 LINE",
"333 783 LINE",
"333 797 LINE",
"319 817 OFFCURVE",
"291 844 OFFCURVE",
"269 853 CURVE"
);
}
);
};
components = (
{
name = I;
},
{
name = acute.cap;
transform = "{1, 0, 0, 1, -15, 0}";
}
);
layerId = "E777F328-EA17-4AE7-9EBA-8002E537BA4F";
name = Light;
width = 271;
},
{
components = (
{
name = I;
},
{
name = acute.cap;
transform = "{1, 0, 0, 1, 0, -61}";
}
);
layerId = "AE81D269-4BA9-4AA4-8188-ACE3070EB296";
name = Bold;
width = 303;
}
);
leftKerningGroup = StraightsUC;
rightKerningGroup = StraightsUC;
unicode = 00CD;
userData = {
com.typemytype.robofont.layerData = {
background = {
anchors = (
);
components = (
);
contours = (
);
lib = {
};
name = Iacute;
unicodes = (
);
width = 296;
};
layer_01 = {
anchors = (
);
components = (
);
contours = (
);
lib = {
};
name = Iacute;
unicodes = (
);
width = 296;
};
layer_02 = {
anchors = (
);
components = (
);
contours = (
);
lib = {
};
name = Iacute;
unicodes = (
);
width = 296;
};
};
};
},
{
glyphname = Icircumflex;
lastChange = "2015-04-28 13:51:32 +0000";
layers = (
{
background = {
paths = (
{
closed = 1;
nodes = (
"230 580 LINE",
"328 597 LINE",
"328 626 LINE",
"44 626 LINE",
"44 605 LINE",
"143 571 LINE",
"143 55 LINE",
"44 21 LINE",
"44 0 LINE",
"328 0 LINE",
"328 29 LINE",
"230 48 LINE"
);
},
{
closed = 1;
nodes = (
"194 774 LINE",
"229 755 OFFCURVE",
"289 726 OFFCURVE",
"332 713 CURVE",
"351 741 LINE",
"351 745 LINE",
"314 772 OFFCURVE",
"260 816 OFFCURVE",
"226 847 CURVE",
"156 847 LINE",
"121 816 OFFCURVE",
"67 772 OFFCURVE",
"30 745 CURVE",
"30 741 LINE",
"49 713 LINE",
"92 726 OFFCURVE",
"152 755 OFFCURVE",
"188 774 CURVE"
);
}
);
};
components = (
{
name = I;
},
{
name = circumflex.cap;
transform = "{1, 0, 0, 1, -93, 0}";
}
);
layerId = "E777F328-EA17-4AE7-9EBA-8002E537BA4F";
name = Light;
width = 271;
},
{
components = (
{
name = I;
},
{
name = circumflex.cap;
transform = "{1, 0, 0, 1, -85, -61}";
}
);
layerId = "AE81D269-4BA9-4AA4-8188-ACE3070EB296";
name = Bold;
width = 303;
}
);
leftKerningGroup = StraightsUC;
rightKerningGroup = StraightsUC;
unicode = 00CE;
userData = {
com.typemytype.robofont.layerData = {
background = {
anchors = (
);
components = (
);
contours = (
);
lib = {
};
name = Icircumflex;
unicodes = (
);
width = 296;
};
layer_01 = {
anchors = (
);
components = (
);
contours = (
);
lib = {
};
name = Icircumflex;
unicodes = (
);
width = 296;
};
layer_02 = {
anchors = (
);
components = (
);
contours = (
);
lib = {
};
name = Icircumflex;
unicodes = (
);
width = 296;
};
};
};
},
{
glyphname = Idieresis;
lastChange = "2015-04-28 13:51:32 +0000";
layers = (
{
background = {
paths = (
{
closed = 1;
nodes = (
"37 723 OFFCURVE",
"60 699 OFFCURVE",
"89 699 CURVE SMOOTH",
"119 699 OFFCURVE",
"142 723 OFFCURVE",
"142 754 CURVE SMOOTH",
"142 784 OFFCURVE",
"119 809 OFFCURVE",
"89 809 CURVE SMOOTH",
"60 809 OFFCURVE",
"37 784 OFFCURVE",
"37 754 CURVE SMOOTH"
);
},
{
closed = 1;
nodes = (
"231 723 OFFCURVE",
"254 699 OFFCURVE",
"283 699 CURVE SMOOTH",
"313 699 OFFCURVE",
"336 723 OFFCURVE",
"336 754 CURVE SMOOTH",
"336 784 OFFCURVE",
"313 809 OFFCURVE",
"283 809 CURVE SMOOTH",
"254 809 OFFCURVE",
"231 784 OFFCURVE",
"231 754 CURVE SMOOTH"
);
},
{
closed = 1;
nodes = (
"230 580 LINE",
"328 597 LINE",
"328 626 LINE",
"44 626 LINE",
"44 605 LINE",
"143 571 LINE",
"143 55 LINE",
"44 21 LINE",
"44 0 LINE",
"328 0 LINE",
"328 29 LINE",
"230 48 LINE"
);
}
);
};
components = (
{
name = I;
},
{
name = dieresis.cap;
transform = "{1, 0, 0, 1, -93, 0}";
}
);
layerId = "E777F328-EA17-4AE7-9EBA-8002E537BA4F";
name = Light;
width = 271;
},
{
components = (
{
name = I;
},
{
name = dieresis.cap;
transform = "{1, 0, 0, 1, -85, -61}";
}
);
layerId = "AE81D269-4BA9-4AA4-8188-ACE3070EB296";
name = Bold;
width = 303;
}
);
leftKerningGroup = StraightsUC;
rightKerningGroup = StraightsUC;
unicode = 00CF;
userData = {
com.typemytype.robofont.layerData = {
background = {
anchors = (
);
components = (
);
contours = (
);
lib = {
};
name = Idieresis;
unicodes = (
);
width = 296;
};
layer_01 = {
anchors = (
);
components = (
);
contours = (
);
lib = {
};
name = Idieresis;
unicodes = (
);
width = 296;
};
layer_02 = {
anchors = (
);
components = (
);
contours = (
);
lib = {
};
name = Idieresis;
unicodes = (
);
width = 296;
};
};
};
},
{
glyphname = Idotaccent;
lastChange = "2015-04-28 13:51:32 +0000";
layers = (
{
background = {
paths = (
{
closed = 1;
nodes = (
"230 580 LINE",
"328 597 LINE",
"328 626 LINE",
"44 626 LINE",
"44 605 LINE",
"143 571 LINE",
"143 55 LINE",
"44 21 LINE",
"44 0 LINE",
"328 0 LINE",
"328 29 LINE",
"230 48 LINE"
);
},
{
closed = 1;
nodes = (
"129 775 OFFCURVE",
"154 748 OFFCURVE",
"186 748 CURVE SMOOTH",
"217 748 OFFCURVE",
"243 775 OFFCURVE",
"243 808 CURVE SMOOTH",
"243 840 OFFCURVE",
"217 868 OFFCURVE",
"186 868 CURVE SMOOTH",
"154 868 OFFCURVE",
"129 840 OFFCURVE",
"129 808 CURVE SMOOTH"
);
}
);
};
components = (
{
name = I;
},
{
name = dotaccent.cap;
transform = "{1, 0, 0, 1, -93, 0}";
}
);
layerId = "E777F328-EA17-4AE7-9EBA-8002E537BA4F";
name = Light;
width = 271;
},
{
components = (
{
name = I;
},
{
name = dotaccent.cap;
transform = "{1, 0, 0, 1, -85, -61}";
}
);
layerId = "AE81D269-4BA9-4AA4-8188-ACE3070EB296";
name = Bold;
width = 303;
}
);
leftKerningGroup = StraightsUC;
rightKerningGroup = StraightsUC;
unicode = 0130;
userData = {
com.typemytype.robofont.layerData = {
background = {
anchors = (
);
components = (
);
contours = (
);
lib = {
};
name = Idotaccent;
unicodes = (
);
width = 296;
};
layer_01 = {
anchors = (
);
components = (
);
contours = (
);
lib = {
};
name = Idotaccent;
unicodes = (
);
width = 296;
};
layer_02 = {
anchors = (
);
components = (
);
contours = (
);
lib = {
};
name = Idotaccent;
unicodes = (
);
width = 296;
};
};
};
},
{
glyphname = Igrave;
lastChange = "2015-04-28 13:51:32 +0000";
layers = (
{
background = {
paths = (
{
closed = 1;
nodes = (
"230 580 LINE",
"328 597 LINE",
"328 626 LINE",
"44 626 LINE",
"44 605 LINE",
"143 571 LINE",
"143 55 LINE",
"44 21 LINE",
"44 0 LINE",
"328 0 LINE",
"328 29 LINE",
"230 48 LINE"
);
},
{
closed = 1;
nodes = (
"125 856 LINE",
"102 847 OFFCURVE",
"74 820 OFFCURVE",
"61 800 CURVE",
"60 786 LINE",
"285 716 LINE",
"301 752 LINE",
"300 756 LINE"
);
}
);
};
components = (
{
name = I;
},
{
name = grave.cap;
transform = "{1, 0, 0, 1, -171, 0}";
}
);
layerId = "E777F328-EA17-4AE7-9EBA-8002E537BA4F";
name = Light;
width = 271;
},
{
components = (
{
name = I;
},
{
name = grave.cap;
transform = "{1, 0, 0, 1, -170, -61}";
}
);
layerId = "AE81D269-4BA9-4AA4-8188-ACE3070EB296";
name = Bold;
width = 303;
}
);
leftKerningGroup = StraightsUC;
rightKerningGroup = StraightsUC;
unicode = 00CC;
userData = {
com.typemytype.robofont.layerData = {
background = {
anchors = (
);
components = (
);
contours = (
);
lib = {
};
name = Igrave;
unicodes = (
);
width = 296;
};
layer_01 = {
anchors = (
);
components = (
);
contours = (
);
lib = {
};
name = Igrave;
unicodes = (
);
width = 296;
};
layer_02 = {
anchors = (
);
components = (
);
contours = (
);
lib = {
};
name = Igrave;
unicodes = (
);
width = 296;
};
};
};
},
{
glyphname = Imacron;
lastChange = "2015-04-28 13:51:32 +0000";
layers = (
{
background = {
paths = (
{
closed = 1;
nodes = (
"230 580 LINE",
"328 597 LINE",
"328 626 LINE",
"44 626 LINE",
"44 605 LINE",
"143 571 LINE",
"143 55 LINE",
"44 21 LINE",
"44 0 LINE",
"328 0 LINE",
"328 29 LINE",
"230 48 LINE"
);
},
{
closed = 1;
nodes = (
"331 721 LINE",
"344 753 LINE",
"344 764 LINE",
"37 764 LINE",
"24 733 LINE",
"24 721 LINE"
);
}
);
};
components = (
{
name = I;
},
{
name = macron.cap;
transform = "{1, 0, 0, 1, -93, 0}";
}
);
layerId = "E777F328-EA17-4AE7-9EBA-8002E537BA4F";
name = Light;
width = 271;
},
{
components = (
{
name = I;
},
{
name = macron.cap;
transform = "{1, 0, 0, 1, -85, -61}";
}
);
layerId = "AE81D269-4BA9-4AA4-8188-ACE3070EB296";
name = Bold;
width = 303;
}
);
leftKerningGroup = StraightsUC;
rightKerningGroup = StraightsUC;
unicode = 012A;
userData = {
com.typemytype.robofont.layerData = {
background = {
anchors = (
);
components = (
);
contours = (
);
lib = {
};
name = Imacron;
unicodes = (
);
width = 296;
};
layer_01 = {
anchors = (
);
components = (
);
contours = (
);
lib = {
};
name = Imacron;
unicodes = (
);
width = 296;
};
layer_02 = {
anchors = (
);
components = (
);
contours = (
);
lib = {
};
name = Imacron;
unicodes = (
);
width = 296;
};
};
};
},
{
glyphname = Iogonek;
lastChange = "2015-04-28 13:51:32 +0000";
layers = (
{
background = {
paths = (
{
closed = 1;
nodes = (
"230 580 LINE",
"328 597 LINE",
"328 626 LINE",
"44 626 LINE",
"44 605 LINE",
"143 571 LINE",
"143 55 LINE",
"44 21 LINE",
"44 0 LINE",
"151 0 LINE",
"90 -44 OFFCURVE",
"15 -121 OFFCURVE",
"15 -188 CURVE SMOOTH",
"15 -229 OFFCURVE",
"38 -265 OFFCURVE",
"79 -265 CURVE SMOOTH",
"121 -265 OFFCURVE",
"178 -225 OFFCURVE",
"218 -174 CURVE",
"193 -151 LINE",
"165 -183 OFFCURVE",
"135 -197 OFFCURVE",
"114 -197 CURVE SMOOTH",
"95 -197 OFFCURVE",
"82 -180 OFFCURVE",
"82 -160 CURVE SMOOTH",
"82 -106 OFFCURVE",
"136 -48 OFFCURVE",
"212 0 CURVE",
"328 0 LINE",
"328 29 LINE",
"230 48 LINE"
);
}
);
};
components = (
{
name = I;
},
{
name = ogonek;
transform = "{1, 0, 0, 1, -132, 0}";
}
);
layerId = "E777F328-EA17-4AE7-9EBA-8002E537BA4F";
name = Light;
width = 271;
},
{
components = (
{
name = I;
},
{
name = ogonek;
transform = "{1, 0, 0, 1, -137, 1}";
}
);
layerId = "AE81D269-4BA9-4AA4-8188-ACE3070EB296";
name = Bold;
width = 303;
}
);
leftKerningGroup = StraightsUC;
rightKerningGroup = StraightsUC;
unicode = 012E;
userData = {
com.typemytype.robofont.layerData = {
background = {
anchors = (
);
components = (
);
contours = (
);
lib = {
};
name = Iogonek;
unicodes = (
);
width = 296;
};
layer_01 = {
anchors = (
);
components = (
);
contours = (
);
lib = {
};
name = Iogonek;
unicodes = (
);
width = 296;
};
layer_02 = {
anchors = (
);
components = (
);
contours = (
);
lib = {
};
name = Iogonek;
unicodes = (
);
width = 296;
};
};
};
},
{
glyphname = Itilde;
lastChange = "2015-04-28 13:51:32 +0000";
layers = (
{
background = {
paths = (
{
closed = 1;
nodes = (
"230 580 LINE",
"328 597 LINE",
"328 626 LINE",
"44 626 LINE",
"44 605 LINE",
"143 571 LINE",
"143 55 LINE",
"44 21 LINE",
"44 0 LINE",
"328 0 LINE",
"328 29 LINE",
"230 48 LINE"
);
},
{
closed = 1;
nodes = (
"343 708 OFFCURVE",
"396 783 OFFCURVE",
"428 825 CURVE",
"403 847 LINE",
"378 818 OFFCURVE",
"332 776 OFFCURVE",
"299 776 CURVE SMOOTH",
"261 776 OFFCURVE",
"185 837 OFFCURVE",
"152 837 CURVE SMOOTH",
"95 837 OFFCURVE",
"42 769 OFFCURVE",
"10 731 CURVE",
"35 708 LINE",
"61 734 OFFCURVE",
"107 769 OFFCURVE",
"139 769 CURVE SMOOTH",
"175 769 OFFCURVE",
"244 708 OFFCURVE",
"287 708 CURVE SMOOTH"
);
}
);
};
components = (
{
name = I;
},
{
name = tilde.cap;
transform = "{1, 0, 0, 1, -93, 0}";
}
);
layerId = "E777F328-EA17-4AE7-9EBA-8002E537BA4F";
name = Light;
width = 271;
},
{
components = (
{
name = I;
},
{
name = tilde.cap;
transform = "{1, 0, 0, 1, -85, -61}";
}
);
layerId = "AE81D269-4BA9-4AA4-8188-ACE3070EB296";
name = Bold;
width = 303;
}
);
leftKerningGroup = StraightsUC;
rightKerningGroup = StraightsUC;
unicode = 0128;
userData = {
com.typemytype.robofont.layerData = {
background = {
anchors = (
);
components = (
);
contours = (
);
lib = {
};
name = Itilde;
unicodes = (
);
width = 296;
};
layer_01 = {
anchors = (
);
components = (
);
contours = (
);
lib = {
};
name = Itilde;
unicodes = (
);
width = 296;
};
layer_02 = {
anchors = (
);
components = (
);
contours = (
);
lib = {
};
name = Itilde;
unicodes = (
);
width = 296;
};
};
};
},
{
glyphname = J;
lastChange = "2015-04-28 16:00:44 +0000";
layers = (
{
anchors = (
{
name = top;
position = "{136, 669}";
}
);
background = {
paths = (
{
closed = 1;
nodes = (
"143 68 LINE SMOOTH",
"143 -135 OFFCURVE",
"101 -207 OFFCURVE",
"47 -207 CURVE",
"-11 -151 LINE",
"-15 -151 LINE",
"-31 -164 OFFCURVE",
"-64 -193 OFFCURVE",
"-64 -233 CURVE SMOOTH",
"-64 -256 OFFCURVE",
"-29 -270 OFFCURVE",
"3 -270 CURVE SMOOTH",
"40 -270 OFFCURVE",
"71 -253 OFFCURVE",
"100 -235 CURVE",
"182 -176 OFFCURVE",
"230 -138 OFFCURVE",
"230 91 CURVE SMOOTH",
"230 580 LINE",
"328 597 LINE",
"328 626 LINE",
"44 626 LINE",
"44 605 LINE",
"143 571 LINE"
);
}
);
};
layerId = "E777F328-EA17-4AE7-9EBA-8002E537BA4F";
name = Light;
paths = (
{
closed = 1;
nodes = (
"114 -273 OFFCURVE",
"161 -190 OFFCURVE",
"161 -50 CURVE SMOOTH",
"161 624 LINE",
"110 624 LINE",
"110 -48 LINE SMOOTH",
"110 -169 OFFCURVE",
"82 -228 OFFCURVE",
"6 -228 CURVE SMOOTH",
"-8 -228 OFFCURVE",
"-18 -226 OFFCURVE",
"-28 -223 CURVE",
"-39 -265 LINE",
"-25 -270 OFFCURVE",
"-9 -273 OFFCURVE",
"6 -273 CURVE SMOOTH"
);
}
);
width = 271;
},
{
anchors = (
{
name = top;
position = "{165, 669}";
}
);
layerId = "AE81D269-4BA9-4AA4-8188-ACE3070EB296";
name = Bold;
paths = (
{
closed = 1;
nodes = (
"181 -270 OFFCURVE",
"248 -182 OFFCURVE",
"248 -34 CURVE SMOOTH",
"248 624 LINE",
"83 624 LINE",
"83 -32 LINE SMOOTH",
"83 -112 OFFCURVE",
"61 -152 OFFCURVE",
"7 -152 CURVE SMOOTH",
"-16 -152 OFFCURVE",
"-31 -150 OFFCURVE",
"-53 -147 CURVE",
"-63 -263 LINE",
"-26 -267 OFFCURVE",
"6 -270 OFFCURVE",
"36 -270 CURVE SMOOTH"
);
}
);
width = 330;
}
);
leftKerningGroup = J;
rightKerningGroup = StraightsUC;
unicode = 004A;
userData = {
com.typemytype.robofont.layerData = {
background = {
anchors = (
);
components = (
);
contours = (
);
lib = {
};
name = J;
unicodes = (
);
width = 296;
};
layer_01 = {
anchors = (
);
components = (
);
contours = (
);
lib = {
};
name = J;
unicodes = (
);
width = 296;
};
layer_02 = {
anchors = (
);
components = (
);
contours = (
);
lib = {
};
name = J;
unicodes = (
);
width = 296;
};
};
};
},
{
glyphname = Jcircumflex;
lastChange = "2015-04-28 13:51:32 +0000";
layers = (
{
background = {
paths = (
{
closed = 1;
nodes = (
"143 68 LINE SMOOTH",
"143 -135 OFFCURVE",
"101 -207 OFFCURVE",
"47 -207 CURVE",
"-11 -151 LINE",
"-15 -151 LINE",
"-31 -164 OFFCURVE",
"-64 -193 OFFCURVE",
"-64 -233 CURVE SMOOTH",
"-64 -256 OFFCURVE",
"-29 -270 OFFCURVE",
"3 -270 CURVE SMOOTH",
"40 -270 OFFCURVE",
"71 -253 OFFCURVE",
"100 -235 CURVE",
"182 -176 OFFCURVE",
"230 -138 OFFCURVE",
"230 91 CURVE SMOOTH",
"230 580 LINE",
"328 597 LINE",
"328 626 LINE",
"44 626 LINE",
"44 605 LINE",
"143 571 LINE"
);
},
{
closed = 1;
nodes = (
"194 776 LINE",
"229 757 OFFCURVE",
"289 728 OFFCURVE",
"332 715 CURVE",
"351 743 LINE",
"351 747 LINE",
"314 774 OFFCURVE",
"260 818 OFFCURVE",
"226 849 CURVE",
"156 849 LINE",
"121 818 OFFCURVE",
"67 774 OFFCURVE",
"30 747 CURVE",
"30 743 LINE",
"49 715 LINE",
"92 728 OFFCURVE",
"152 757 OFFCURVE",
"188 776 CURVE"
);
}
);
};
components = (
{
name = J;
},
{
name = circumflex.cap;
transform = "{1, 0, 0, 1, -93, 0}";
}
);
layerId = "E777F328-EA17-4AE7-9EBA-8002E537BA4F";
name = Light;
width = 271;
},
{
components = (
{
name = J;
},
{
name = circumflex.cap;
transform = "{1, 0, 0, 1, -85, -61}";
}
);
layerId = "AE81D269-4BA9-4AA4-8188-ACE3070EB296";
name = Bold;
width = 303;
}
);
leftKerningGroup = J;
rightKerningGroup = StraightsUC;
unicode = 0134;
userData = {
com.typemytype.robofont.layerData = {
background = {
anchors = (
);
components = (
);
contours = (
);
lib = {
};
name = Jcircumflex;
unicodes = (
);
width = 296;
};
layer_01 = {
anchors = (
);
components = (
);
contours = (
);
lib = {
};
name = Jcircumflex;
unicodes = (
);
width = 296;
};
layer_02 = {
anchors = (
);
components = (
);
contours = (
);
lib = {
};
name = Jcircumflex;
unicodes = (
);
width = 296;
};
};
};
},
{
glyphname = K;
lastChange = "2015-04-28 13:51:32 +0000";
layers = (
{
anchors = (
{
name = bottom;
position = "{303, -9}";
},
{
name = top;
position = "{303, 669}";
}
);
background = {
paths = (
{
closed = 1;
nodes = (
"230 580 LINE",
"328 597 LINE",
"328 626 LINE",
"44 626 LINE",
"44 605 LINE",
"143 571 LINE",
"143 55 LINE",
"44 21 LINE",
"44 0 LINE",
"331 0 LINE",
"331 29 LINE",
"230 48 LINE"
);
},
{
closed = 1;
nodes = (
"505 571 LINE",
"259 327 LINE",
"259 324 LINE",
"534 0 LINE",
"698 0 LINE",
"698 29 LINE",
"618 48 LINE",
"354 348 LINE",
"596 580 LINE",
"646 597 LINE",
"646 626 LINE",
"404 626 LINE",
"404 605 LINE"
);
}
);
};
layerId = "E777F328-EA17-4AE7-9EBA-8002E537BA4F";
name = Light;
paths = (
{
closed = 1;
nodes = (
"573 0 LINE",
"228 348 LINE",
"232 330 LINE",
"530 624 LINE",
"469 624 LINE",
"185 344 LINE",
"185 326 LINE",
"510 0 LINE"
);
},
{
closed = 1;
nodes = (
"161 0 LINE",
"161 624 LINE",
"110 624 LINE",
"110 0 LINE"
);
}
);
width = 605;
},
{
anchors = (
{
name = bottom;
position = "{358, -9}";
},
{
name = top;
position = "{358, 669}";
}
);
layerId = "AE81D269-4BA9-4AA4-8188-ACE3070EB296";
name = Bold;
paths = (
{
closed = 1;
nodes = (
"673 0 LINE",
"392 348 LINE",
"396 330 LINE",
"650 624 LINE",
"460 624 LINE",
"240 344 LINE",
"240 326 LINE",
"474 0 LINE"
);
},
{
closed = 1;
nodes = (
"248 0 LINE",
"248 624 LINE",
"83 624 LINE",
"83 0 LINE"
);
}
);
width = 678;
}
);
leftKerningGroup = StraightsUC;
rightKerningGroup = K;
unicode = 004B;
userData = {
com.typemytype.robofont.layerData = {
background = {
anchors = (
);
components = (
);
contours = (
{
points = (
{
segmentType = line;
smooth = 0;
x = 196;
y = 623;
},
{
segmentType = line;
smooth = 0;
x = 299;
y = 642;
},
{
segmentType = line;
smooth = 0;
x = 299;
y = 680;
},
{
segmentType = line;
smooth = 0;
x = "-23";
y = 680;
},
{
segmentType = line;
smooth = 0;
x = "-23";
y = 649;
},
{
segmentType = line;
smooth = 0;
x = 81;
y = 610;
},
{
segmentType = line;
smooth = 0;
x = 81;
y = 70;
},
{
segmentType = line;
smooth = 0;
x = "-23";
y = 31;
},
{
segmentType = line;
smooth = 0;
x = "-23";
y = 0;
},
{
segmentType = line;
smooth = 0;
x = 299;
y = 0;
},
{
segmentType = line;
smooth = 0;
x = 299;
y = 38;
},
{
segmentType = line;
smooth = 0;
x = 196;
y = 57;
}
);
},
{
points = (
{
segmentType = line;
smooth = 0;
x = 485;
y = 610;
},
{
segmentType = line;
smooth = 0;
x = 225;
y = 354;
},
{
segmentType = line;
smooth = 0;
x = 225;
y = 350;
},
{
segmentType = line;
smooth = 0;
x = 508;
y = 0;
},
{
segmentType = line;
smooth = 0;
x = 695;
y = 0;
},
{
segmentType = line;
smooth = 0;
x = 695;
y = 38;
},
{
segmentType = line;
smooth = 0;
x = 615;
y = 57;
},
{
segmentType = line;
smooth = 0;
x = 339;
y = 388;
},
{
segmentType = line;
smooth = 0;
x = 586;
y = 623;
},
{
segmentType = line;
smooth = 0;
x = 638;
y = 642;
},
{
segmentType = line;
smooth = 0;
x = 638;
y = 680;
},
{
segmentType = line;
smooth = 0;
x = 387;
y = 680;
},
{
segmentType = line;
smooth = 0;
x = 387;
y = 649;
}
);
}
);
lib = {
};
name = K;
unicodes = (
);
width = 660;
};
layer_01 = {
anchors = (
);
components = (
);
contours = (
);
lib = {
};
name = K;
unicodes = (
);
width = 660;
};
layer_02 = {
anchors = (
);
components = (
);
contours = (
);
lib = {
};
name = K;
unicodes = (
);
width = 660;
};
};
};
},
{
glyphname = Kcommaaccent;
lastChange = "2015-04-28 13:51:32 +0000";
layers = (
{
background = {
paths = (
{
closed = 1;
nodes = (
"230 580 LINE",
"328 597 LINE",
"328 626 LINE",
"44 626 LINE",
"44 605 LINE",
"143 571 LINE",
"143 55 LINE",
"44 21 LINE",
"44 0 LINE",
"331 0 LINE",
"331 29 LINE",
"230 48 LINE"
);
},
{
closed = 1;
nodes = (
"505 571 LINE",
"259 327 LINE",
"259 324 LINE",
"534 0 LINE",
"698 0 LINE",
"698 29 LINE",
"618 48 LINE",
"354 348 LINE",
"596 580 LINE",
"646 597 LINE",
"646 626 LINE",
"404 626 LINE",
"404 605 LINE"
);
},
{
closed = 1;
nodes = (
"434 -109 OFFCURVE",
"402 -84 OFFCURVE",
"367 -84 CURVE SMOOTH",
"332 -84 OFFCURVE",
"312 -115 OFFCURVE",
"312 -137 CURVE SMOOTH",
"312 -145 OFFCURVE",
"314 -152 OFFCURVE",
"315 -157 CURVE",
"375 -185 LINE",
"366 -210 OFFCURVE",
"343 -231 OFFCURVE",
"326 -246 CURVE",
"342 -268 LINE",
"391 -237 OFFCURVE",
"434 -188 OFFCURVE",
"434 -150 CURVE SMOOTH"
);
}
);
};
components = (
{
name = K;
},
{
name = commaaccent;
transform = "{1, 0, 0, 1, 78, 0}";
}
);
layerId = "E777F328-EA17-4AE7-9EBA-8002E537BA4F";
name = Light;
width = 605;
},
{
components = (
{
name = K;
},
{
name = commaaccent;
transform = "{1, 0, 0, 1, 113, 1}";
}
);
layerId = "AE81D269-4BA9-4AA4-8188-ACE3070EB296";
name = Bold;
width = 622;
}
);
leftKerningGroup = StraightsUC;
rightKerningGroup = K;
unicode = 0136;
userData = {
com.typemytype.robofont.layerData = {
background = {
anchors = (
);
components = (
);
contours = (
);
lib = {
};
name = Kcommaaccent;
unicodes = (
);
width = 660;
};
layer_01 = {
anchors = (
);
components = (
);
contours = (
);
lib = {
};
name = Kcommaaccent;
unicodes = (
);
width = 660;
};
layer_02 = {
anchors = (
);
components = (
);
contours = (
);
lib = {
};
name = Kcommaaccent;
unicodes = (
);
width = 660;
};
};
};
},
{
glyphname = L;
lastChange = "2015-04-28 13:51:32 +0000";
layers = (
{
anchors = (
{
name = bottom;
position = "{304, -9}";
},
{
name = caronSlovak;
position = "{207, 430}";
},
{
name = dot;
position = "{376, 334}";
},
{
name = top;
position = "{143, 669}";
}
);
background = {
paths = (
{
closed = 1;
nodes = (
"421 41 LINE",
"230 41 LINE",
"230 580 LINE",
"328 597 LINE",
"328 626 LINE",
"44 626 LINE",
"44 605 LINE",
"143 571 LINE",
"143 55 LINE",
"44 21 LINE",
"44 0 LINE",
"529 0 LINE",
"552 177 LINE",
"524 177 LINE"
);
}
);
};
layerId = "E777F328-EA17-4AE7-9EBA-8002E537BA4F";
name = Light;
paths = (
{
closed = 1;
nodes = (
"161 0 LINE",
"161 624 LINE",
"110 624 LINE",
"110 0 LINE"
);
},
{
closed = 1;
nodes = (
"476 0 LINE",
"476 42 LINE",
"137 42 LINE",
"137 0 LINE"
);
}
);
width = 513;
},
{
anchors = (
{
name = bottom;
position = "{304, -9}";
},
{
name = caronSlovak;
position = "{308, 289}";
},
{
name = dot;
position = "{414, 334}";
},
{
name = top;
position = "{165, 669}";
}
);
layerId = "AE81D269-4BA9-4AA4-8188-ACE3070EB296";
name = Bold;
paths = (
{
closed = 1;
nodes = (
"248 0 LINE",
"248 624 LINE",
"83 624 LINE",
"83 0 LINE"
);
},
{
closed = 1;
nodes = (
"505 0 LINE",
"505 115 LINE",
"166 115 LINE",
"166 0 LINE"
);
}
);
width = 514;
}
);
leftKerningGroup = StraightsUC;
rightKerningGroup = L;
unicode = 004C;
userData = {
com.typemytype.robofont.layerData = {
background = {
anchors = (
);
components = (
);
contours = (
{
points = (
{
segmentType = line;
smooth = 0;
x = 206;
y = 623;
},
{
segmentType = line;
smooth = 0;
x = 309;
y = 642;
},
{
segmentType = line;
smooth = 0;
x = 309;
y = 680;
},
{
segmentType = line;
smooth = 0;
x = "-13";
y = 680;
},
{
segmentType = line;
smooth = 0;
x = "-13";
y = 649;
},
{
segmentType = line;
smooth = 0;
x = 91;
y = 610;
},
{
segmentType = line;
smooth = 0;
x = 91;
y = 70;
},
{
segmentType = line;
smooth = 0;
x = "-13";
y = 31;
},
{
segmentType = line;
smooth = 0;
x = "-13";
y = 0;
},
{
segmentType = line;
smooth = 0;
x = 522;
y = 0;
},
{
segmentType = line;
smooth = 0;
x = 547;
y = 196;
},
{
segmentType = line;
smooth = 0;
x = 507;
y = 196;
},
{
segmentType = line;
smooth = 0;
x = 396;
y = 45;
},
{
segmentType = line;
smooth = 0;
x = 206;
y = 45;
}
);
}
);
lib = {
};
name = L;
unicodes = (
);
width = 559;
};
layer_01 = {
anchors = (
);
components = (
);
contours = (
);
lib = {
};
name = L;
unicodes = (
);
width = 559;
};
layer_02 = {
anchors = (
);
components = (
);
contours = (
);
lib = {
};
name = L;
unicodes = (
);
width = 559;
};
};
};
},
{
glyphname = Lacute;
lastChange = "2015-04-28 13:51:32 +0000";
layers = (
{
background = {
paths = (
{
closed = 1;
nodes = (
"421 41 LINE",
"230 41 LINE",
"230 580 LINE",
"328 597 LINE",
"328 626 LINE",
"44 626 LINE",
"44 605 LINE",
"143 571 LINE",
"143 55 LINE",
"44 21 LINE",
"44 0 LINE",
"529 0 LINE",
"552 177 LINE",
"524 177 LINE"
);
},
{
closed = 1;
nodes = (
"93 753 LINE",
"92 749 LINE",
"108 713 LINE",
"333 783 LINE",
"333 797 LINE",
"319 817 OFFCURVE",
"291 844 OFFCURVE",
"269 853 CURVE"
);
}
);
};
components = (
{
name = L;
},
{
name = acute.cap;
transform = "{1, 0, 0, 1, -8, 0}";
}
);
layerId = "E777F328-EA17-4AE7-9EBA-8002E537BA4F";
name = Light;
width = 513;
},
{
components = (
{
name = L;
},
{
name = acute.cap;
transform = "{1, 0, 0, 1, 0, -61}";
}
);
layerId = "AE81D269-4BA9-4AA4-8188-ACE3070EB296";
name = Bold;
width = 471;
}
);
leftKerningGroup = StraightsUC;
rightKerningGroup = L;
unicode = 0139;
userData = {
com.typemytype.robofont.layerData = {
background = {
anchors = (
);
components = (
);
contours = (
);
lib = {
};
name = Lacute;
unicodes = (
);
width = 559;
};
layer_01 = {
anchors = (
);
components = (
);
contours = (
);
lib = {
};
name = Lacute;
unicodes = (
);
width = 559;
};
layer_02 = {
anchors = (
);
components = (
);
contours = (
);
lib = {
};
name = Lacute;
unicodes = (
);
width = 559;
};
};
};
},
{
glyphname = Lcaron;
lastChange = "2015-04-28 13:51:32 +0000";
layers = (
{
background = {
paths = (
{
closed = 1;
nodes = (
"421 41 LINE",
"230 41 LINE",
"230 580 LINE",
"328 597 LINE",
"328 626 LINE",
"44 626 LINE",
"44 605 LINE",
"143 571 LINE",
"143 55 LINE",
"44 21 LINE",
"44 0 LINE",
"529 0 LINE",
"552 177 LINE",
"524 177 LINE"
);
},
{
closed = 1;
nodes = (
"525 731 OFFCURVE",
"502 769 OFFCURVE",
"467 769 CURVE SMOOTH",
"432 769 OFFCURVE",
"413 741 OFFCURVE",
"413 712 CURVE SMOOTH",
"413 703 OFFCURVE",
"415 691 OFFCURVE",
"418 683 CURVE",
"457 660 LINE",
"458 655 OFFCURVE",
"459 649 OFFCURVE",
"459 643 CURVE SMOOTH",
"459 613 OFFCURVE",
"436 563 OFFCURVE",
"426 547 CURVE",
"446 534 LINE",
"466 557 OFFCURVE",
"525 630 OFFCURVE",
"525 686 CURVE SMOOTH"
);
}
);
};
components = (
{
name = L;
},
{
name = caronSlovak;
transform = "{1, 0, 0, 1, 29, -110}";
}
);
layerId = "E777F328-EA17-4AE7-9EBA-8002E537BA4F";
name = Light;
width = 513;
},
{
components = (
{
name = L;
},
{
name = caronSlovak;
transform = "{1, 0, 0, 1, 218, -146}";
}
);
layerId = "AE81D269-4BA9-4AA4-8188-ACE3070EB296";
name = Bold;
width = 471;
}
);
leftKerningGroup = StraightsUC;
rightKerningGroup = L;
unicode = 013D;
userData = {
com.typemytype.robofont.layerData = {
background = {
anchors = (
);
components = (
);
contours = (
);
lib = {
};
name = Lcaron;
unicodes = (
);
width = 559;
};
layer_01 = {
anchors = (
);
components = (
);
contours = (
);
lib = {
};
name = Lcaron;
unicodes = (
);
width = 559;
};
layer_02 = {
anchors = (
);
components = (
);
contours = (
);
lib = {
};
name = Lcaron;
unicodes = (
);
width = 559;
};
};
};
},
{
glyphname = Lcommaaccent;
lastChange = "2015-04-28 13:51:32 +0000";
layers = (
{
background = {
paths = (
{
closed = 1;
nodes = (
"421 41 LINE",
"230 41 LINE",
"230 580 LINE",
"328 597 LINE",
"328 626 LINE",
"44 626 LINE",
"44 605 LINE",
"143 571 LINE",
"143 55 LINE",
"44 21 LINE",
"44 0 LINE",
"529 0 LINE",
"552 177 LINE",
"524 177 LINE"
);
},
{
closed = 1;
nodes = (
"372 -109 OFFCURVE",
"340 -84 OFFCURVE",
"305 -84 CURVE SMOOTH",
"270 -84 OFFCURVE",
"250 -115 OFFCURVE",
"250 -137 CURVE SMOOTH",
"250 -145 OFFCURVE",
"252 -152 OFFCURVE",
"253 -157 CURVE",
"313 -185 LINE",
"304 -210 OFFCURVE",
"281 -231 OFFCURVE",
"264 -246 CURVE",
"280 -268 LINE",
"329 -237 OFFCURVE",
"372 -188 OFFCURVE",
"372 -150 CURVE SMOOTH"
);
}
);
};
components = (
{
name = L;
},
{
name = commaaccent;
transform = "{1, 0, 0, 1, 79, 0}";
}
);
layerId = "E777F328-EA17-4AE7-9EBA-8002E537BA4F";
name = Light;
width = 513;
},
{
components = (
{
name = L;
},
{
name = commaaccent;
transform = "{1, 0, 0, 1, 59, 1}";
}
);
layerId = "AE81D269-4BA9-4AA4-8188-ACE3070EB296";
name = Bold;
width = 471;
}
);
leftKerningGroup = StraightsUC;
rightKerningGroup = L;
unicode = 013B;
userData = {
com.typemytype.robofont.layerData = {
background = {
anchors = (
);
components = (
);
contours = (
);
lib = {
};
name = Lcommaaccent;
unicodes = (
);
width = 559;
};
layer_01 = {
anchors = (
);
components = (
);
contours = (
);
lib = {
};
name = Lcommaaccent;
unicodes = (
);
width = 559;
};
layer_02 = {
anchors = (
);
components = (
);
contours = (
);
lib = {
};
name = Lcommaaccent;
unicodes = (
);
width = 559;
};
};
};
},
{
glyphname = Ldot;
lastChange = "2015-04-28 13:51:32 +0000";
layers = (
{
background = {
paths = (
{
closed = 1;
nodes = (
"421 41 LINE",
"230 41 LINE",
"230 580 LINE",
"328 597 LINE",
"328 626 LINE",
"44 626 LINE",
"44 605 LINE",
"143 571 LINE",
"143 55 LINE",
"44 21 LINE",
"44 0 LINE",
"529 0 LINE",
"552 177 LINE",
"524 177 LINE"
);
},
{
closed = 1;
nodes = (
"413 328 OFFCURVE",
"439 301 OFFCURVE",
"470 301 CURVE SMOOTH",
"501 301 OFFCURVE",
"527 328 OFFCURVE",
"527 360 CURVE SMOOTH",
"527 393 OFFCURVE",
"501 421 OFFCURVE",
"470 421 CURVE SMOOTH",
"439 421 OFFCURVE",
"413 393 OFFCURVE",
"413 360 CURVE SMOOTH"
);
}
);
};
components = (
{
name = L;
},
{
name = periodcentered;
transform = "{1, 0, 0, 1, 261, 92}";
}
);
layerId = "E777F328-EA17-4AE7-9EBA-8002E537BA4F";
name = Light;
width = 513;
},
{
components = (
{
name = L;
},
{
name = periodcentered;
transform = "{1, 0, 0, 1, 239, 40}";
}
);
layerId = "AE81D269-4BA9-4AA4-8188-ACE3070EB296";
name = Bold;
width = 471;
}
);
leftKerningGroup = StraightsUC;
rightKerningGroup = L;
unicode = 013F;
userData = {
com.typemytype.robofont.layerData = {
background = {
anchors = (
);
components = (
);
contours = (
);
lib = {
};
name = Ldot;
unicodes = (
);
width = 559;
};
layer_01 = {
anchors = (
);
components = (
);
contours = (
);
lib = {
};
name = Ldot;
unicodes = (
);
width = 559;
};
layer_02 = {
anchors = (
);
components = (
);
contours = (
);
lib = {
};
name = Ldot;
unicodes = (
);
width = 559;
};
};
};
},
{
glyphname = Lslash;
lastChange = "2015-04-28 13:51:32 +0000";
layers = (
{
background = {
paths = (
{
closed = 1;
nodes = (
"421 41 LINE",
"230 41 LINE",
"230 261 LINE",
"472 422 LINE",
"472 476 LINE",
"230 314 LINE",
"230 580 LINE",
"328 597 LINE",
"328 626 LINE",
"44 626 LINE",
"44 605 LINE",
"143 571 LINE",
"143 281 LINE",
"34 209 LINE",
"34 154 LINE",
"143 230 LINE",
"143 55 LINE",
"44 21 LINE",
"44 0 LINE",
"529 0 LINE",
"552 177 LINE",
"524 177 LINE"
);
}
);
};
components = (
{
name = L;
}
);
layerId = "E777F328-EA17-4AE7-9EBA-8002E537BA4F";
name = Light;
paths = (
{
closed = 1;
nodes = (
"334 362 LINE",
"313 394 LINE",
"11 203 LINE",
"32 170 LINE"
);
}
);
width = 513;
},
{
components = (
{
name = L;
}
);
layerId = "AE81D269-4BA9-4AA4-8188-ACE3070EB296";
name = Bold;
paths = (
{
closed = 1;
nodes = (
"456 393 LINE",
"394 491 LINE",
"-17 230 LINE",
"44 133 LINE"
);
}
);
width = 514;
}
);
leftKerningGroup = StraightsUC;
rightKerningGroup = L;
unicode = 0141;
userData = {
com.typemytype.robofont.layerData = {
background = {
anchors = (
);
components = (
);
contours = (
);
lib = {
};
name = Lslash;
unicodes = (
);
width = 559;
};
layer_01 = {
anchors = (
);
components = (
);
contours = (
);
lib = {
};
name = Lslash;
unicodes = (
);
width = 559;
};
layer_02 = {
anchors = (
);
components = (
);
contours = (
);
lib = {
};
name = Lslash;
unicodes = (
);
width = 559;
};
};
};
},
{
glyphname = M;
lastChange = "2015-04-28 13:51:32 +0000";
layers = (
{
background = {
paths = (
{
closed = 1;
nodes = (
"426 21 LINE",
"618 507 LINE",
"620 507 LINE",
"643 55 LINE",
"550 21 LINE",
"550 0 LINE",
"808 0 LINE",
"808 29 LINE",
"730 48 LINE",
"694 580 LINE",
"763 597 LINE",
"763 626 LINE",
"609 626 LINE",
"427 147 LINE",
"424 147 LINE",
"228 626 LINE",
"56 626 LINE",
"56 605 LINE",
"136 571 LINE",
"97 55 LINE",
"18 21 LINE",
"18 0 LINE",
"256 0 LINE",
"256 29 LINE",
"155 48 LINE",
"183 498 LINE",
"186 498 LINE",
"389 21 LINE"
);
}
);
};
layerId = "E777F328-EA17-4AE7-9EBA-8002E537BA4F";
name = Light;
paths = (
{
closed = 1;
nodes = (
"161 0 LINE",
"161 239 LINE",
"161 547 LINE",
"151 544 LINE",
"379 222 LINE",
"408 222 LINE",
"635 544 LINE",
"625 547 LINE",
"625 239 LINE",
"625 0 LINE",
"677 0 LINE",
"677 624 LINE",
"635 624 LINE",
"383 268 LINE",
"403 268 LINE",
"152 624 LINE",
"110 624 LINE",
"110 0 LINE"
);
}
);
width = 787;
},
{
layerId = "AE81D269-4BA9-4AA4-8188-ACE3070EB296";
name = Bold;
paths = (
{
closed = 1;
nodes = (
"243 0 LINE",
"243 165 LINE",
"220 547 LINE",
"142 519 LINE",
"360 151 LINE",
"485 151 LINE",
"703 519 LINE",
"621 547 LINE",
"602 165 LINE",
"602 0 LINE",
"763 0 LINE",
"763 624 LINE",
"607 624 LINE",
"365 222 LINE",
"481 222 LINE",
"238 624 LINE",
"83 624 LINE",
"83 0 LINE"
);
}
);
width = 845;
}
);
leftKerningGroup = StraightsUC;
rightKerningGroup = StraightsUC;
unicode = 004D;
userData = {
com.typemytype.robofont.layerData = {
background = {
anchors = (
);
components = (
);
contours = (
{
points = (
{
segmentType = line;
smooth = 0;
x = "-812";
y = 70;
},
{
segmentType = line;
smooth = 0;
x = "-897";
y = 31;
},
{
segmentType = line;
smooth = 0;
x = "-897";
y = 0;
},
{
segmentType = line;
smooth = 0;
x = "-643";
y = 0;
},
{
segmentType = line;
smooth = 0;
x = "-643";
y = 38;
},
{
segmentType = line;
smooth = 0;
x = "-750";
y = 57;
},
{
segmentType = line;
smooth = 0;
x = "-719";
y = 536;
},
{
segmentType = line;
smooth = 0;
x = "-716";
y = 536;
},
{
segmentType = line;
smooth = 0;
x = "-500";
y = 23;
},
{
segmentType = line;
smooth = 0;
x = "-464";
y = 23;
},
{
segmentType = line;
smooth = 0;
x = "-236";
y = 570;
},
{
segmentType = line;
smooth = 0;
x = "-234";
y = 570;
},
{
segmentType = line;
smooth = 0;
x = "-209";
y = 70;
},
{
segmentType = line;
smooth = 0;
x = "-307";
y = 31;
},
{
segmentType = line;
smooth = 0;
x = "-307";
y = 0;
},
{
segmentType = line;
smooth = 0;
x = "-14";
y = 0;
},
{
segmentType = line;
smooth = 0;
x = "-14";
y = 38;
},
{
segmentType = line;
smooth = 0;
x = "-97";
y = 57;
},
{
segmentType = line;
smooth = 0;
x = "-135";
y = 623;
},
{
segmentType = line;
smooth = 0;
x = "-62";
y = 642;
},
{
segmentType = line;
smooth = 0;
x = "-62";
y = 680;
},
{
segmentType = line;
smooth = 0;
x = "-245";
y = 680;
},
{
segmentType = line;
smooth = 0;
x = "-448";
y = 183;
},
{
segmentType = line;
smooth = 0;
x = "-453";
y = 183;
},
{
segmentType = line;
smooth = 0;
x = "-654";
y = 680;
},
{
segmentType = line;
smooth = 0;
x = "-855";
y = 680;
},
{
segmentType = line;
smooth = 0;
x = "-855";
y = 649;
},
{
segmentType = line;
smooth = 0;
x = "-771";
y = 610;
}
);
},
{
points = (
{
segmentType = line;
smooth = 0;
x = 693;
y = 586;
},
{
segmentType = line;
smooth = 0;
x = 682;
y = 590;
},
{
segmentType = line;
smooth = 0;
x = 682;
y = 0;
},
{
segmentType = line;
smooth = 0;
x = 738;
y = 0;
},
{
segmentType = line;
smooth = 0;
x = 738;
y = 680;
},
{
segmentType = line;
smooth = 0;
x = 692;
y = 680;
},
{
segmentType = line;
smooth = 0;
x = 418;
y = 299;
},
{
segmentType = line;
smooth = 0;
x = 440;
y = 299;
},
{
segmentType = line;
smooth = 0;
x = 166;
y = 680;
},
{
segmentType = line;
smooth = 0;
x = 120;
y = 680;
},
{
segmentType = line;
smooth = 0;
x = 120;
y = 0;
},
{
segmentType = line;
smooth = 0;
x = 176;
y = 0;
},
{
segmentType = line;
smooth = 0;
x = 176;
y = 590;
},
{
segmentType = line;
smooth = 0;
x = 165;
y = 586;
},
{
segmentType = line;
smooth = 0;
x = 413;
y = 242;
},
{
segmentType = line;
smooth = 0;
x = 445;
y = 242;
}
);
}
);
lib = {
};
name = M;
unicodes = (
);
width = 858;
};
layer_01 = {
anchors = (
);
components = (
);
contours = (
);
lib = {
};
name = M;
unicodes = (
);
width = 858;
};
layer_02 = {
anchors = (
);
components = (
);
contours = (
);
lib = {
};
name = M;
unicodes = (
);
width = 858;
};
};
};
},
{
glyphname = N;
lastChange = "2015-04-28 13:51:32 +0000";
layers = (
{
anchors = (
{
name = bottom;
position = "{347, -9}";
},
{
name = top;
position = "{347, 669}";
}
);
background = {
paths = (
{
closed = 1;
nodes = (
"44 626 LINE",
"44 605 LINE",
"143 571 LINE",
"143 55 LINE",
"44 21 LINE",
"44 0 LINE",
"300 0 LINE",
"300 29 LINE",
"204 48 LINE",
"204 537 LINE",
"206 537 LINE",
"637 -11 LINE",
"669 -11 LINE",
"669 580 LINE",
"768 597 LINE",
"768 626 LINE",
"512 626 LINE",
"512 605 LINE",
"608 571 LINE",
"608 163 LINE",
"605 163 LINE",
"242 626 LINE"
);
}
);
};
layerId = "E777F328-EA17-4AE7-9EBA-8002E537BA4F";
name = Light;
paths = (
{
closed = 1;
nodes = (
"582 0 LINE",
"582 624 LINE",
"531 624 LINE",
"531 351 LINE",
"531 59 LINE",
"550 65 LINE",
"152 624 LINE",
"110 624 LINE",
"110 0 LINE",
"161 0 LINE",
"161 306 LINE",
"161 562 LINE",
"142 556 LINE",
"540 -1 LINE"
);
}
);
width = 692;
},
{
anchors = (
{
name = bottom;
position = "{374, -9}";
},
{
name = top;
position = "{374, 669}";
}
);
layerId = "AE81D269-4BA9-4AA4-8188-ACE3070EB296";
name = Bold;
paths = (
{
closed = 1;
nodes = (
"668 0 LINE",
"668 624 LINE",
"503 624 LINE",
"503 436 LINE",
"526 59 LINE",
"633 76 LINE",
"231 624 LINE",
"83 624 LINE",
"83 0 LINE",
"248 0 LINE",
"248 187 LINE",
"225 562 LINE",
"122 545 LINE",
"520 -1 LINE"
);
}
);
width = 751;
}
);
leftKerningGroup = StraightsUC;
rightKerningGroup = StraightsUC;
unicode = 004E;
userData = {
com.typemytype.robofont.layerData = {
background = {
anchors = (
);
components = (
);
contours = (
{
points = (
{
segmentType = line;
smooth = 0;
x = 626;
y = "-17";
},
{
segmentType = line;
smooth = 0;
x = 675;
y = "-17";
},
{
segmentType = line;
smooth = 0;
x = 675;
y = 623;
},
{
segmentType = line;
smooth = 0;
x = 779;
y = 642;
},
{
segmentType = line;
smooth = 0;
x = 779;
y = 680;
},
{
segmentType = line;
smooth = 0;
x = 504;
y = 680;
},
{
segmentType = line;
smooth = 0;
x = 504;
y = 649;
},
{
segmentType = line;
smooth = 0;
x = 608;
y = 610;
},
{
segmentType = line;
smooth = 0;
x = 608;
y = 180;
},
{
segmentType = line;
smooth = 0;
x = 605;
y = 180;
},
{
segmentType = line;
smooth = 0;
x = 211;
y = 680;
},
{
segmentType = line;
smooth = 0;
x = "-13";
y = 680;
},
{
segmentType = line;
smooth = 0;
x = "-13";
y = 649;
},
{
segmentType = line;
smooth = 0;
x = 91;
y = 610;
},
{
segmentType = line;
smooth = 0;
x = 91;
y = 70;
},
{
segmentType = line;
smooth = 0;
x = "-13";
y = 31;
},
{
segmentType = line;
smooth = 0;
x = "-13";
y = 0;
},
{
segmentType = line;
smooth = 0;
x = 262;
y = 0;
},
{
segmentType = line;
smooth = 0;
x = 262;
y = 38;
},
{
segmentType = line;
smooth = 0;
x = 158;
y = 57;
},
{
segmentType = line;
smooth = 0;
x = 158;
y = 570;
},
{
segmentType = line;
smooth = 0;
x = 161;
y = 570;
}
);
}
);
lib = {
};
name = N;
unicodes = (
);
width = 755;
};
layer_01 = {
anchors = (
);
components = (
);
contours = (
);
lib = {
};
name = N;
unicodes = (
);
width = 755;
};
layer_02 = {
anchors = (
);
components = (
);
contours = (
);
lib = {
};
name = N;
unicodes = (
);
width = 755;
};
};
};
},
{
glyphname = Nacute;
lastChange = "2015-04-28 13:51:32 +0000";
layers = (
{
background = {
paths = (
{
closed = 1;
nodes = (
"44 626 LINE",
"44 605 LINE",
"143 571 LINE",
"143 55 LINE",
"44 21 LINE",
"44 0 LINE",
"300 0 LINE",
"300 29 LINE",
"204 48 LINE",
"204 537 LINE",
"206 537 LINE",
"637 -11 LINE",
"669 -11 LINE",
"669 580 LINE",
"768 597 LINE",
"768 626 LINE",
"512 626 LINE",
"512 605 LINE",
"608 571 LINE",
"608 163 LINE",
"605 163 LINE",
"242 626 LINE"
);
},
{
closed = 1;
nodes = (
"321 753 LINE",
"320 749 LINE",
"336 713 LINE",
"561 783 LINE",
"561 797 LINE",
"547 817 OFFCURVE",
"519 844 OFFCURVE",
"497 853 CURVE"
);
}
);
};
components = (
{
name = N;
},
{
name = acute.cap;
transform = "{1, 0, 0, 1, 196, 0}";
}
);
layerId = "E777F328-EA17-4AE7-9EBA-8002E537BA4F";
name = Light;
width = 692;
},
{
components = (
{
name = N;
},
{
name = acute.cap;
transform = "{1, 0, 0, 1, 209, -61}";
}
);
layerId = "AE81D269-4BA9-4AA4-8188-ACE3070EB296";
name = Bold;
width = 689;
}
);
leftKerningGroup = StraightsUC;
rightKerningGroup = StraightsUC;
unicode = 0143;
userData = {
com.typemytype.robofont.layerData = {
background = {
anchors = (
);
components = (
);
contours = (
);
lib = {
};
name = Nacute;
unicodes = (
);
width = 755;
};
layer_01 = {
anchors = (
);
components = (
);
contours = (
);
lib = {
};
name = Nacute;
unicodes = (
);
width = 755;
};
layer_02 = {
anchors = (
);
components = (
);
contours = (
);
lib = {
};
name = Nacute;
unicodes = (
);
width = 755;
};
};
};
},
{
glyphname = Ncaron;
lastChange = "2015-04-28 13:51:32 +0000";
layers = (
{
background = {
paths = (
{
closed = 1;
nodes = (
"44 626 LINE",
"44 605 LINE",
"143 571 LINE",
"143 55 LINE",
"44 21 LINE",
"44 0 LINE",
"300 0 LINE",
"300 29 LINE",
"204 48 LINE",
"204 537 LINE",
"206 537 LINE",
"637 -11 LINE",
"669 -11 LINE",
"669 580 LINE",
"768 597 LINE",
"768 626 LINE",
"512 626 LINE",
"512 605 LINE",
"608 571 LINE",
"608 163 LINE",
"605 163 LINE",
"242 626 LINE"
);
},
{
closed = 1;
nodes = (
"426 795 LINE",
"391 814 OFFCURVE",
"331 843 OFFCURVE",
"288 856 CURVE",
"269 828 LINE",
"269 824 LINE",
"306 797 OFFCURVE",
"360 753 OFFCURVE",
"394 722 CURVE",
"464 722 LINE",
"499 753 OFFCURVE",
"553 797 OFFCURVE",
"590 824 CURVE",
"590 828 LINE",
"571 856 LINE",
"528 843 OFFCURVE",
"468 814 OFFCURVE",
"432 795 CURVE"
);
}
);
};
components = (
{
name = N;
},
{
name = caron.cap;
transform = "{1, 0, 0, 1, 118, 0}";
}
);
layerId = "E777F328-EA17-4AE7-9EBA-8002E537BA4F";
name = Light;
width = 692;
},
{
components = (
{
name = N;
},
{
name = caron.cap;
transform = "{1, 0, 0, 1, 124, -61}";
}
);
layerId = "AE81D269-4BA9-4AA4-8188-ACE3070EB296";
name = Bold;
width = 689;
}
);
leftKerningGroup = StraightsUC;
rightKerningGroup = StraightsUC;
unicode = 0147;
userData = {
com.typemytype.robofont.layerData = {
background = {
anchors = (
);
components = (
);
contours = (
);
lib = {
};
name = Ncaron;
unicodes = (
);
width = 755;
};
layer_01 = {
anchors = (
);
components = (
);
contours = (
);
lib = {
};
name = Ncaron;
unicodes = (
);
width = 755;
};
layer_02 = {
anchors = (
);
components = (
);
contours = (
);
lib = {
};
name = Ncaron;
unicodes = (
);
width = 755;
};
};
};
},
{
glyphname = Ncommaaccent;
lastChange = "2015-04-28 13:51:32 +0000";
layers = (
{
background = {
paths = (
{
closed = 1;
nodes = (
"44 626 LINE",
"44 605 LINE",
"143 571 LINE",
"143 55 LINE",
"44 21 LINE",
"44 0 LINE",
"300 0 LINE",
"300 29 LINE",
"204 48 LINE",
"204 537 LINE",
"206 537 LINE",
"637 -11 LINE",
"669 -11 LINE",
"669 580 LINE",
"768 597 LINE",
"768 626 LINE",
"512 626 LINE",
"512 605 LINE",
"608 571 LINE",
"608 163 LINE",
"605 163 LINE",
"242 626 LINE"
);
},
{
closed = 1;
nodes = (
"497 -109 OFFCURVE",
"465 -84 OFFCURVE",
"430 -84 CURVE SMOOTH",
"395 -84 OFFCURVE",
"375 -115 OFFCURVE",
"375 -137 CURVE SMOOTH",
"375 -145 OFFCURVE",
"377 -152 OFFCURVE",
"378 -157 CURVE",
"438 -185 LINE",
"429 -210 OFFCURVE",
"406 -231 OFFCURVE",
"389 -246 CURVE",
"405 -268 LINE",
"454 -237 OFFCURVE",
"497 -188 OFFCURVE",
"497 -150 CURVE SMOOTH"
);
}
);
};
components = (
{
name = N;
},
{
name = commaaccent;
transform = "{1, 0, 0, 1, 122, 0}";
}
);
layerId = "E777F328-EA17-4AE7-9EBA-8002E537BA4F";
name = Light;
width = 692;
},
{
components = (
{
name = N;
},
{
name = commaaccent;
transform = "{1, 0, 0, 1, 129, 1}";
}
);
layerId = "AE81D269-4BA9-4AA4-8188-ACE3070EB296";
name = Bold;
width = 689;
}
);
leftKerningGroup = StraightsUC;
rightKerningGroup = StraightsUC;
unicode = 0145;
userData = {
com.typemytype.robofont.layerData = {
background = {
anchors = (
);
components = (
);
contours = (
);
lib = {
};
name = Ncommaaccent;
unicodes = (
);
width = 755;
};
layer_01 = {
anchors = (
);
components = (
);
contours = (
);
lib = {
};
name = Ncommaaccent;
unicodes = (
);
width = 755;
};
layer_02 = {
anchors = (
);
components = (
);
contours = (
);
lib = {
};
name = Ncommaaccent;
unicodes = (
);
width = 755;
};
};
};
},
{
glyphname = Ntilde;
lastChange = "2015-04-28 13:51:32 +0000";
layers = (
{
background = {
paths = (
{
closed = 1;
nodes = (
"44 626 LINE",
"44 605 LINE",
"143 571 LINE",
"143 55 LINE",
"44 21 LINE",
"44 0 LINE",
"300 0 LINE",
"300 29 LINE",
"204 48 LINE",
"204 537 LINE",
"206 537 LINE",
"637 -11 LINE",
"669 -11 LINE",
"669 580 LINE",
"768 597 LINE",
"768 626 LINE",
"512 626 LINE",
"512 605 LINE",
"608 571 LINE",
"608 163 LINE",
"605 163 LINE",
"242 626 LINE"
);
},
{
closed = 1;
nodes = (
"541 709 OFFCURVE",
"594 784 OFFCURVE",
"626 826 CURVE",
"601 848 LINE",
"576 819 OFFCURVE",
"530 777 OFFCURVE",
"497 777 CURVE SMOOTH",
"459 777 OFFCURVE",
"383 838 OFFCURVE",
"350 838 CURVE SMOOTH",
"293 838 OFFCURVE",
"240 770 OFFCURVE",
"208 732 CURVE",
"233 709 LINE",
"259 735 OFFCURVE",
"305 770 OFFCURVE",
"337 770 CURVE SMOOTH",
"373 770 OFFCURVE",
"442 709 OFFCURVE",
"485 709 CURVE SMOOTH"
);
}
);
};
components = (
{
name = N;
},
{
name = tilde.cap;
transform = "{1, 0, 0, 1, 118, 0}";
}
);
layerId = "E777F328-EA17-4AE7-9EBA-8002E537BA4F";
name = Light;
width = 692;
},
{
components = (
{
name = N;
},
{
name = tilde.cap;
transform = "{1, 0, 0, 1, 124, -61}";
}
);
layerId = "AE81D269-4BA9-4AA4-8188-ACE3070EB296";
name = Bold;
width = 689;
}
);
leftKerningGroup = StraightsUC;
rightKerningGroup = StraightsUC;
unicode = 00D1;
userData = {
com.typemytype.robofont.layerData = {
background = {
anchors = (
);
components = (
);
contours = (
);
lib = {
};
name = Ntilde;
unicodes = (
);
width = 755;
};
layer_01 = {
anchors = (
);
components = (
);
contours = (
);
lib = {
};
name = Ntilde;
unicodes = (
);
width = 755;
};
layer_02 = {
anchors = (
);
components = (
);
contours = (
);
lib = {
};
name = Ntilde;
unicodes = (
);
width = 755;
};
};
};
},
{
glyphname = O;
lastChange = "2015-04-28 13:51:32 +0000";
layers = (
{
anchors = (
{
name = bottom;
position = "{347, -9}";
},
{
name = top;
position = "{347, 669}";
}
);
background = {
paths = (
{
closed = 1;
nodes = (
"155 467 OFFCURVE",
"215 588 OFFCURVE",
"352 588 CURVE SMOOTH",
"511 588 OFFCURVE",
"569 429 OFFCURVE",
"569 283 CURVE SMOOTH",
"569 166 OFFCURVE",
"515 35 OFFCURVE",
"376 35 CURVE SMOOTH",
"244 35 OFFCURVE",
"155 143 OFFCURVE",
"155 334 CURVE SMOOTH"
);
},
{
closed = 1;
nodes = (
"54 112 OFFCURVE",
"170 -20 OFFCURVE",
"344 -20 CURVE SMOOTH",
"547 -20 OFFCURVE",
"670 116 OFFCURVE",
"670 324 CURVE SMOOTH",
"670 499 OFFCURVE",
"558 638 OFFCURVE",
"383 638 CURVE SMOOTH",
"189 638 OFFCURVE",
"54 506 OFFCURVE",
"54 306 CURVE SMOOTH"
);
}
);
};
layerId = "E777F328-EA17-4AE7-9EBA-8002E537BA4F";
name = Light;
paths = (
{
closed = 1;
nodes = (
"539 -16 OFFCURVE",
"638 134 OFFCURVE",
"638 312 CURVE",
"638 486 OFFCURVE",
"539 636 OFFCURVE",
"347 636 CURVE",
"153 636 OFFCURVE",
"55 486 OFFCURVE",
"55 310 CURVE",
"55 134 OFFCURVE",
"153 -16 OFFCURVE",
"347 -16 CURVE"
);
},
{
closed = 1;
nodes = (
"191 28 OFFCURVE",
"106 149 OFFCURVE",
"106 311 CURVE",
"106 470 OFFCURVE",
"191 593 OFFCURVE",
"347 593 CURVE",
"503 593 OFFCURVE",
"587 470 OFFCURVE",
"587 311 CURVE",
"587 149 OFFCURVE",
"503 28 OFFCURVE",
"347 28 CURVE"
);
}
);
width = 693;
},
{
anchors = (
{
name = bottom;
position = "{380, -9}";
},
{
name = top;
position = "{380, 669}";
}
);
layerId = "AE81D269-4BA9-4AA4-8188-ACE3070EB296";
name = Bold;
paths = (
{
closed = 1;
nodes = (
"602 -11 OFFCURVE",
"718 137 OFFCURVE",
"718 312 CURVE SMOOTH",
"718 485 OFFCURVE",
"602 634 OFFCURVE",
"380 634 CURVE SMOOTH",
"157 634 OFFCURVE",
"41 486 OFFCURVE",
"41 312 CURVE SMOOTH",
"41 138 OFFCURVE",
"157 -11 OFFCURVE",
"380 -11 CURVE SMOOTH"
);
},
{
closed = 1;
nodes = (
"269 107 OFFCURVE",
"206 196 OFFCURVE",
"206 312 CURVE SMOOTH",
"206 427 OFFCURVE",
"269 515 OFFCURVE",
"380 515 CURVE SMOOTH",
"491 515 OFFCURVE",
"553 427 OFFCURVE",
"553 312 CURVE SMOOTH",
"553 196 OFFCURVE",
"491 107 OFFCURVE",
"380 107 CURVE SMOOTH"
);
}
);
width = 759;
}
);
leftKerningGroup = RoundsUC;
rightKerningGroup = RoundsUC;
unicode = 004F;
userData = {
com.typemytype.robofont.guides = (
);
com.typemytype.robofont.layerData = {
background = {
anchors = (
);
components = (
);
contours = (
);
lib = {
};
name = O;
unicodes = (
);
width = 756;
};
layer_01 = {
anchors = (
);
components = (
);
contours = (
);
lib = {
};
name = O;
unicodes = (
);
width = 756;
};
layer_02 = {
anchors = (
);
components = (
);
contours = (
);
lib = {
};
name = O;
unicodes = (
);
width = 756;
};
};
};
},
{
glyphname = Oacute;
lastChange = "2015-04-28 13:51:32 +0000";
layers = (
{
background = {
paths = (
{
closed = 1;
nodes = (
"155 467 OFFCURVE",
"215 588 OFFCURVE",
"352 588 CURVE SMOOTH",
"511 588 OFFCURVE",
"569 429 OFFCURVE",
"569 283 CURVE SMOOTH",
"569 166 OFFCURVE",
"515 35 OFFCURVE",
"376 35 CURVE SMOOTH",
"244 35 OFFCURVE",
"155 143 OFFCURVE",
"155 334 CURVE SMOOTH"
);
},
{
closed = 1;
nodes = (
"54 112 OFFCURVE",
"170 -20 OFFCURVE",
"344 -20 CURVE SMOOTH",
"547 -20 OFFCURVE",
"670 116 OFFCURVE",
"670 324 CURVE SMOOTH",
"670 499 OFFCURVE",
"558 638 OFFCURVE",
"383 638 CURVE SMOOTH",
"189 638 OFFCURVE",
"54 506 OFFCURVE",
"54 306 CURVE SMOOTH"
);
},
{
closed = 1;
nodes = (
"261 753 LINE",
"260 749 LINE",
"276 713 LINE",
"501 783 LINE",
"501 797 LINE",
"487 817 OFFCURVE",
"459 844 OFFCURVE",
"437 853 CURVE"
);
}
);
};
components = (
{
name = O;
},
{
name = acute.cap;
transform = "{1, 0, 0, 1, 196, 0}";
}
);
layerId = "E777F328-EA17-4AE7-9EBA-8002E537BA4F";
name = Light;
width = 693;
},
{
components = (
{
name = O;
},
{
name = acute.cap;
transform = "{1, 0, 0, 1, 215, -61}";
}
);
layerId = "AE81D269-4BA9-4AA4-8188-ACE3070EB296";
name = Bold;
width = 696;
}
);
leftKerningGroup = RoundsUC;
rightKerningGroup = RoundsUC;
unicode = 00D3;
userData = {
com.typemytype.robofont.layerData = {
background = {
anchors = (
);
components = (
);
contours = (
);
lib = {
};
name = Oacute;
unicodes = (
);
width = 756;
};
layer_01 = {
anchors = (
);
components = (
);
contours = (
);
lib = {
};
name = Oacute;
unicodes = (
);
width = 756;
};
layer_02 = {
anchors = (
);
components = (
);
contours = (
);
lib = {
};
name = Oacute;
unicodes = (
);
width = 756;
};
};
};
},
{
glyphname = Ocircumflex;
lastChange = "2015-04-28 13:51:32 +0000";
layers = (
{
background = {
paths = (
{
closed = 1;
nodes = (
"155 467 OFFCURVE",
"215 588 OFFCURVE",
"352 588 CURVE SMOOTH",
"511 588 OFFCURVE",
"569 429 OFFCURVE",
"569 283 CURVE SMOOTH",
"569 166 OFFCURVE",
"515 35 OFFCURVE",
"376 35 CURVE SMOOTH",
"244 35 OFFCURVE",
"155 143 OFFCURVE",
"155 334 CURVE SMOOTH"
);
},
{
closed = 1;
nodes = (
"54 112 OFFCURVE",
"170 -20 OFFCURVE",
"344 -20 CURVE SMOOTH",
"547 -20 OFFCURVE",
"670 116 OFFCURVE",
"670 324 CURVE SMOOTH",
"670 499 OFFCURVE",
"558 638 OFFCURVE",
"383 638 CURVE SMOOTH",
"189 638 OFFCURVE",
"54 506 OFFCURVE",
"54 306 CURVE SMOOTH"
);
},
{
closed = 1;
nodes = (
"360 774 LINE",
"395 755 OFFCURVE",
"455 726 OFFCURVE",
"498 713 CURVE",
"517 741 LINE",
"517 745 LINE",
"480 772 OFFCURVE",
"426 816 OFFCURVE",
"392 847 CURVE",
"322 847 LINE",
"287 816 OFFCURVE",
"233 772 OFFCURVE",
"196 745 CURVE",
"196 741 LINE",
"215 713 LINE",
"258 726 OFFCURVE",
"318 755 OFFCURVE",
"354 774 CURVE"
);
}
);
};
components = (
{
name = O;
},
{
name = circumflex.cap;
transform = "{1, 0, 0, 1, 118, 0}";
}
);
layerId = "E777F328-EA17-4AE7-9EBA-8002E537BA4F";
name = Light;
width = 693;
},
{
components = (
{
name = O;
},
{
name = circumflex.cap;
transform = "{1, 0, 0, 1, 130, -61}";
}
);
layerId = "AE81D269-4BA9-4AA4-8188-ACE3070EB296";
name = Bold;
width = 696;
}
);
leftKerningGroup = RoundsUC;
rightKerningGroup = RoundsUC;
unicode = 00D4;
userData = {
com.typemytype.robofont.layerData = {
background = {
anchors = (
);
components = (
);
contours = (
);
lib = {
};
name = Ocircumflex;
unicodes = (
);
width = 756;
};
layer_01 = {
anchors = (
);
components = (
);
contours = (
);
lib = {
};
name = Ocircumflex;
unicodes = (
);
width = 756;
};
layer_02 = {
anchors = (
);
components = (
);
contours = (
);
lib = {
};
name = Ocircumflex;
unicodes = (
);
width = 756;
};
};
};
},
{
glyphname = Odieresis;
lastChange = "2015-04-28 13:51:32 +0000";
layers = (
{
background = {
paths = (
{
closed = 1;
nodes = (
"155 467 OFFCURVE",
"215 588 OFFCURVE",
"352 588 CURVE SMOOTH",
"511 588 OFFCURVE",
"569 429 OFFCURVE",
"569 283 CURVE SMOOTH",
"569 166 OFFCURVE",
"515 35 OFFCURVE",
"376 35 CURVE SMOOTH",
"244 35 OFFCURVE",
"155 143 OFFCURVE",
"155 334 CURVE SMOOTH"
);
},
{
closed = 1;
nodes = (
"54 112 OFFCURVE",
"170 -20 OFFCURVE",
"344 -20 CURVE SMOOTH",
"547 -20 OFFCURVE",
"670 116 OFFCURVE",
"670 324 CURVE SMOOTH",
"670 499 OFFCURVE",
"558 638 OFFCURVE",
"383 638 CURVE SMOOTH",
"189 638 OFFCURVE",
"54 506 OFFCURVE",
"54 306 CURVE SMOOTH"
);
},
{
closed = 1;
nodes = (
"179 748 OFFCURVE",
"202 724 OFFCURVE",
"231 724 CURVE SMOOTH",
"261 724 OFFCURVE",
"284 748 OFFCURVE",
"284 779 CURVE SMOOTH",
"284 809 OFFCURVE",
"261 834 OFFCURVE",
"231 834 CURVE SMOOTH",
"202 834 OFFCURVE",
"179 809 OFFCURVE",
"179 779 CURVE SMOOTH"
);
},
{
closed = 1;
nodes = (
"448 748 OFFCURVE",
"471 724 OFFCURVE",
"500 724 CURVE SMOOTH",
"530 724 OFFCURVE",
"553 748 OFFCURVE",
"553 779 CURVE SMOOTH",
"553 809 OFFCURVE",
"530 834 OFFCURVE",
"500 834 CURVE SMOOTH",
"471 834 OFFCURVE",
"448 809 OFFCURVE",
"448 779 CURVE SMOOTH"
);
}
);
};
components = (
{
name = O;
},
{
name = dieresis.cap;
transform = "{1, 0, 0, 1, 118, 0}";
}
);
layerId = "E777F328-EA17-4AE7-9EBA-8002E537BA4F";
name = Light;
width = 693;
},
{
components = (
{
name = O;
},
{
name = dieresis.cap;
transform = "{1, 0, 0, 1, 130, -61}";
}
);
layerId = "AE81D269-4BA9-4AA4-8188-ACE3070EB296";
name = Bold;
width = 696;
}
);
leftKerningGroup = RoundsUC;
rightKerningGroup = RoundsUC;
unicode = 00D6;
userData = {
com.typemytype.robofont.layerData = {
background = {
anchors = (
);
components = (
);
contours = (
);
lib = {
};
name = Odieresis;
unicodes = (
);
width = 756;
};
layer_01 = {
anchors = (
);
components = (
);
contours = (
);
lib = {
};
name = Odieresis;
unicodes = (
);
width = 756;
};
layer_02 = {
anchors = (
);
components = (
);
contours = (
);
lib = {
};
name = Odieresis;
unicodes = (
);
width = 756;
};
};
};
},
{
glyphname = Ograve;
lastChange = "2015-04-28 13:51:32 +0000";
layers = (
{
background = {
paths = (
{
closed = 1;
nodes = (
"155 467 OFFCURVE",
"215 588 OFFCURVE",
"352 588 CURVE SMOOTH",
"511 588 OFFCURVE",
"569 429 OFFCURVE",
"569 283 CURVE SMOOTH",
"569 166 OFFCURVE",
"515 35 OFFCURVE",
"376 35 CURVE SMOOTH",
"244 35 OFFCURVE",
"155 143 OFFCURVE",
"155 334 CURVE SMOOTH"
);
},
{
closed = 1;
nodes = (
"54 112 OFFCURVE",
"170 -20 OFFCURVE",
"344 -20 CURVE SMOOTH",
"547 -20 OFFCURVE",
"670 116 OFFCURVE",
"670 324 CURVE SMOOTH",
"670 499 OFFCURVE",
"558 638 OFFCURVE",
"383 638 CURVE SMOOTH",
"189 638 OFFCURVE",
"54 506 OFFCURVE",
"54 306 CURVE SMOOTH"
);
},
{
closed = 1;
nodes = (
"316 856 LINE",
"293 847 OFFCURVE",
"265 820 OFFCURVE",
"252 800 CURVE",
"251 786 LINE",
"476 716 LINE",
"492 752 LINE",
"491 756 LINE"
);
}
);
};
components = (
{
name = O;
},
{
name = grave.cap;
transform = "{1, 0, 0, 1, 40, 0}";
}
);
layerId = "E777F328-EA17-4AE7-9EBA-8002E537BA4F";
name = Light;
width = 693;
},
{
components = (
{
name = O;
},
{
name = grave.cap;
transform = "{1, 0, 0, 1, 45, -61}";
}
);
layerId = "AE81D269-4BA9-4AA4-8188-ACE3070EB296";
name = Bold;
width = 696;
}
);
leftKerningGroup = RoundsUC;
rightKerningGroup = RoundsUC;
unicode = 00D2;
userData = {
com.typemytype.robofont.layerData = {
background = {
anchors = (
);
components = (
);
contours = (
);
lib = {
};
name = Ograve;
unicodes = (
);
width = 756;
};
layer_01 = {
anchors = (
);
components = (
);
contours = (
);
lib = {
};
name = Ograve;
unicodes = (
);
width = 756;
};
layer_02 = {
anchors = (
);
components = (
);
contours = (
);
lib = {
};
name = Ograve;
unicodes = (
);
width = 756;
};
};
};
},
{
glyphname = Ohungarumlaut;
lastChange = "2015-04-28 13:51:32 +0000";
layers = (
{
background = {
paths = (
{
closed = 1;
nodes = (
"155 467 OFFCURVE",
"215 588 OFFCURVE",
"352 588 CURVE SMOOTH",
"511 588 OFFCURVE",
"569 429 OFFCURVE",
"569 283 CURVE SMOOTH",
"569 166 OFFCURVE",
"515 35 OFFCURVE",
"376 35 CURVE SMOOTH",
"244 35 OFFCURVE",
"155 143 OFFCURVE",
"155 334 CURVE SMOOTH"
);
},
{
closed = 1;
nodes = (
"54 112 OFFCURVE",
"170 -20 OFFCURVE",
"344 -20 CURVE SMOOTH",
"547 -20 OFFCURVE",
"670 116 OFFCURVE",
"670 324 CURVE SMOOTH",
"670 499 OFFCURVE",
"558 638 OFFCURVE",
"383 638 CURVE SMOOTH",
"189 638 OFFCURVE",
"54 506 OFFCURVE",
"54 306 CURVE SMOOTH"
);
},
{
closed = 1;
nodes = (
"238 729 LINE",
"240 724 LINE",
"283 711 LINE",
"369 843 LINE",
"361 855 LINE",
"347 855 LINE SMOOTH",
"322 855 OFFCURVE",
"291 852 OFFCURVE",
"271 845 CURVE"
);
},
{
closed = 1;
nodes = (
"448 729 LINE",
"450 724 LINE",
"494 711 LINE",
"579 843 LINE",
"571 855 LINE",
"557 855 LINE SMOOTH",
"532 855 OFFCURVE",
"502 852 OFFCURVE",
"481 845 CURVE"
);
}
);
};
components = (
{
name = O;
},
{
name = hungarumlaut.cap;
transform = "{1, 0, 0, 1, 189, 0}";
}
);
layerId = "E777F328-EA17-4AE7-9EBA-8002E537BA4F";
name = Light;
width = 693;
},
{
components = (
{
name = O;
},
{
name = hungarumlaut.cap;
transform = "{1, 0, 0, 1, 215, -61}";
}
);
layerId = "AE81D269-4BA9-4AA4-8188-ACE3070EB296";
name = Bold;
width = 696;
}
);
leftKerningGroup = RoundsUC;
rightKerningGroup = RoundsUC;
unicode = 0150;
userData = {
com.typemytype.robofont.layerData = {
background = {
anchors = (
);
components = (
);
contours = (
);
lib = {
};
name = Ohungarumlaut;
unicodes = (
);
width = 756;
};
layer_01 = {
anchors = (
);
components = (
);
contours = (
);
lib = {
};
name = Ohungarumlaut;
unicodes = (
);
width = 756;
};
layer_02 = {
anchors = (
);
components = (
);
contours = (
);
lib = {
};
name = Ohungarumlaut;
unicodes = (
);
width = 756;
};
};
};
},
{
glyphname = Omacron;
lastChange = "2015-04-28 13:51:32 +0000";
layers = (
{
background = {
paths = (
{
closed = 1;
nodes = (
"155 467 OFFCURVE",
"215 588 OFFCURVE",
"352 588 CURVE SMOOTH",
"511 588 OFFCURVE",
"569 429 OFFCURVE",
"569 283 CURVE SMOOTH",
"569 166 OFFCURVE",
"515 35 OFFCURVE",
"376 35 CURVE SMOOTH",
"244 35 OFFCURVE",
"155 143 OFFCURVE",
"155 334 CURVE SMOOTH"
);
},
{
closed = 1;
nodes = (
"54 112 OFFCURVE",
"170 -20 OFFCURVE",
"344 -20 CURVE SMOOTH",
"547 -20 OFFCURVE",
"670 116 OFFCURVE",
"670 324 CURVE SMOOTH",
"670 499 OFFCURVE",
"558 638 OFFCURVE",
"383 638 CURVE SMOOTH",
"189 638 OFFCURVE",
"54 506 OFFCURVE",
"54 306 CURVE SMOOTH"
);
},
{
closed = 1;
nodes = (
"560 746 LINE",
"575 782 LINE",
"575 795 LINE",
"164 795 LINE",
"149 760 LINE",
"149 746 LINE"
);
}
);
};
components = (
{
name = O;
},
{
name = macron.cap;
transform = "{1, 0, 0, 1, 118, 0}";
}
);
layerId = "E777F328-EA17-4AE7-9EBA-8002E537BA4F";
name = Light;
width = 693;
},
{
components = (
{
name = O;
},
{
name = macron.cap;
transform = "{1, 0, 0, 1, 130, -61}";
}
);
layerId = "AE81D269-4BA9-4AA4-8188-ACE3070EB296";
name = Bold;
width = 696;
}
);
leftKerningGroup = RoundsUC;
rightKerningGroup = RoundsUC;
unicode = 014C;
userData = {
com.typemytype.robofont.layerData = {
background = {
anchors = (
);
components = (
);
contours = (
);
lib = {
};
name = Omacron;
unicodes = (
);
width = 756;
};
layer_01 = {
anchors = (
);
components = (
);
contours = (
);
lib = {
};
name = Omacron;
unicodes = (
);
width = 756;
};
layer_02 = {
anchors = (
);
components = (
);
contours = (
);
lib = {
};
name = Omacron;
unicodes = (
);
width = 756;
};
};
};
},
{
glyphname = Oslash;
lastChange = "2015-04-28 13:51:32 +0000";
layers = (
{
background = {
paths = (
{
closed = 1;
nodes = (
"676 615 LINE",
"645 640 LINE",
"574 564 LINE",
"526 610 OFFCURVE",
"461 638 OFFCURVE",
"383 638 CURVE SMOOTH",
"189 638 OFFCURVE",
"54 506 OFFCURVE",
"54 306 CURVE SMOOTH",
"54 215 OFFCURVE",
"79 138 OFFCURVE",
"124 82 CURVE",
"52 5 LINE",
"83 -21 LINE",
"151 52 LINE",
"201 6 OFFCURVE",
"266 -20 OFFCURVE",
"344 -20 CURVE SMOOTH",
"547 -20 OFFCURVE",
"670 116 OFFCURVE",
"670 324 CURVE SMOOTH",
"670 405 OFFCURVE",
"645 479 OFFCURVE",
"601 535 CURVE"
);
},
{
closed = 1;
nodes = (
"155 467 OFFCURVE",
"215 588 OFFCURVE",
"352 588 CURVE SMOOTH",
"427 588 OFFCURVE",
"480 553 OFFCURVE",
"514 500 CURVE",
"191 153 LINE",
"168 200 OFFCURVE",
"155 261 OFFCURVE",
"155 334 CURVE SMOOTH"
);
},
{
closed = 1;
nodes = (
"569 166 OFFCURVE",
"515 35 OFFCURVE",
"376 35 CURVE SMOOTH",
"308 35 OFFCURVE",
"251 64 OFFCURVE",
"212 118 CURVE",
"534 463 LINE",
"559 409 OFFCURVE",
"569 345 OFFCURVE",
"569 283 CURVE SMOOTH"
);
}
);
};
components = (
{
name = O;
}
);
layerId = "E777F328-EA17-4AE7-9EBA-8002E537BA4F";
name = Light;
paths = (
{
closed = 1;
nodes = (
"638 612 LINE",
"610 637 LINE",
"55 6 LINE",
"84 -20 LINE"
);
}
);
width = 738;
},
{
components = (
{
name = O;
}
);
guideLines = (
{
position = "{588, 681}";
},
{
position = "{588, -64}";
}
);
layerId = "AE81D269-4BA9-4AA4-8188-ACE3070EB296";
name = Bold;
paths = (
{
closed = 1;
nodes = (
"709 606 LINE",
"621 681 LINE",
"50 11 LINE",
"138 -64 LINE"
);
}
);
width = 759;
}
);
leftKerningGroup = RoundsUC;
rightKerningGroup = RoundsUC;
unicode = 00D8;
userData = {
com.typemytype.robofont.guides = (
{
angle = 90;
isGlobal = 0;
magnetic = 5;
x = 60;
y = 303;
},
{
angle = 90;
isGlobal = 0;
magnetic = 5;
x = 696;
y = 301;
}
);
com.typemytype.robofont.layerData = {
background = {
anchors = (
);
components = (
);
contours = (
);
lib = {
};
name = Oslash;
unicodes = (
);
width = 805;
};
layer_01 = {
anchors = (
);
components = (
);
contours = (
);
lib = {
};
name = Oslash;
unicodes = (
);
width = 805;
};
layer_02 = {
anchors = (
);
components = (
);
contours = (
);
lib = {
};
name = Oslash;
unicodes = (
);
width = 805;
};
};
};
},
{
glyphname = Otilde;
lastChange = "2015-04-28 13:51:32 +0000";
layers = (
{
background = {
paths = (
{
closed = 1;
nodes = (
"155 467 OFFCURVE",
"215 588 OFFCURVE",
"352 588 CURVE SMOOTH",
"511 588 OFFCURVE",
"569 429 OFFCURVE",
"569 283 CURVE SMOOTH",
"569 166 OFFCURVE",
"515 35 OFFCURVE",
"376 35 CURVE SMOOTH",
"244 35 OFFCURVE",
"155 143 OFFCURVE",
"155 334 CURVE SMOOTH"
);
},
{
closed = 1;
nodes = (
"54 112 OFFCURVE",
"170 -20 OFFCURVE",
"344 -20 CURVE SMOOTH",
"547 -20 OFFCURVE",
"670 116 OFFCURVE",
"670 324 CURVE SMOOTH",
"670 499 OFFCURVE",
"558 638 OFFCURVE",
"383 638 CURVE SMOOTH",
"189 638 OFFCURVE",
"54 506 OFFCURVE",
"54 306 CURVE SMOOTH"
);
},
{
closed = 1;
nodes = (
"491 709 OFFCURVE",
"544 784 OFFCURVE",
"576 826 CURVE",
"551 848 LINE",
"526 819 OFFCURVE",
"480 777 OFFCURVE",
"447 777 CURVE SMOOTH",
"409 777 OFFCURVE",
"333 838 OFFCURVE",
"300 838 CURVE SMOOTH",
"243 838 OFFCURVE",
"190 770 OFFCURVE",
"158 732 CURVE",
"183 709 LINE",
"209 735 OFFCURVE",
"255 770 OFFCURVE",
"287 770 CURVE SMOOTH",
"323 770 OFFCURVE",
"392 709 OFFCURVE",
"435 709 CURVE SMOOTH"
);
}
);
};
components = (
{
name = O;
},
{
name = tilde.cap;
transform = "{1, 0, 0, 1, 118, 0}";
}
);
layerId = "E777F328-EA17-4AE7-9EBA-8002E537BA4F";
name = Light;
width = 693;
},
{
components = (
{
name = O;
},
{
name = tilde.cap;
transform = "{1, 0, 0, 1, 130, -61}";
}
);
layerId = "AE81D269-4BA9-4AA4-8188-ACE3070EB296";
name = Bold;
width = 696;
}
);
leftKerningGroup = RoundsUC;
rightKerningGroup = RoundsUC;
unicode = 00D5;
userData = {
com.typemytype.robofont.layerData = {
background = {
anchors = (
);
components = (
);
contours = (
);
lib = {
};
name = Otilde;
unicodes = (
);
width = 756;
};
layer_01 = {
anchors = (
);
components = (
);
contours = (
);
lib = {
};
name = Otilde;
unicodes = (
);
width = 756;
};
layer_02 = {
anchors = (
);
components = (
);
contours = (
);
lib = {
};
name = Otilde;
unicodes = (
);
width = 756;
};
};
};
},
{
glyphname = OE;
lastChange = "2015-04-28 13:51:32 +0000";
layers = (
{
background = {
paths = (
{
closed = 1;
nodes = (
"400 41 LINE SMOOTH",
"223 41 OFFCURVE",
"149 151 OFFCURVE",
"149 309 CURVE SMOOTH",
"149 456 OFFCURVE",
"233 582 OFFCURVE",
"404 582 CURVE SMOOTH",
"484 582 LINE",
"484 41 LINE"
);
},
{
closed = 1;
nodes = (
"822 626 LINE",
"420 626 LINE SMOOTH",
"175 626 OFFCURVE",
"43 494 OFFCURVE",
"43 269 CURVE SMOOTH",
"43 97 OFFCURVE",
"168 0 OFFCURVE",
"389 0 CURVE SMOOTH",
"849 0 LINE",
"869 150 LINE",
"847 150 LINE",
"748 41 LINE",
"563 41 LINE",
"563 308 LINE",
"697 308 LINE",
"745 225 LINE",
"768 230 LINE",
"783 392 LINE",
"765 398 LINE",
"712 354 LINE",
"563 354 LINE",
"563 585 LINE",
"740 585 LINE",
"814 480 LINE",
"837 486 LINE"
);
}
);
};
layerId = "E777F328-EA17-4AE7-9EBA-8002E537BA4F";
name = Light;
paths = (
{
closed = 1;
nodes = (
"522 0 LINE",
"522 42 LINE",
"347 42 LINE",
"191 42 OFFCURVE",
"106 151 OFFCURVE",
"106 312 CURVE",
"106 475 OFFCURVE",
"191 581 OFFCURVE",
"347 581 CURVE",
"522 581 LINE",
"522 624 LINE",
"347 624 LINE",
"154 624 OFFCURVE",
"55 491 OFFCURVE",
"55 311 CURVE",
"55 136 OFFCURVE",
"154 0 OFFCURVE",
"347 0 CURVE"
);
},
{
closed = 1;
nodes = (
"863 0 LINE",
"863 42 LINE",
"524 42 LINE",
"524 0 LINE"
);
},
{
closed = 1;
nodes = (
"548 0 LINE",
"548 624 LINE",
"497 624 LINE",
"497 0 LINE"
);
},
{
closed = 1;
nodes = (
"808 309 LINE",
"808 351 LINE",
"524 351 LINE",
"524 309 LINE"
);
},
{
closed = 1;
nodes = (
"845 581 LINE",
"845 624 LINE",
"524 624 LINE",
"524 581 LINE"
);
}
);
width = 918;
},
{
layerId = "AE81D269-4BA9-4AA4-8188-ACE3070EB296";
name = Bold;
paths = (
{
closed = 1;
nodes = (
"547 0 LINE",
"547 116 LINE",
"371 116 LINE",
"266 116 OFFCURVE",
"206 197 OFFCURVE",
"206 312 CURVE",
"206 428 OFFCURVE",
"266 507 OFFCURVE",
"371 507 CURVE",
"547 507 LINE",
"547 624 LINE",
"371 624 LINE",
"155 624 OFFCURVE",
"41 491 OFFCURVE",
"41 311 CURVE",
"41 136 OFFCURVE",
"155 0 OFFCURVE",
"371 0 CURVE"
);
},
{
closed = 1;
nodes = (
"888 0 LINE",
"888 115 LINE",
"548 115 LINE",
"548 0 LINE"
);
},
{
closed = 1;
nodes = (
"630 0 LINE",
"630 624 LINE",
"465 624 LINE",
"465 0 LINE"
);
},
{
closed = 1;
nodes = (
"833 272 LINE",
"833 387 LINE",
"548 387 LINE",
"548 272 LINE"
);
},
{
closed = 1;
nodes = (
"869 509 LINE",
"869 624 LINE",
"548 624 LINE",
"548 509 LINE"
);
}
);
width = 934;
}
);
leftKerningGroup = RoundsUC;
rightKerningGroup = E;
unicode = 0152;
userData = {
com.typemytype.robofont.layerData = {
background = {
anchors = (
);
components = (
);
contours = (
);
lib = {
};
name = OE;
unicodes = (
);
width = 1001;
};
layer_01 = {
anchors = (
);
components = (
);
contours = (
);
lib = {
};
name = OE;
unicodes = (
);
width = 1001;
};
layer_02 = {
anchors = (
);
components = (
);
contours = (
);
lib = {
};
name = OE;
unicodes = (
);
width = 1001;
};
};
};
},
{
glyphname = P;
lastChange = "2015-04-28 13:51:32 +0000";
layers = (
{
background = {
paths = (
{
closed = 1;
nodes = (
"151 626 OFFCURVE",
"95 626 OFFCURVE",
"44 626 CURVE",
"44 605 LINE",
"143 571 LINE",
"143 55 LINE",
"44 21 LINE",
"44 0 LINE",
"328 0 LINE",
"328 29 LINE",
"230 48 LINE",
"230 276 LINE",
"250 274 OFFCURVE",
"280 273 OFFCURVE",
"310 273 CURVE SMOOTH",
"471 273 OFFCURVE",
"559 379 OFFCURVE",
"559 464 CURVE SMOOTH",
"559 598 OFFCURVE",
"456 633 OFFCURVE",
"307 633 CURVE SMOOTH",
"274 633 OFFCURVE",
"237 631 OFFCURVE",
"196 629 CURVE SMOOTH"
);
},
{
closed = 1;
nodes = (
"230 584 LINE",
"241 586 OFFCURVE",
"278 588 OFFCURVE",
"297 588 CURVE SMOOTH",
"404 588 OFFCURVE",
"453 527 OFFCURVE",
"453 445 CURVE SMOOTH",
"453 380 OFFCURVE",
"404 316 OFFCURVE",
"297 316 CURVE SMOOTH",
"280 316 OFFCURVE",
"251 317 OFFCURVE",
"230 320 CURVE"
);
}
);
};
layerId = "E777F328-EA17-4AE7-9EBA-8002E537BA4F";
name = Light;
paths = (
{
closed = 1;
nodes = (
"303 275 LINE",
"441 275 OFFCURVE",
"512 348 OFFCURVE",
"512 450 CURVE",
"512 547 OFFCURVE",
"441 624 OFFCURVE",
"303 624 CURVE",
"137 624 LINE",
"137 581 LINE",
"303 581 LINE",
"404 581 OFFCURVE",
"460 528 OFFCURVE",
"460 449 CURVE",
"460 361 OFFCURVE",
"404 317 OFFCURVE",
"303 317 CURVE",
"137 317 LINE",
"137 275 LINE"
);
},
{
closed = 1;
nodes = (
"161 0 LINE",
"161 624 LINE",
"110 624 LINE",
"110 0 LINE"
);
}
);
width = 539;
},
{
layerId = "AE81D269-4BA9-4AA4-8188-ACE3070EB296";
name = Bold;
paths = (
{
closed = 1;
nodes = (
"341 211 LINE SMOOTH",
"521 211 OFFCURVE",
"598 275 OFFCURVE",
"598 417 CURVE SMOOTH",
"598 559 OFFCURVE",
"521 624 OFFCURVE",
"341 624 CURVE SMOOTH",
"166 624 LINE",
"166 509 LINE",
"341 509 LINE SMOOTH",
"407 509 OFFCURVE",
"433 481 OFFCURVE",
"433 417 CURVE SMOOTH",
"433 354 OFFCURVE",
"407 326 OFFCURVE",
"341 326 CURVE SMOOTH",
"166 326 LINE",
"166 211 LINE"
);
},
{
closed = 1;
nodes = (
"248 0 LINE",
"248 624 LINE",
"83 624 LINE",
"83 0 LINE"
);
}
);
width = 625;
}
);
leftKerningGroup = StraightsUC;
rightKerningGroup = P;
unicode = 0050;
userData = {
com.typemytype.robofont.layerData = {
background = {
anchors = (
);
components = (
);
contours = (
{
points = (
{
segmentType = curve;
smooth = 1;
x = 289;
y = 295;
},
{
smooth = 0;
x = 464;
y = 295;
},
{
smooth = 0;
x = 569;
y = 402;
},
{
segmentType = curve;
smooth = 1;
x = 569;
y = 506;
},
{
smooth = 0;
x = 569;
y = 651;
},
{
smooth = 0;
x = 454;
y = 688;
},
{
segmentType = curve;
smooth = 1;
x = 289;
y = 688;
},
{
smooth = 0;
x = 252;
y = 688;
},
{
smooth = 0;
x = 200;
y = 685;
},
{
segmentType = curve;
smooth = 1;
x = 156;
y = 683;
},
{
smooth = 0;
x = 107;
y = 681;
},
{
smooth = 0;
x = 46;
y = 680;
},
{
segmentType = curve;
smooth = 0;
x = "-13";
y = 680;
},
{
segmentType = line;
smooth = 0;
x = "-13";
y = 649;
},
{
segmentType = line;
smooth = 0;
x = 91;
y = 610;
},
{
segmentType = line;
smooth = 0;
x = 91;
y = 70;
},
{
segmentType = line;
smooth = 0;
x = "-13";
y = 31;
},
{
segmentType = line;
smooth = 0;
x = "-13";
y = 0;
},
{
segmentType = line;
smooth = 0;
x = 309;
y = 0;
},
{
segmentType = line;
smooth = 0;
x = 309;
y = 38;
},
{
segmentType = line;
smooth = 0;
x = 206;
y = 57;
},
{
segmentType = line;
smooth = 0;
x = 206;
y = 298;
},
{
smooth = 0;
x = 227;
y = 296;
},
{
smooth = 0;
x = 257;
y = 295;
}
);
},
{
points = (
{
segmentType = line;
smooth = 0;
x = 206;
y = 638;
},
{
smooth = 0;
x = 218;
y = 640;
},
{
smooth = 0;
x = 254;
y = 642;
},
{
segmentType = curve;
smooth = 1;
x = 275;
y = 642;
},
{
smooth = 0;
x = 384;
y = 642;
},
{
smooth = 0;
x = 434;
y = 571;
},
{
segmentType = curve;
smooth = 1;
x = 434;
y = 482;
},
{
smooth = 0;
x = 434;
y = 411;
},
{
smooth = 0;
x = 384;
y = 340;
},
{
segmentType = curve;
smooth = 1;
x = 275;
y = 340;
},
{
smooth = 0;
x = 257;
y = 340;
},
{
smooth = 0;
x = 228;
y = 341;
},
{
segmentType = curve;
smooth = 0;
x = 206;
y = 344;
}
);
}
);
lib = {
};
name = P;
unicodes = (
);
width = 588;
};
layer_01 = {
anchors = (
);
components = (
);
contours = (
);
lib = {
};
name = P;
unicodes = (
);
width = 588;
};
layer_02 = {
anchors = (
);
components = (
);
contours = (
);
lib = {
};
name = P;
unicodes = (
);
width = 588;
};
};
};
},
{
glyphname = Thorn;
lastChange = "2015-04-28 13:51:32 +0000";
layers = (
{
background = {
paths = (
{
closed = 1;
nodes = (
"230 169 LINE",
"250 167 OFFCURVE",
"280 166 OFFCURVE",
"310 166 CURVE SMOOTH",
"456 166 OFFCURVE",
"546 271 OFFCURVE",
"546 339 CURVE SMOOTH",
"546 454 OFFCURVE",
"436 488 OFFCURVE",
"307 488 CURVE SMOOTH",
"283 488 OFFCURVE",
"258 487 OFFCURVE",
"230 486 CURVE",
"230 580 LINE",
"328 597 LINE",
"328 626 LINE",
"44 626 LINE",
"44 605 LINE",
"143 571 LINE",
"143 55 LINE",
"44 21 LINE",
"44 0 LINE",
"328 0 LINE",
"328 29 LINE",
"230 48 LINE"
);
},
{
closed = 1;
nodes = (
"230 439 LINE",
"241 441 OFFCURVE",
"278 443 OFFCURVE",
"297 443 CURVE SMOOTH",
"397 443 OFFCURVE",
"440 391 OFFCURVE",
"440 320 CURVE SMOOTH",
"440 263 OFFCURVE",
"395 209 OFFCURVE",
"297 209 CURVE SMOOTH",
"280 209 OFFCURVE",
"251 210 OFFCURVE",
"230 213 CURVE"
);
}
);
};
layerId = "E777F328-EA17-4AE7-9EBA-8002E537BA4F";
name = Light;
paths = (
{
closed = 1;
nodes = (
"303 147 LINE",
"441 147 OFFCURVE",
"512 219 OFFCURVE",
"512 322 CURVE",
"512 419 OFFCURVE",
"441 495 OFFCURVE",
"303 495 CURVE",
"137 495 LINE",
"137 453 LINE",
"303 453 LINE",
"404 453 OFFCURVE",
"460 400 OFFCURVE",
"460 321 CURVE",
"460 233 OFFCURVE",
"404 189 OFFCURVE",
"303 189 CURVE",
"137 189 LINE",
"137 147 LINE"
);
},
{
closed = 1;
nodes = (
"161 0 LINE",
"161 624 LINE",
"110 624 LINE",
"110 0 LINE"
);
}
);
width = 588;
},
{
layerId = "AE81D269-4BA9-4AA4-8188-ACE3070EB296";
name = Bold;
paths = (
{
closed = 1;
nodes = (
"341 115 LINE SMOOTH",
"521 115 OFFCURVE",
"598 179 OFFCURVE",
"598 321 CURVE SMOOTH",
"598 463 OFFCURVE",
"521 527 OFFCURVE",
"341 527 CURVE SMOOTH",
"166 527 LINE",
"166 413 LINE",
"341 413 LINE SMOOTH",
"407 413 OFFCURVE",
"433 385 OFFCURVE",
"433 321 CURVE SMOOTH",
"433 258 OFFCURVE",
"407 230 OFFCURVE",
"341 229 CURVE SMOOTH",
"166 229 LINE",
"166 115 LINE"
);
},
{
closed = 1;
nodes = (
"248 0 LINE",
"248 624 LINE",
"83 624 LINE",
"83 0 LINE"
);
}
);
width = 646;
}
);
leftKerningGroup = StraightsUC;
rightKerningGroup = Thorn;
unicode = 00DE;
userData = {
com.typemytype.robofont.layerData = {
background = {
anchors = (
);
components = (
);
contours = (
{
points = (
{
segmentType = line;
smooth = 0;
x = 264;
y = 623;
},
{
segmentType = line;
smooth = 0;
x = 367;
y = 642;
},
{
segmentType = line;
smooth = 0;
x = 367;
y = 680;
},
{
segmentType = line;
smooth = 0;
x = 45;
y = 680;
},
{
segmentType = line;
smooth = 0;
x = 45;
y = 649;
},
{
segmentType = line;
smooth = 0;
x = 149;
y = 610;
},
{
segmentType = line;
smooth = 0;
x = 149;
y = 70;
},
{
segmentType = line;
smooth = 0;
x = 45;
y = 31;
},
{
segmentType = line;
smooth = 0;
x = 45;
y = 0;
},
{
segmentType = line;
smooth = 0;
x = 367;
y = 0;
},
{
segmentType = line;
smooth = 0;
x = 367;
y = 38;
},
{
segmentType = line;
smooth = 0;
x = 264;
y = 57;
},
{
segmentType = line;
smooth = 0;
x = 264;
y = 180;
},
{
smooth = 0;
x = 285;
y = 179;
},
{
smooth = 0;
x = 315;
y = 178;
},
{
segmentType = curve;
smooth = 1;
x = 347;
y = 178;
},
{
smooth = 0;
x = 508;
y = 178;
},
{
smooth = 0;
x = 613;
y = 285;
},
{
segmentType = curve;
smooth = 1;
x = 613;
y = 370;
},
{
smooth = 0;
x = 613;
y = 496;
},
{
smooth = 0;
x = 493;
y = 533;
},
{
segmentType = curve;
smooth = 1;
x = 347;
y = 533;
},
{
smooth = 0;
x = 323;
y = 533;
},
{
smooth = 0;
x = 293;
y = 531;
},
{
segmentType = curve;
smooth = 0;
x = 264;
y = 530;
}
);
},
{
points = (
{
segmentType = line;
smooth = 0;
x = 264;
y = 483;
},
{
smooth = 0;
x = 276;
y = 485;
},
{
smooth = 0;
x = 312;
y = 487;
},
{
segmentType = curve;
smooth = 1;
x = 333;
y = 487;
},
{
smooth = 0;
x = 433;
y = 487;
},
{
smooth = 0;
x = 473;
y = 426;
},
{
segmentType = curve;
smooth = 1;
x = 473;
y = 346;
},
{
smooth = 0;
x = 473;
y = 284;
},
{
smooth = 0;
x = 433;
y = 223;
},
{
segmentType = curve;
smooth = 1;
x = 333;
y = 223;
},
{
smooth = 0;
x = 315;
y = 223;
},
{
smooth = 0;
x = 286;
y = 224;
},
{
segmentType = curve;
smooth = 0;
x = 264;
y = 227;
}
);
}
);
lib = {
};
name = Thorn;
unicodes = (
);
width = 641;
};
layer_01 = {
anchors = (
);
components = (
);
contours = (
);
lib = {
};
name = Thorn;
unicodes = (
);
width = 641;
};
layer_02 = {
anchors = (
);
components = (
);
contours = (
);
lib = {
};
name = Thorn;
unicodes = (
);
width = 641;
};
};
};
},
{
glyphname = Q;
lastChange = "2015-04-28 14:20:16 +0000";
layers = (
{
background = {
paths = (
{
closed = 1;
nodes = (
"54 112 OFFCURVE",
"170 -20 OFFCURVE",
"344 -20 CURVE SMOOTH",
"365 -20 OFFCURVE",
"385 -18 OFFCURVE",
"404 -15 CURVE",
"494 -136 OFFCURVE",
"609 -270 OFFCURVE",
"760 -270 CURVE SMOOTH",
"801 -270 OFFCURVE",
"855 -242 OFFCURVE",
"888 -216 CURVE",
"873 -183 LINE",
"846 -198 OFFCURVE",
"819 -202 OFFCURVE",
"803 -202 CURVE SMOOTH",
"676 -202 OFFCURVE",
"582 -86 OFFCURVE",
"501 14 CURVE",
"609 66 OFFCURVE",
"670 177 OFFCURVE",
"670 324 CURVE SMOOTH",
"670 499 OFFCURVE",
"558 638 OFFCURVE",
"383 638 CURVE SMOOTH",
"189 638 OFFCURVE",
"54 506 OFFCURVE",
"54 306 CURVE SMOOTH"
);
},
{
closed = 1;
nodes = (
"155 467 OFFCURVE",
"215 588 OFFCURVE",
"352 588 CURVE SMOOTH",
"511 588 OFFCURVE",
"569 429 OFFCURVE",
"569 283 CURVE SMOOTH",
"569 166 OFFCURVE",
"515 35 OFFCURVE",
"376 35 CURVE SMOOTH",
"244 35 OFFCURVE",
"155 143 OFFCURVE",
"155 334 CURVE SMOOTH"
);
},
{
closed = 1;
nodes = (
"701 -219 OFFCURVE",
"731 -206 OFFCURVE",
"763 -180 CURVE",
"748 -141 LINE",
"727 -159 OFFCURVE",
"701 -171 OFFCURVE",
"671 -171 CURVE SMOOTH",
"635 -171 OFFCURVE",
"596 -144 OFFCURVE",
"552 -93 CURVE SMOOTH",
"444 35 LINE",
"397 12 LINE",
"514 -127 LINE SMOOTH",
"564 -186 OFFCURVE",
"615 -219 OFFCURVE",
"667 -219 CURVE SMOOTH"
);
}
);
};
layerId = "E777F328-EA17-4AE7-9EBA-8002E537BA4F";
name = Light;
paths = (
{
closed = 1;
nodes = (
"539 -16 OFFCURVE",
"638 134 OFFCURVE",
"638 312 CURVE",
"638 486 OFFCURVE",
"539 636 OFFCURVE",
"347 636 CURVE",
"153 636 OFFCURVE",
"55 486 OFFCURVE",
"55 310 CURVE",
"55 134 OFFCURVE",
"153 -16 OFFCURVE",
"347 -16 CURVE"
);
},
{
closed = 1;
nodes = (
"747 -273 OFFCURVE",
"777 -260 OFFCURVE",
"809 -234 CURVE",
"794 -195 LINE",
"773 -213 OFFCURVE",
"747 -225 OFFCURVE",
"717 -225 CURVE SMOOTH",
"681 -225 OFFCURVE",
"641 -198 OFFCURVE",
"598 -147 CURVE SMOOTH",
"444 35 LINE",
"397 12 LINE",
"560 -181 LINE SMOOTH",
"610 -240 OFFCURVE",
"661 -273 OFFCURVE",
"713 -273 CURVE SMOOTH"
);
},
{
closed = 1;
nodes = (
"191 28 OFFCURVE",
"106 149 OFFCURVE",
"106 311 CURVE",
"106 470 OFFCURVE",
"191 593 OFFCURVE",
"347 593 CURVE",
"503 593 OFFCURVE",
"587 470 OFFCURVE",
"587 311 CURVE",
"587 149 OFFCURVE",
"503 28 OFFCURVE",
"347 28 CURVE"
);
}
);
width = 693;
},
{
background = {
paths = (
{
closed = 1;
nodes = (
"602 -11 OFFCURVE",
"718 137 OFFCURVE",
"718 312 CURVE SMOOTH",
"718 485 OFFCURVE",
"602 634 OFFCURVE",
"380 634 CURVE SMOOTH",
"157 634 OFFCURVE",
"41 486 OFFCURVE",
"41 312 CURVE SMOOTH",
"41 138 OFFCURVE",
"157 -11 OFFCURVE",
"380 -11 CURVE SMOOTH"
);
},
{
closed = 1;
nodes = (
"765 -219 OFFCURVE",
"805 -207 OFFCURVE",
"853 -180 CURVE",
"838 -68 LINE",
"803 -87 OFFCURVE",
"766 -98 OFFCURVE",
"723 -98 CURVE SMOOTH",
"679 -98 OFFCURVE",
"634 -83 OFFCURVE",
"581 -20 CURVE SMOOTH",
"505 69 LINE",
"373 12 LINE",
"490 -127 LINE SMOOTH",
"548 -196 OFFCURVE",
"624 -219 OFFCURVE",
"718 -219 CURVE SMOOTH"
);
},
{
closed = 1;
nodes = (
"269 107 OFFCURVE",
"206 196 OFFCURVE",
"206 312 CURVE SMOOTH",
"206 427 OFFCURVE",
"269 515 OFFCURVE",
"380 515 CURVE SMOOTH",
"491 515 OFFCURVE",
"553 427 OFFCURVE",
"553 312 CURVE SMOOTH",
"553 196 OFFCURVE",
"491 107 OFFCURVE",
"380 107 CURVE SMOOTH"
);
}
);
};
layerId = "AE81D269-4BA9-4AA4-8188-ACE3070EB296";
name = Bold;
paths = (
{
closed = 1;
nodes = (
"602 -11 OFFCURVE",
"718 137 OFFCURVE",
"718 312 CURVE SMOOTH",
"718 485 OFFCURVE",
"602 634 OFFCURVE",
"380 634 CURVE SMOOTH",
"157 634 OFFCURVE",
"41 486 OFFCURVE",
"41 312 CURVE SMOOTH",
"41 138 OFFCURVE",
"157 -11 OFFCURVE",
"380 -11 CURVE SMOOTH"
);
},
{
closed = 1;
nodes = (
"808 -270 OFFCURVE",
"848 -258 OFFCURVE",
"896 -231 CURVE",
"881 -119 LINE",
"846 -138 OFFCURVE",
"809 -149 OFFCURVE",
"766 -149 CURVE SMOOTH",
"722 -149 OFFCURVE",
"678 -134 OFFCURVE",
"624 -71 CURVE SMOOTH",
"505 69 LINE",
"373 12 LINE",
"533 -178 LINE SMOOTH",
"591 -247 OFFCURVE",
"667 -270 OFFCURVE",
"761 -270 CURVE SMOOTH"
);
},
{
closed = 1;
nodes = (
"269 107 OFFCURVE",
"206 196 OFFCURVE",
"206 312 CURVE SMOOTH",
"206 427 OFFCURVE",
"269 515 OFFCURVE",
"380 515 CURVE SMOOTH",
"491 515 OFFCURVE",
"553 427 OFFCURVE",
"553 312 CURVE SMOOTH",
"553 196 OFFCURVE",
"491 107 OFFCURVE",
"380 107 CURVE SMOOTH"
);
}
);
width = 759;
}
);
leftKerningGroup = RoundsUC;
rightKerningGroup = Q;
unicode = 0051;
userData = {
com.typemytype.robofont.layerData = {
background = {
anchors = (
);
components = (
);
contours = (
{
points = (
{
segmentType = curve;
smooth = 1;
x = 37;
y = 332;
},
{
smooth = 0;
x = 37;
y = 121;
},
{
smooth = 0;
x = 183;
y = "-22";
},
{
segmentType = curve;
smooth = 1;
x = 361;
y = "-22";
},
{
smooth = 0;
x = 380;
y = "-22";
},
{
smooth = 0;
x = 398;
y = "-21";
},
{
segmentType = curve;
smooth = 0;
x = 416;
y = "-18";
},
{
smooth = 0;
x = 444;
y = "-55";
},
{
smooth = 0;
x = 470;
y = "-89";
},
{
segmentType = curve;
smooth = 1;
x = 499;
y = "-123";
},
{
smooth = 0;
x = 553;
y = "-187";
},
{
smooth = 0;
x = 633;
y = "-239";
},
{
segmentType = curve;
smooth = 1;
x = 720;
y = "-239";
},
{
smooth = 0;
x = 766;
y = "-239";
},
{
smooth = 0;
x = 827;
y = "-207";
},
{
segmentType = curve;
smooth = 0;
x = 863;
y = "-179";
},
{
segmentType = line;
smooth = 0;
x = 849;
y = "-147";
},
{
smooth = 0;
x = 821;
y = "-159";
},
{
smooth = 0;
x = 798;
y = "-165";
},
{
segmentType = curve;
smooth = 1;
x = 781;
y = "-165";
},
{
smooth = 0;
x = 693;
y = "-165";
},
{
smooth = 0;
x = 636;
y = "-97";
},
{
segmentType = curve;
smooth = 1;
x = 587;
y = "-44";
},
{
segmentType = line;
smooth = 0;
x = 534;
y = 17;
},
{
smooth = 0;
x = 652;
y = 75;
},
{
smooth = 0;
x = 728;
y = 195;
},
{
segmentType = curve;
smooth = 1;
x = 728;
y = 354;
},
{
smooth = 0;
x = 728;
y = 558;
},
{
smooth = 0;
x = 582;
y = 695;
},
{
segmentType = curve;
smooth = 1;
x = 405;
y = 695;
},
{
smooth = 0;
x = 210;
y = 695;
},
{
smooth = 0;
x = 37;
y = 564;
}
);
},
{
points = (
{
segmentType = curve;
smooth = 1;
x = 172;
y = 364;
},
{
smooth = 0;
x = 172;
y = 517;
},
{
smooth = 0;
x = 240;
y = 642;
},
{
segmentType = curve;
smooth = 1;
x = 371;
y = 642;
},
{
smooth = 0;
x = 548;
y = 642;
},
{
smooth = 0;
x = 593;
y = 502;
},
{
segmentType = curve;
smooth = 1;
x = 593;
y = 309;
},
{
smooth = 0;
x = 593;
y = 174;
},
{
smooth = 0;
x = 540;
y = 35;
},
{
segmentType = curve;
smooth = 1;
x = 397;
y = 35;
},
{
smooth = 0;
x = 261;
y = 35;
},
{
smooth = 0;
x = 172;
y = 140;
}
);
}
);
lib = {
};
name = Q;
unicodes = (
);
width = 756;
};
layer_01 = {
anchors = (
);
components = (
);
contours = (
);
lib = {
};
name = Q;
unicodes = (
);
width = 756;
};
layer_02 = {
anchors = (
);
components = (
);
contours = (
);
lib = {
};
name = Q;
unicodes = (
);
width = 756;
};
};
};
},
{
glyphname = R;
lastChange = "2015-04-28 13:51:32 +0000";
layers = (
{
anchors = (
{
name = bottom;
position = "{301, -9}";
},
{
name = top;
position = "{273, 669}";
}
);
background = {
paths = (
{
closed = 1;
nodes = (
"230 584 LINE",
"241 586 OFFCURVE",
"278 588 OFFCURVE",
"297 588 CURVE SMOOTH",
"404 588 OFFCURVE",
"453 530 OFFCURVE",
"453 454 CURVE SMOOTH",
"453 380 OFFCURVE",
"413 339 OFFCURVE",
"276 339 CURVE SMOOTH",
"230 339 LINE"
);
},
{
closed = 1;
nodes = (
"317 295 LINE",
"517 0 LINE",
"690 0 LINE",
"690 29 LINE",
"609 48 LINE",
"534 130 OFFCURVE",
"458 235 OFFCURVE",
"406 312 CURVE",
"483 336 OFFCURVE",
"559 391 OFFCURVE",
"559 468 CURVE SMOOTH",
"559 598 OFFCURVE",
"456 633 OFFCURVE",
"307 633 CURVE SMOOTH",
"274 633 OFFCURVE",
"237 631 OFFCURVE",
"196 629 CURVE SMOOTH",
"151 626 OFFCURVE",
"95 626 OFFCURVE",
"44 626 CURVE",
"44 605 LINE",
"143 571 LINE",
"143 55 LINE",
"44 21 LINE",
"44 0 LINE",
"328 0 LINE",
"328 29 LINE",
"230 48 LINE",
"230 295 LINE"
);
}
);
};
layerId = "E777F328-EA17-4AE7-9EBA-8002E537BA4F";
name = Light;
paths = (
{
closed = 1;
nodes = (
"303 293 LINE",
"309 296 LINE",
"436 298 OFFCURVE",
"503 364 OFFCURVE",
"503 459 CURVE",
"503 551 OFFCURVE",
"435 624 OFFCURVE",
"303 624 CURVE",
"137 624 LINE",
"137 581 LINE",
"303 581 LINE",
"399 581 OFFCURVE",
"451 532 OFFCURVE",
"451 459 CURVE",
"451 376 OFFCURVE",
"399 336 OFFCURVE",
"303 336 CURVE",
"137 336 LINE",
"137 293 LINE"
);
},
{
closed = 1;
nodes = (
"161 0 LINE",
"161 624 LINE",
"110 624 LINE",
"110 0 LINE"
);
},
{
closed = 1;
nodes = (
"556 0 LINE",
"329 311 LINE",
"271 311 LINE",
"497 0 LINE"
);
}
);
width = 602;
},
{
anchors = (
{
name = bottom;
position = "{347, -9}";
},
{
name = top;
position = "{319, 669}";
}
);
background = {
paths = (
{
closed = 1;
nodes = (
"348 293 LINE",
"355 296 LINE",
"482 298 OFFCURVE",
"548 364 OFFCURVE",
"548 459 CURVE",
"548 551 OFFCURVE",
"481 624 OFFCURVE",
"348 624 CURVE",
"182 624 LINE",
"182 581 LINE",
"348 581 LINE",
"445 581 OFFCURVE",
"497 532 OFFCURVE",
"497 459 CURVE",
"497 376 OFFCURVE",
"445 336 OFFCURVE",
"348 336 CURVE",
"182 336 LINE",
"182 293 LINE"
);
},
{
closed = 1;
nodes = (
"207 0 LINE",
"207 624 LINE",
"156 624 LINE",
"156 0 LINE"
);
},
{
closed = 1;
nodes = (
"602 0 LINE",
"375 311 LINE",
"316 311 LINE",
"543 0 LINE"
);
},
{
closed = 1;
nodes = (
"671 0 LINE",
"240 653 LINE SMOOTH",
"69 653 LINE",
"481 0 LINE"
);
}
);
};
layerId = "AE81D269-4BA9-4AA4-8188-ACE3070EB296";
name = Bold;
paths = (
{
closed = 1;
nodes = (
"349 229 LINE",
"362 241 LINE",
"512 241 OFFCURVE",
"589 302 OFFCURVE",
"589 436 CURVE SMOOTH",
"589 565 OFFCURVE",
"512 624 OFFCURVE",
"332 624 CURVE SMOOTH",
"166 624 LINE",
"166 509 LINE",
"332 509 LINE SMOOTH",
"398 509 OFFCURVE",
"424 484 OFFCURVE",
"424 426 CURVE SMOOTH",
"424 370 OFFCURVE",
"398 344 OFFCURVE",
"332 344 CURVE SMOOTH",
"166 344 LINE",
"166 229 LINE"
);
},
{
closed = 1;
nodes = (
"248 0 LINE",
"248 624 LINE",
"83 624 LINE",
"83 0 LINE"
);
},
{
closed = 1;
nodes = (
"671 0 LINE",
"466 311 LINE SMOOTH",
"284 311 LINE",
"481 0 LINE"
);
}
);
width = 680;
}
);
leftKerningGroup = StraightsUC;
rightKerningGroup = R;
unicode = 0052;
userData = {
com.typemytype.robofont.layerData = {
background = {
anchors = (
);
components = (
);
contours = (
{
points = (
{
segmentType = line;
smooth = 0;
x = 206;
y = 318;
},
{
segmentType = line;
smooth = 0;
x = 291;
y = 318;
},
{
segmentType = line;
smooth = 0;
x = 504;
y = 0;
},
{
segmentType = line;
smooth = 0;
x = 699;
y = 0;
},
{
segmentType = line;
smooth = 0;
x = 699;
y = 38;
},
{
segmentType = line;
smooth = 0;
x = 618;
y = 57;
},
{
smooth = 0;
x = 582;
y = 98;
},
{
smooth = 0;
x = 529;
y = 167;
},
{
segmentType = curve;
smooth = 1;
x = 496;
y = 213;
},
{
smooth = 0;
x = 465;
y = 254;
},
{
smooth = 0;
x = 431;
y = 304;
},
{
segmentType = curve;
smooth = 0;
x = 407;
y = 340;
},
{
smooth = 0;
x = 490;
y = 368;
},
{
smooth = 0;
x = 569;
y = 426;
},
{
segmentType = curve;
smooth = 1;
x = 569;
y = 511;
},
{
smooth = 0;
x = 569;
y = 651;
},
{
smooth = 0;
x = 454;
y = 688;
},
{
segmentType = curve;
smooth = 1;
x = 289;
y = 688;
},
{
smooth = 0;
x = 252;
y = 688;
},
{
smooth = 0;
x = 200;
y = 685;
},
{
segmentType = curve;
smooth = 1;
x = 156;
y = 683;
},
{
smooth = 0;
x = 107;
y = 681;
},
{
smooth = 0;
x = 46;
y = 680;
},
{
segmentType = curve;
smooth = 0;
x = "-13";
y = 680;
},
{
segmentType = line;
smooth = 0;
x = "-13";
y = 649;
},
{
segmentType = line;
smooth = 0;
x = 91;
y = 610;
},
{
segmentType = line;
smooth = 0;
x = 91;
y = 70;
},
{
segmentType = line;
smooth = 0;
x = "-13";
y = 31;
},
{
segmentType = line;
smooth = 0;
x = "-13";
y = 0;
},
{
segmentType = line;
smooth = 0;
x = 309;
y = 0;
},
{
segmentType = line;
smooth = 0;
x = 309;
y = 38;
},
{
segmentType = line;
smooth = 0;
x = 206;
y = 57;
}
);
},
{
points = (
{
segmentType = line;
smooth = 0;
x = 206;
y = 638;
},
{
smooth = 0;
x = 218;
y = 640;
},
{
smooth = 0;
x = 254;
y = 642;
},
{
segmentType = curve;
smooth = 1;
x = 275;
y = 642;
},
{
smooth = 0;
x = 384;
y = 642;
},
{
smooth = 0;
x = 434;
y = 574;
},
{
segmentType = curve;
smooth = 1;
x = 434;
y = 491;
},
{
smooth = 0;
x = 434;
y = 413;
},
{
smooth = 0;
x = 393;
y = 364;
},
{
segmentType = curve;
smooth = 1;
x = 253;
y = 364;
},
{
segmentType = line;
smooth = 0;
x = 206;
y = 364;
}
);
}
);
lib = {
};
name = R;
unicodes = (
);
width = 656;
};
layer_01 = {
anchors = (
);
components = (
);
contours = (
);
lib = {
};
name = R;
unicodes = (
);
width = 656;
};
layer_02 = {
anchors = (
);
components = (
);
contours = (
);
lib = {
};
name = R;
unicodes = (
);
width = 656;
};
};
};
},
{
glyphname = Racute;
lastChange = "2015-04-28 13:51:32 +0000";
layers = (
{
background = {
paths = (
{
closed = 1;
nodes = (
"230 584 LINE",
"241 586 OFFCURVE",
"278 588 OFFCURVE",
"297 588 CURVE SMOOTH",
"404 588 OFFCURVE",
"453 530 OFFCURVE",
"453 454 CURVE SMOOTH",
"453 380 OFFCURVE",
"413 339 OFFCURVE",
"276 339 CURVE SMOOTH",
"230 339 LINE"
);
},
{
closed = 1;
nodes = (
"317 295 LINE",
"517 0 LINE",
"690 0 LINE",
"690 29 LINE",
"609 48 LINE",
"534 130 OFFCURVE",
"458 235 OFFCURVE",
"406 312 CURVE",
"483 336 OFFCURVE",
"559 391 OFFCURVE",
"559 468 CURVE SMOOTH",
"559 598 OFFCURVE",
"456 633 OFFCURVE",
"307 633 CURVE SMOOTH",
"274 633 OFFCURVE",
"237 631 OFFCURVE",
"196 629 CURVE SMOOTH",
"151 626 OFFCURVE",
"95 626 OFFCURVE",
"44 626 CURVE",
"44 605 LINE",
"143 571 LINE",
"143 55 LINE",
"44 21 LINE",
"44 0 LINE",
"328 0 LINE",
"328 29 LINE",
"230 48 LINE",
"230 295 LINE"
);
},
{
closed = 1;
nodes = (
"194 753 LINE",
"193 749 LINE",
"209 713 LINE",
"434 783 LINE",
"434 797 LINE",
"420 817 OFFCURVE",
"392 844 OFFCURVE",
"370 853 CURVE"
);
}
);
};
components = (
{
name = R;
},
{
name = acute.cap;
transform = "{1, 0, 0, 1, 122, 0}";
}
);
layerId = "E777F328-EA17-4AE7-9EBA-8002E537BA4F";
name = Light;
width = 602;
},
{
components = (
{
name = R;
},
{
name = acute.cap;
transform = "{1, 0, 0, 1, 154, -61}";
}
);
layerId = "AE81D269-4BA9-4AA4-8188-ACE3070EB296";
name = Bold;
width = 624;
}
);
leftKerningGroup = StraightsUC;
rightKerningGroup = R;
unicode = 0154;
userData = {
com.typemytype.robofont.layerData = {
background = {
anchors = (
);
components = (
);
contours = (
);
lib = {
};
name = Racute;
unicodes = (
);
width = 656;
};
layer_01 = {
anchors = (
);
components = (
);
contours = (
);
lib = {
};
name = Racute;
unicodes = (
);
width = 656;
};
layer_02 = {
anchors = (
);
components = (
);
contours = (
);
lib = {
};
name = Racute;
unicodes = (
);
width = 656;
};
};
};
},
{
glyphname = Rcaron;
lastChange = "2015-04-28 13:51:32 +0000";
layers = (
{
background = {
paths = (
{
closed = 1;
nodes = (
"230 584 LINE",
"241 586 OFFCURVE",
"278 588 OFFCURVE",
"297 588 CURVE SMOOTH",
"404 588 OFFCURVE",
"453 530 OFFCURVE",
"453 454 CURVE SMOOTH",
"453 380 OFFCURVE",
"413 339 OFFCURVE",
"276 339 CURVE SMOOTH",
"230 339 LINE"
);
},
{
closed = 1;
nodes = (
"317 295 LINE",
"517 0 LINE",
"690 0 LINE",
"690 29 LINE",
"609 48 LINE",
"534 130 OFFCURVE",
"458 235 OFFCURVE",
"406 312 CURVE",
"483 336 OFFCURVE",
"559 391 OFFCURVE",
"559 468 CURVE SMOOTH",
"559 598 OFFCURVE",
"456 633 OFFCURVE",
"307 633 CURVE SMOOTH",
"274 633 OFFCURVE",
"237 631 OFFCURVE",
"196 629 CURVE SMOOTH",
"151 626 OFFCURVE",
"95 626 OFFCURVE",
"44 626 CURVE",
"44 605 LINE",
"143 571 LINE",
"143 55 LINE",
"44 21 LINE",
"44 0 LINE",
"328 0 LINE",
"328 29 LINE",
"230 48 LINE",
"230 295 LINE"
);
},
{
closed = 1;
nodes = (
"287 795 LINE",
"252 814 OFFCURVE",
"192 843 OFFCURVE",
"149 856 CURVE",
"130 828 LINE",
"130 824 LINE",
"167 797 OFFCURVE",
"221 753 OFFCURVE",
"255 722 CURVE",
"325 722 LINE",
"360 753 OFFCURVE",
"414 797 OFFCURVE",
"451 824 CURVE",
"451 828 LINE",
"432 856 LINE",
"389 843 OFFCURVE",
"329 814 OFFCURVE",
"293 795 CURVE"
);
}
);
};
components = (
{
name = R;
},
{
name = caron.cap;
transform = "{1, 0, 0, 1, 44, 0}";
}
);
layerId = "E777F328-EA17-4AE7-9EBA-8002E537BA4F";
name = Light;
width = 602;
},
{
components = (
{
name = R;
},
{
name = caron.cap;
transform = "{1, 0, 0, 1, 69, -61}";
}
);
layerId = "AE81D269-4BA9-4AA4-8188-ACE3070EB296";
name = Bold;
width = 624;
}
);
leftKerningGroup = StraightsUC;
rightKerningGroup = R;
unicode = 0158;
userData = {
com.typemytype.robofont.layerData = {
background = {
anchors = (
);
components = (
);
contours = (
);
lib = {
};
name = Rcaron;
unicodes = (
);
width = 656;
};
layer_01 = {
anchors = (
);
components = (
);
contours = (
);
lib = {
};
name = Rcaron;
unicodes = (
);
width = 656;
};
layer_02 = {
anchors = (
);
components = (
);
contours = (
);
lib = {
};
name = Rcaron;
unicodes = (
);
width = 656;
};
};
};
},
{
glyphname = Rcommaaccent;
lastChange = "2015-04-28 13:51:32 +0000";
layers = (
{
background = {
paths = (
{
closed = 1;
nodes = (
"230 584 LINE",
"241 586 OFFCURVE",
"278 588 OFFCURVE",
"297 588 CURVE SMOOTH",
"404 588 OFFCURVE",
"453 530 OFFCURVE",
"453 454 CURVE SMOOTH",
"453 380 OFFCURVE",
"413 339 OFFCURVE",
"276 339 CURVE SMOOTH",
"230 339 LINE"
);
},
{
closed = 1;
nodes = (
"317 295 LINE",
"517 0 LINE",
"690 0 LINE",
"690 29 LINE",
"609 48 LINE",
"534 130 OFFCURVE",
"458 235 OFFCURVE",
"406 312 CURVE",
"483 336 OFFCURVE",
"559 391 OFFCURVE",
"559 468 CURVE SMOOTH",
"559 598 OFFCURVE",
"456 633 OFFCURVE",
"307 633 CURVE SMOOTH",
"274 633 OFFCURVE",
"237 631 OFFCURVE",
"196 629 CURVE SMOOTH",
"151 626 OFFCURVE",
"95 626 OFFCURVE",
"44 626 CURVE",
"44 605 LINE",
"143 571 LINE",
"143 55 LINE",
"44 21 LINE",
"44 0 LINE",
"328 0 LINE",
"328 29 LINE",
"230 48 LINE",
"230 295 LINE"
);
},
{
closed = 1;
nodes = (
"437 -109 OFFCURVE",
"405 -84 OFFCURVE",
"370 -84 CURVE SMOOTH",
"335 -84 OFFCURVE",
"315 -115 OFFCURVE",
"315 -137 CURVE SMOOTH",
"315 -145 OFFCURVE",
"317 -152 OFFCURVE",
"318 -157 CURVE",
"378 -185 LINE",
"369 -210 OFFCURVE",
"346 -231 OFFCURVE",
"329 -246 CURVE",
"345 -268 LINE",
"394 -237 OFFCURVE",
"437 -188 OFFCURVE",
"437 -150 CURVE SMOOTH"
);
}
);
};
components = (
{
name = R;
},
{
name = commaaccent;
transform = "{1, 0, 0, 1, 76, 0}";
}
);
layerId = "E777F328-EA17-4AE7-9EBA-8002E537BA4F";
name = Light;
width = 602;
},
{
components = (
{
name = R;
},
{
name = commaaccent;
transform = "{1, 0, 0, 1, 102, 1}";
}
);
layerId = "AE81D269-4BA9-4AA4-8188-ACE3070EB296";
name = Bold;
width = 624;
}
);
leftKerningGroup = StraightsUC;
rightKerningGroup = R;
unicode = 0156;
userData = {
com.typemytype.robofont.layerData = {
background = {
anchors = (
);
components = (
);
contours = (
);
lib = {
};
name = Rcommaaccent;
unicodes = (
);
width = 656;
};
layer_01 = {
anchors = (
);
components = (
);
contours = (
);
lib = {
};
name = Rcommaaccent;
unicodes = (
);
width = 656;
};
layer_02 = {
anchors = (
);
components = (
);
contours = (
);
lib = {
};
name = Rcommaaccent;
unicodes = (
);
width = 656;
};
};
};
},
{
glyphname = S;
lastChange = "2015-04-28 13:51:32 +0000";
layers = (
{
anchors = (
{
name = bottom;
position = "{276, -9}";
},
{
name = top;
position = "{266, 669}";
}
);
background = {
paths = (
{
closed = 1;
nodes = (
"67 189 LINE",
"48 189 LINE",
"61 16 LINE",
"120 -7 OFFCURVE",
"180 -20 OFFCURVE",
"255 -20 CURVE SMOOTH",
"337 -20 OFFCURVE",
"473 23 OFFCURVE",
"473 172 CURVE SMOOTH",
"473 290 OFFCURVE",
"368 331 OFFCURVE",
"277 375 CURVE SMOOTH",
"205 409 OFFCURVE",
"143 446 OFFCURVE",
"143 510 CURVE SMOOTH",
"143 574 OFFCURVE",
"205 599 OFFCURVE",
"261 599 CURVE SMOOTH",
"296 599 OFFCURVE",
"328 591 OFFCURVE",
"354 579 CURVE",
"422 485 LINE",
"442 491 LINE",
"428 614 LINE",
"386 627 OFFCURVE",
"326 638 OFFCURVE",
"281 638 CURVE SMOOTH",
"138 638 OFFCURVE",
"64 564 OFFCURVE",
"64 472 CURVE SMOOTH",
"64 368 OFFCURVE",
"157 332 OFFCURVE",
"245 290 CURVE SMOOTH",
"324 252 OFFCURVE",
"392 211 OFFCURVE",
"392 129 CURVE SMOOTH",
"392 75 OFFCURVE",
"352 24 OFFCURVE",
"252 24 CURVE SMOOTH",
"228 24 OFFCURVE",
"204 28 OFFCURVE",
"187 37 CURVE"
);
}
);
};
layerId = "E777F328-EA17-4AE7-9EBA-8002E537BA4F";
name = Light;
paths = (
{
closed = 1;
nodes = (
"386 -16 OFFCURVE",
"478 52 OFFCURVE",
"478 161 CURVE SMOOTH",
"478 375 OFFCURVE",
"132 307 OFFCURVE",
"132 473 CURVE SMOOTH",
"132 557 OFFCURVE",
"196 593 OFFCURVE",
"269 593 CURVE SMOOTH",
"332 593 OFFCURVE",
"390 571 OFFCURVE",
"436 532 CURVE",
"463 571 LINE",
"409 613 OFFCURVE",
"351 636 OFFCURVE",
"269 636 CURVE SMOOTH",
"168 636 OFFCURVE",
"82 583 OFFCURVE",
"82 472 CURVE",
"82 260 OFFCURVE",
"426 328 OFFCURVE",
"426 161 CURVE",
"426 77 OFFCURVE",
"359 28 OFFCURVE",
"270 28 CURVE SMOOTH",
"191 28 OFFCURVE",
"127 49 OFFCURVE",
"83 90 CURVE",
"55 50 LINE",
"111 6 OFFCURVE",
"168 -16 OFFCURVE",
"270 -16 CURVE SMOOTH"
);
}
);
width = 533;
},
{
anchors = (
{
name = bottom;
position = "{290, -9}";
},
{
name = top;
position = "{298, 669}";
}
);
layerId = "AE81D269-4BA9-4AA4-8188-ACE3070EB296";
name = Bold;
paths = (
{
closed = 1;
nodes = (
"433 -11 OFFCURVE",
"526 62 OFFCURVE",
"526 182 CURVE",
"526 376 OFFCURVE",
"215 358 OFFCURVE",
"215 451 CURVE",
"215 492 OFFCURVE",
"258 515 OFFCURVE",
"321 515 CURVE",
"371 515 OFFCURVE",
"417 502 OFFCURVE",
"467 481 CURVE",
"499 592 LINE",
"447 619 OFFCURVE",
"379 634 OFFCURVE",
"315 634 CURVE",
"156 634 OFFCURVE",
"53 563 OFFCURVE",
"53 440 CURVE",
"53 249 OFFCURVE",
"365 278 OFFCURVE",
"365 171 CURVE",
"365 126 OFFCURVE",
"308 107 OFFCURVE",
"249 107 CURVE",
"188 107 OFFCURVE",
"134 119 OFFCURVE",
"66 145 CURVE",
"35 32 LINE",
"89 6 OFFCURVE",
"170 -11 OFFCURVE",
"250 -11 CURVE"
);
}
);
width = 563;
}
);
leftKerningGroup = S;
rightKerningGroup = S;
unicode = 0053;
userData = {
com.typemytype.robofont.layerData = {
background = {
anchors = (
);
components = (
);
contours = (
{
points = (
{
segmentType = line;
smooth = 0;
x = 94;
y = 225;
},
{
segmentType = line;
smooth = 0;
x = 63;
y = 225;
},
{
segmentType = line;
smooth = 0;
x = 77;
y = 27;
},
{
smooth = 0;
x = 137;
y = 0;
},
{
smooth = 0;
x = 206;
y = "-22";
},
{
segmentType = curve;
smooth = 1;
x = 295;
y = "-22";
},
{
smooth = 0;
x = 393;
y = "-22";
},
{
smooth = 0;
x = 539;
y = 45;
},
{
segmentType = curve;
smooth = 1;
x = 539;
y = 188;
},
{
smooth = 0;
x = 539;
y = 306;
},
{
smooth = 0;
x = 438;
y = 356;
},
{
segmentType = curve;
smooth = 1;
x = 345;
y = 402;
},
{
segmentType = line;
smooth = 1;
x = 327;
y = 411;
},
{
smooth = 0;
x = 253;
y = 447;
},
{
smooth = 0;
x = 188;
y = 484;
},
{
segmentType = curve;
smooth = 1;
x = 188;
y = 554;
},
{
smooth = 0;
x = 188;
y = 621;
},
{
smooth = 0;
x = 244;
y = 652;
},
{
segmentType = curve;
smooth = 1;
x = 309;
y = 652;
},
{
smooth = 0;
x = 342;
y = 652;
},
{
smooth = 0;
x = 369;
y = 645;
},
{
segmentType = curve;
smooth = 0;
x = 393;
y = 635;
},
{
segmentType = line;
smooth = 0;
x = 475;
y = 518;
},
{
segmentType = line;
smooth = 0;
x = 505;
y = 527;
},
{
segmentType = line;
smooth = 0;
x = 489;
y = 668;
},
{
smooth = 0;
x = 446;
y = 682;
},
{
smooth = 0;
x = 381;
y = 695;
},
{
segmentType = curve;
smooth = 1;
x = 328;
y = 695;
},
{
smooth = 0;
x = 163;
y = 695;
},
{
smooth = 0;
x = 81;
y = 609;
},
{
segmentType = curve;
smooth = 1;
x = 81;
y = 499;
},
{
smooth = 0;
x = 81;
y = 402;
},
{
smooth = 0;
x = 169;
y = 360;
},
{
segmentType = curve;
smooth = 1;
x = 258;
y = 317;
},
{
segmentType = line;
smooth = 1;
x = 276;
y = 308;
},
{
smooth = 0;
x = 357;
y = 268;
},
{
smooth = 0;
x = 432;
y = 226;
},
{
segmentType = curve;
smooth = 1;
x = 432;
y = 140;
},
{
smooth = 0;
x = 432;
y = 79;
},
{
smooth = 0;
x = 389;
y = 26;
},
{
segmentType = curve;
smooth = 1;
x = 284;
y = 26;
},
{
smooth = 0;
x = 260;
y = 26;
},
{
smooth = 0;
x = 238;
y = 29;
},
{
segmentType = curve;
smooth = 0;
x = 222;
y = 36;
}
);
}
);
lib = {
};
name = S;
unicodes = (
);
width = 581;
};
layer_01 = {
anchors = (
);
components = (
);
contours = (
);
lib = {
};
name = S;
unicodes = (
);
width = 581;
};
layer_02 = {
anchors = (
);
components = (
);
contours = (
);
lib = {
};
name = S;
unicodes = (
);
width = 581;
};
};
};
},
{
glyphname = Sacute;
lastChange = "2015-04-28 13:51:32 +0000";
layers = (
{
background = {
paths = (
{
closed = 1;
nodes = (
"67 189 LINE",
"48 189 LINE",
"61 16 LINE",
"120 -7 OFFCURVE",
"180 -20 OFFCURVE",
"255 -20 CURVE SMOOTH",
"337 -20 OFFCURVE",
"473 23 OFFCURVE",
"473 172 CURVE SMOOTH",
"473 290 OFFCURVE",
"368 331 OFFCURVE",
"277 375 CURVE SMOOTH",
"205 409 OFFCURVE",
"143 446 OFFCURVE",
"143 510 CURVE SMOOTH",
"143 574 OFFCURVE",
"205 599 OFFCURVE",
"261 599 CURVE SMOOTH",
"296 599 OFFCURVE",
"328 591 OFFCURVE",
"354 579 CURVE",
"422 485 LINE",
"442 491 LINE",
"428 614 LINE",
"386 627 OFFCURVE",
"326 638 OFFCURVE",
"281 638 CURVE SMOOTH",
"138 638 OFFCURVE",
"64 564 OFFCURVE",
"64 472 CURVE SMOOTH",
"64 368 OFFCURVE",
"157 332 OFFCURVE",
"245 290 CURVE SMOOTH",
"324 252 OFFCURVE",
"392 211 OFFCURVE",
"392 129 CURVE SMOOTH",
"392 75 OFFCURVE",
"352 24 OFFCURVE",
"252 24 CURVE SMOOTH",
"228 24 OFFCURVE",
"204 28 OFFCURVE",
"187 37 CURVE"
);
},
{
closed = 1;
nodes = (
"166 753 LINE",
"165 749 LINE",
"181 713 LINE",
"406 783 LINE",
"406 797 LINE",
"392 817 OFFCURVE",
"364 844 OFFCURVE",
"342 853 CURVE"
);
}
);
};
components = (
{
name = S;
},
{
name = acute.cap;
transform = "{1, 0, 0, 1, 115, 0}";
}
);
layerId = "E777F328-EA17-4AE7-9EBA-8002E537BA4F";
name = Light;
width = 533;
},
{
components = (
{
name = S;
},
{
name = acute.cap;
transform = "{1, 0, 0, 1, 133, -61}";
}
);
layerId = "AE81D269-4BA9-4AA4-8188-ACE3070EB296";
name = Bold;
width = 516;
}
);
leftKerningGroup = S;
rightKerningGroup = S;
unicode = 015A;
userData = {
com.typemytype.robofont.layerData = {
background = {
anchors = (
);
components = (
);
contours = (
);
lib = {
};
name = Sacute;
unicodes = (
);
width = 581;
};
layer_01 = {
anchors = (
);
components = (
);
contours = (
);
lib = {
};
name = Sacute;
unicodes = (
);
width = 581;
};
layer_02 = {
anchors = (
);
components = (
);
contours = (
);
lib = {
};
name = Sacute;
unicodes = (
);
width = 581;
};
};
};
},
{
glyphname = Scaron;
lastChange = "2015-04-28 13:51:32 +0000";
layers = (
{
background = {
paths = (
{
closed = 1;
nodes = (
"67 189 LINE",
"48 189 LINE",
"61 16 LINE",
"120 -7 OFFCURVE",
"180 -20 OFFCURVE",
"255 -20 CURVE SMOOTH",
"337 -20 OFFCURVE",
"473 23 OFFCURVE",
"473 172 CURVE SMOOTH",
"473 290 OFFCURVE",
"368 331 OFFCURVE",
"277 375 CURVE SMOOTH",
"205 409 OFFCURVE",
"143 446 OFFCURVE",
"143 510 CURVE SMOOTH",
"143 574 OFFCURVE",
"205 599 OFFCURVE",
"261 599 CURVE SMOOTH",
"296 599 OFFCURVE",
"328 591 OFFCURVE",
"354 579 CURVE",
"422 485 LINE",
"442 491 LINE",
"428 614 LINE",
"386 627 OFFCURVE",
"326 638 OFFCURVE",
"281 638 CURVE SMOOTH",
"138 638 OFFCURVE",
"64 564 OFFCURVE",
"64 472 CURVE SMOOTH",
"64 368 OFFCURVE",
"157 332 OFFCURVE",
"245 290 CURVE SMOOTH",
"324 252 OFFCURVE",
"392 211 OFFCURVE",
"392 129 CURVE SMOOTH",
"392 75 OFFCURVE",
"352 24 OFFCURVE",
"252 24 CURVE SMOOTH",
"228 24 OFFCURVE",
"204 28 OFFCURVE",
"187 37 CURVE"
);
},
{
closed = 1;
nodes = (
"259 795 LINE",
"224 814 OFFCURVE",
"164 843 OFFCURVE",
"121 856 CURVE",
"102 828 LINE",
"102 824 LINE",
"139 797 OFFCURVE",
"193 753 OFFCURVE",
"227 722 CURVE",
"297 722 LINE",
"332 753 OFFCURVE",
"386 797 OFFCURVE",
"423 824 CURVE",
"423 828 LINE",
"404 856 LINE",
"361 843 OFFCURVE",
"301 814 OFFCURVE",
"265 795 CURVE"
);
}
);
};
components = (
{
name = S;
},
{
name = caron.cap;
transform = "{1, 0, 0, 1, 37, 0}";
}
);
layerId = "E777F328-EA17-4AE7-9EBA-8002E537BA4F";
name = Light;
width = 533;
},
{
components = (
{
name = S;
},
{
name = caron.cap;
transform = "{1, 0, 0, 1, 48, -61}";
}
);
layerId = "AE81D269-4BA9-4AA4-8188-ACE3070EB296";
name = Bold;
width = 516;
}
);
leftKerningGroup = S;
rightKerningGroup = S;
unicode = 0160;
userData = {
com.typemytype.robofont.layerData = {
background = {
anchors = (
);
components = (
);
contours = (
);
lib = {
};
name = Scaron;
unicodes = (
);
width = 581;
};
layer_01 = {
anchors = (
);
components = (
);
contours = (
);
lib = {
};
name = Scaron;
unicodes = (
);
width = 581;
};
layer_02 = {
anchors = (
);
components = (
);
contours = (
);
lib = {
};
name = Scaron;
unicodes = (
);
width = 581;
};
};
};
},
{
glyphname = Scedilla;
lastChange = "2015-04-28 13:51:32 +0000";
layers = (
{
background = {
paths = (
{
closed = 1;
nodes = (
"67 189 LINE",
"48 189 LINE",
"61 16 LINE",
"110 -3 OFFCURVE",
"159 -15 OFFCURVE",
"218 -19 CURVE",
"196 -58 OFFCURVE",
"173 -106 OFFCURVE",
"173 -126 CURVE SMOOTH",
"173 -144 OFFCURVE",
"186 -154 OFFCURVE",
"199 -154 CURVE SMOOTH",
"212 -154 OFFCURVE",
"229 -152 OFFCURVE",
"238 -152 CURVE SMOOTH",
"253 -152 OFFCURVE",
"262 -161 OFFCURVE",
"262 -183 CURVE SMOOTH",
"262 -212 OFFCURVE",
"218 -242 OFFCURVE",
"199 -259 CURVE",
"216 -285 LINE",
"240 -268 OFFCURVE",
"290 -233 OFFCURVE",
"316 -196 CURVE SMOOTH",
"329 -177 OFFCURVE",
"345 -152 OFFCURVE",
"345 -129 CURVE SMOOTH",
"345 -99 OFFCURVE",
"331 -77 OFFCURVE",
"303 -77 CURVE SMOOTH",
"290 -77 OFFCURVE",
"277 -80 OFFCURVE",
"263 -80 CURVE SMOOTH",
"254 -80 OFFCURVE",
"246 -76 OFFCURVE",
"246 -60 CURVE SMOOTH",
"246 -48 OFFCURVE",
"250 -33 OFFCURVE",
"254 -20 CURVE",
"255 -20 LINE SMOOTH",
"337 -20 OFFCURVE",
"473 23 OFFCURVE",
"473 172 CURVE SMOOTH",
"473 290 OFFCURVE",
"368 331 OFFCURVE",
"277 375 CURVE SMOOTH",
"205 409 OFFCURVE",
"143 446 OFFCURVE",
"143 510 CURVE SMOOTH",
"143 574 OFFCURVE",
"205 599 OFFCURVE",
"261 599 CURVE SMOOTH",
"296 599 OFFCURVE",
"328 591 OFFCURVE",
"354 579 CURVE",
"422 485 LINE",
"442 491 LINE",
"428 614 LINE",
"386 627 OFFCURVE",
"326 638 OFFCURVE",
"281 638 CURVE SMOOTH",
"138 638 OFFCURVE",
"64 564 OFFCURVE",
"64 472 CURVE SMOOTH",
"64 368 OFFCURVE",
"157 332 OFFCURVE",
"245 290 CURVE SMOOTH",
"324 252 OFFCURVE",
"392 211 OFFCURVE",
"392 129 CURVE SMOOTH",
"392 75 OFFCURVE",
"352 24 OFFCURVE",
"252 24 CURVE SMOOTH",
"228 24 OFFCURVE",
"204 28 OFFCURVE",
"187 37 CURVE"
);
}
);
};
components = (
{
name = S;
},
{
name = cedilla;
transform = "{1, 0, 0, 1, 51, 0}";
}
);
layerId = "E777F328-EA17-4AE7-9EBA-8002E537BA4F";
name = Light;
width = 533;
},
{
components = (
{
name = S;
},
{
name = cedilla;
transform = "{1, 0, 0, 1, 45, 1}";
}
);
layerId = "AE81D269-4BA9-4AA4-8188-ACE3070EB296";
name = Bold;
width = 516;
}
);
leftKerningGroup = S;
rightKerningGroup = S;
unicode = 015E;
userData = {
com.typemytype.robofont.layerData = {
background = {
anchors = (
);
components = (
);
contours = (
);
lib = {
};
name = Scedilla;
unicodes = (
);
width = 581;
};
layer_01 = {
anchors = (
);
components = (
);
contours = (
);
lib = {
};
name = Scedilla;
unicodes = (
);
width = 581;
};
layer_02 = {
anchors = (
);
components = (
);
contours = (
);
lib = {
};
name = Scedilla;
unicodes = (
);
width = 581;
};
};
};
},
{
glyphname = Scommaaccent;
lastChange = "2015-04-28 13:51:32 +0000";
layers = (
{
background = {
paths = (
{
closed = 1;
nodes = (
"67 189 LINE",
"48 189 LINE",
"61 16 LINE",
"120 -7 OFFCURVE",
"180 -20 OFFCURVE",
"255 -20 CURVE SMOOTH",
"337 -20 OFFCURVE",
"473 23 OFFCURVE",
"473 172 CURVE SMOOTH",
"473 290 OFFCURVE",
"368 331 OFFCURVE",
"277 375 CURVE SMOOTH",
"205 409 OFFCURVE",
"143 446 OFFCURVE",
"143 510 CURVE SMOOTH",
"143 574 OFFCURVE",
"205 599 OFFCURVE",
"261 599 CURVE SMOOTH",
"296 599 OFFCURVE",
"328 591 OFFCURVE",
"354 579 CURVE",
"422 485 LINE",
"442 491 LINE",
"428 614 LINE",
"386 627 OFFCURVE",
"326 638 OFFCURVE",
"281 638 CURVE SMOOTH",
"138 638 OFFCURVE",
"64 564 OFFCURVE",
"64 472 CURVE SMOOTH",
"64 368 OFFCURVE",
"157 332 OFFCURVE",
"245 290 CURVE SMOOTH",
"324 252 OFFCURVE",
"392 211 OFFCURVE",
"392 129 CURVE SMOOTH",
"392 75 OFFCURVE",
"352 24 OFFCURVE",
"252 24 CURVE SMOOTH",
"228 24 OFFCURVE",
"204 28 OFFCURVE",
"187 37 CURVE"
);
},
{
closed = 1;
nodes = (
"328 -115 OFFCURVE",
"296 -90 OFFCURVE",
"261 -90 CURVE SMOOTH",
"226 -90 OFFCURVE",
"206 -121 OFFCURVE",
"206 -143 CURVE SMOOTH",
"206 -151 OFFCURVE",
"208 -158 OFFCURVE",
"209 -163 CURVE",
"269 -191 LINE",
"260 -216 OFFCURVE",
"237 -237 OFFCURVE",
"220 -252 CURVE",
"236 -274 LINE",
"285 -243 OFFCURVE",
"328 -194 OFFCURVE",
"328 -156 CURVE SMOOTH"
);
}
);
};
components = (
{
name = S;
},
{
name = commaaccent;
transform = "{1, 0, 0, 1, 51, 0}";
}
);
layerId = "E777F328-EA17-4AE7-9EBA-8002E537BA4F";
name = Light;
width = 533;
},
{
components = (
{
name = S;
},
{
name = commaaccent;
transform = "{1, 0, 0, 1, 45, 1}";
}
);
layerId = "AE81D269-4BA9-4AA4-8188-ACE3070EB296";
name = Bold;
width = 516;
}
);
leftKerningGroup = S;
rightKerningGroup = S;
unicode = 0218;
userData = {
com.typemytype.robofont.layerData = {
background = {
anchors = (
);
components = (
);
contours = (
);
lib = {
};
name = Scommaaccent;
unicodes = (
);
width = 581;
};
layer_01 = {
anchors = (
);
components = (
);
contours = (
);
lib = {
};
name = Scommaaccent;
unicodes = (
);
width = 581;
};
layer_02 = {
anchors = (
);
components = (
);
contours = (
);
lib = {
};
name = Scommaaccent;
unicodes = (
);
width = 581;
};
};
};
},
{
glyphname = T;
lastChange = "2015-04-28 13:51:32 +0000";
layers = (
{
anchors = (
{
name = bottom;
position = "{289, -9}";
},
{
name = top;
position = "{289, 669}";
}
);
background = {
paths = (
{
closed = 1;
nodes = (
"596 481 LINE",
"619 484 LINE",
"635 648 LINE",
"613 655 LINE",
"559 626 LINE",
"202 626 LINE",
"79 654 LINE",
"65 654 LINE",
"47 489 LINE",
"71 481 LINE",
"147 585 LINE",
"301 585 LINE",
"301 55 LINE",
"202 21 LINE",
"202 0 LINE",
"481 0 LINE",
"481 29 LINE",
"387 48 LINE",
"387 585 LINE",
"546 585 LINE"
);
}
);
};
layerId = "E777F328-EA17-4AE7-9EBA-8002E537BA4F";
name = Light;
paths = (
{
closed = 1;
nodes = (
"315 0 LINE",
"315 624 LINE",
"263 624 LINE",
"263 0 LINE"
);
},
{
closed = 1;
nodes = (
"541 581 LINE",
"541 624 LINE",
"37 624 LINE",
"37 581 LINE"
);
}
);
width = 578;
},
{
anchors = (
{
name = bottom;
position = "{271, -9}";
},
{
name = top;
position = "{271, 669}";
}
);
layerId = "AE81D269-4BA9-4AA4-8188-ACE3070EB296";
name = Bold;
paths = (
{
closed = 1;
nodes = (
"353 0 LINE",
"353 624 LINE",
"188 624 LINE",
"188 0 LINE"
);
},
{
closed = 1;
nodes = (
"523 507 LINE",
"523 624 LINE",
"18 624 LINE",
"18 507 LINE"
);
}
);
width = 541;
}
);
leftKerningGroup = T;
rightKerningGroup = T;
unicode = 0054;
userData = {
com.typemytype.robofont.layerData = {
background = {
anchors = (
);
components = (
);
contours = (
);
lib = {
};
name = T;
unicodes = (
);
width = 630;
};
layer_01 = {
anchors = (
);
components = (
);
contours = (
);
lib = {
};
name = T;
unicodes = (
);
width = 630;
};
layer_02 = {
anchors = (
);
components = (
);
contours = (
);
lib = {
};
name = T;
unicodes = (
);
width = 630;
};
};
};
},
{
glyphname = Tcaron;
lastChange = "2015-04-28 13:51:32 +0000";
layers = (
{
background = {
paths = (
{
closed = 1;
nodes = (
"596 481 LINE",
"619 484 LINE",
"635 648 LINE",
"613 655 LINE",
"559 626 LINE",
"202 626 LINE",
"79 654 LINE",
"65 654 LINE",
"47 489 LINE",
"71 481 LINE",
"147 585 LINE",
"301 585 LINE",
"301 55 LINE",
"202 21 LINE",
"202 0 LINE",
"481 0 LINE",
"481 29 LINE",
"387 48 LINE",
"387 585 LINE",
"546 585 LINE"
);
},
{
closed = 1;
nodes = (
"343 795 LINE",
"308 814 OFFCURVE",
"248 843 OFFCURVE",
"205 856 CURVE",
"186 828 LINE",
"186 824 LINE",
"223 797 OFFCURVE",
"277 753 OFFCURVE",
"311 722 CURVE",
"381 722 LINE",
"416 753 OFFCURVE",
"470 797 OFFCURVE",
"507 824 CURVE",
"507 828 LINE",
"488 856 LINE",
"445 843 OFFCURVE",
"385 814 OFFCURVE",
"349 795 CURVE"
);
}
);
};
components = (
{
name = T;
},
{
name = caron.cap;
transform = "{1, 0, 0, 1, 60, 0}";
}
);
layerId = "E777F328-EA17-4AE7-9EBA-8002E537BA4F";
name = Light;
width = 578;
},
{
components = (
{
name = T;
},
{
name = caron.cap;
transform = "{1, 0, 0, 1, 21, -61}";
}
);
layerId = "AE81D269-4BA9-4AA4-8188-ACE3070EB296";
name = Bold;
width = 496;
}
);
leftKerningGroup = T;
rightKerningGroup = T;
unicode = 0164;
userData = {
com.typemytype.robofont.layerData = {
background = {
anchors = (
);
components = (
);
contours = (
);
lib = {
};
name = Tcaron;
unicodes = (
);
width = 630;
};
layer_01 = {
anchors = (
);
components = (
);
contours = (
);
lib = {
};
name = Tcaron;
unicodes = (
);
width = 630;
};
layer_02 = {
anchors = (
);
components = (
);
contours = (
);
lib = {
};
name = Tcaron;
unicodes = (
);
width = 630;
};
};
};
},
{
glyphname = Tcommaaccent;
lastChange = "2015-04-28 13:51:32 +0000";
layers = (
{
background = {
paths = (
{
closed = 1;
nodes = (
"596 481 LINE",
"619 484 LINE",
"635 648 LINE",
"613 655 LINE",
"559 626 LINE",
"202 626 LINE",
"79 654 LINE",
"65 654 LINE",
"47 489 LINE",
"71 481 LINE",
"147 585 LINE",
"301 585 LINE",
"301 55 LINE",
"202 21 LINE",
"202 0 LINE",
"481 0 LINE",
"481 29 LINE",
"387 48 LINE",
"387 585 LINE",
"546 585 LINE"
);
},
{
closed = 1;
nodes = (
"406 -109 OFFCURVE",
"374 -84 OFFCURVE",
"339 -84 CURVE SMOOTH",
"304 -84 OFFCURVE",
"284 -115 OFFCURVE",
"284 -137 CURVE SMOOTH",
"284 -145 OFFCURVE",
"286 -152 OFFCURVE",
"287 -157 CURVE",
"347 -185 LINE",
"338 -210 OFFCURVE",
"315 -231 OFFCURVE",
"298 -246 CURVE",
"314 -268 LINE",
"363 -237 OFFCURVE",
"406 -188 OFFCURVE",
"406 -150 CURVE SMOOTH"
);
}
);
};
components = (
{
name = T;
},
{
name = commaaccent;
transform = "{1, 0, 0, 1, 64, 0}";
}
);
layerId = "E777F328-EA17-4AE7-9EBA-8002E537BA4F";
name = Light;
width = 578;
},
{
components = (
{
name = T;
},
{
name = commaaccent;
transform = "{1, 0, 0, 1, 26, 1}";
}
);
layerId = "AE81D269-4BA9-4AA4-8188-ACE3070EB296";
name = Bold;
width = 496;
}
);
leftKerningGroup = T;
rightKerningGroup = T;
unicode = 021A;
userData = {
com.typemytype.robofont.layerData = {
background = {
anchors = (
);
components = (
);
contours = (
);
lib = {
};
name = Tcommaaccent;
unicodes = (
);
width = 630;
};
layer_01 = {
anchors = (
);
components = (
);
contours = (
);
lib = {
};
name = Tcommaaccent;
unicodes = (
);
width = 630;
};
layer_02 = {
anchors = (
);
components = (
);
contours = (
);
lib = {
};
name = Tcommaaccent;
unicodes = (
);
width = 630;
};
};
};
},
{
glyphname = U;
lastChange = "2015-04-28 13:51:32 +0000";
layers = (
{
anchors = (
{
name = bottom;
position = "{412, -9}";
},
{
name = top;
position = "{337, 669}";
}
);
background = {
paths = (
{
closed = 1;
nodes = (
"617 580 LINE",
"716 597 LINE",
"716 626 LINE",
"456 626 LINE",
"456 605 LINE",
"556 571 LINE",
"556 334 LINE SMOOTH",
"556 149 OFFCURVE",
"521 41 OFFCURVE",
"390 41 CURVE SMOOTH",
"300 41 OFFCURVE",
"219 81 OFFCURVE",
"219 265 CURVE SMOOTH",
"219 580 LINE",
"318 597 LINE",
"318 626 LINE",
"34 626 LINE",
"34 605 LINE",
"133 571 LINE",
"133 230 LINE SMOOTH",
"133 50 OFFCURVE",
"231 -20 OFFCURVE",
"361 -20 CURVE SMOOTH",
"575 -20 OFFCURVE",
"617 133 OFFCURVE",
"617 297 CURVE SMOOTH"
);
}
);
};
layerId = "E777F328-EA17-4AE7-9EBA-8002E537BA4F";
name = Light;
paths = (
{
closed = 1;
nodes = (
"493 -16 OFFCURVE",
"573 87 OFFCURVE",
"573 228 CURVE SMOOTH",
"573 624 LINE",
"522 624 LINE",
"522 227 LINE SMOOTH",
"522 105 OFFCURVE",
"457 28 OFFCURVE",
"337 28 CURVE",
"217 28 OFFCURVE",
"152 105 OFFCURVE",
"152 227 CURVE SMOOTH",
"152 624 LINE",
"101 624 LINE",
"101 226 LINE SMOOTH",
"101 87 OFFCURVE",
"181 -16 OFFCURVE",
"337 -16 CURVE"
);
}
);
width = 674;
},
{
anchors = (
{
name = bottom;
position = "{404, -9}";
},
{
name = top;
position = "{367, 669}";
}
);
layerId = "AE81D269-4BA9-4AA4-8188-ACE3070EB296";
name = Bold;
paths = (
{
closed = 1;
nodes = (
"559 -11 OFFCURVE",
"659 90 OFFCURVE",
"659 251 CURVE SMOOTH",
"659 624 LINE",
"494 624 LINE",
"494 250 LINE SMOOTH",
"494 147 OFFCURVE",
"447 107 OFFCURVE",
"367 107 CURVE",
"285 107 OFFCURVE",
"238 147 OFFCURVE",
"238 250 CURVE SMOOTH",
"238 624 LINE",
"73 624 LINE",
"73 249 LINE SMOOTH",
"73 90 OFFCURVE",
"173 -11 OFFCURVE",
"367 -11 CURVE"
);
}
);
width = 733;
}
);
leftKerningGroup = U;
rightKerningGroup = U;
unicode = 0055;
userData = {
com.typemytype.robofont.layerData = {
background = {
anchors = (
);
components = (
);
contours = (
);
lib = {
};
name = U;
unicodes = (
);
width = 735;
};
layer_01 = {
anchors = (
);
components = (
);
contours = (
);
lib = {
};
name = U;
unicodes = (
);
width = 735;
};
layer_02 = {
anchors = (
);
components = (
);
contours = (
);
lib = {
};
name = U;
unicodes = (
);
width = 735;
};
};
};
},
{
glyphname = Uacute;
lastChange = "2015-04-28 13:51:32 +0000";
layers = (
{
background = {
paths = (
{
closed = 1;
nodes = (
"617 580 LINE",
"716 597 LINE",
"716 626 LINE",
"456 626 LINE",
"456 605 LINE",
"556 571 LINE",
"556 334 LINE SMOOTH",
"556 149 OFFCURVE",
"521 41 OFFCURVE",
"390 41 CURVE SMOOTH",
"300 41 OFFCURVE",
"219 81 OFFCURVE",
"219 265 CURVE SMOOTH",
"219 580 LINE",
"318 597 LINE",
"318 626 LINE",
"34 626 LINE",
"34 605 LINE",
"133 571 LINE",
"133 230 LINE SMOOTH",
"133 50 OFFCURVE",
"231 -20 OFFCURVE",
"361 -20 CURVE SMOOTH",
"575 -20 OFFCURVE",
"617 133 OFFCURVE",
"617 297 CURVE SMOOTH"
);
},
{
closed = 1;
nodes = (
"298 753 LINE",
"297 749 LINE",
"313 713 LINE",
"538 783 LINE",
"538 797 LINE",
"524 817 OFFCURVE",
"496 844 OFFCURVE",
"474 853 CURVE"
);
}
);
};
components = (
{
name = U;
},
{
name = acute.cap;
transform = "{1, 0, 0, 1, 186, 0}";
}
);
layerId = "E777F328-EA17-4AE7-9EBA-8002E537BA4F";
name = Light;
width = 674;
},
{
components = (
{
name = U;
},
{
name = acute.cap;
transform = "{1, 0, 0, 1, 202, -61}";
}
);
layerId = "AE81D269-4BA9-4AA4-8188-ACE3070EB296";
name = Bold;
width = 672;
}
);
leftKerningGroup = U;
rightKerningGroup = U;
unicode = 00DA;
userData = {
com.typemytype.robofont.layerData = {
background = {
anchors = (
);
components = (
);
contours = (
);
lib = {
};
name = Uacute;
unicodes = (
);
width = 735;
};
layer_01 = {
anchors = (
);
components = (
);
contours = (
);
lib = {
};
name = Uacute;
unicodes = (
);
width = 735;
};
layer_02 = {
anchors = (
);
components = (
);
contours = (
);
lib = {
};
name = Uacute;
unicodes = (
);
width = 735;
};
};
};
},
{
glyphname = Ucircumflex;
lastChange = "2015-04-28 13:51:32 +0000";
layers = (
{
background = {
paths = (
{
closed = 1;
nodes = (
"617 580 LINE",
"716 597 LINE",
"716 626 LINE",
"456 626 LINE",
"456 605 LINE",
"556 571 LINE",
"556 334 LINE SMOOTH",
"556 149 OFFCURVE",
"521 41 OFFCURVE",
"390 41 CURVE SMOOTH",
"300 41 OFFCURVE",
"219 81 OFFCURVE",
"219 265 CURVE SMOOTH",
"219 580 LINE",
"318 597 LINE",
"318 626 LINE",
"34 626 LINE",
"34 605 LINE",
"133 571 LINE",
"133 230 LINE SMOOTH",
"133 50 OFFCURVE",
"231 -20 OFFCURVE",
"361 -20 CURVE SMOOTH",
"575 -20 OFFCURVE",
"617 133 OFFCURVE",
"617 297 CURVE SMOOTH"
);
},
{
closed = 1;
nodes = (
"393 774 LINE",
"428 755 OFFCURVE",
"488 726 OFFCURVE",
"531 713 CURVE",
"550 741 LINE",
"550 745 LINE",
"513 772 OFFCURVE",
"459 816 OFFCURVE",
"425 847 CURVE",
"355 847 LINE",
"320 816 OFFCURVE",
"266 772 OFFCURVE",
"229 745 CURVE",
"229 741 LINE",
"248 713 LINE",
"291 726 OFFCURVE",
"351 755 OFFCURVE",
"387 774 CURVE"
);
}
);
};
components = (
{
name = U;
},
{
name = circumflex.cap;
transform = "{1, 0, 0, 1, 108, 0}";
}
);
layerId = "E777F328-EA17-4AE7-9EBA-8002E537BA4F";
name = Light;
width = 674;
},
{
components = (
{
name = U;
},
{
name = circumflex.cap;
transform = "{1, 0, 0, 1, 117, -61}";
}
);
layerId = "AE81D269-4BA9-4AA4-8188-ACE3070EB296";
name = Bold;
width = 672;
}
);
leftKerningGroup = U;
rightKerningGroup = U;
unicode = 00DB;
userData = {
com.typemytype.robofont.layerData = {
background = {
anchors = (
);
components = (
);
contours = (
);
lib = {
};
name = Ucircumflex;
unicodes = (
);
width = 735;
};
layer_01 = {
anchors = (
);
components = (
);
contours = (
);
lib = {
};
name = Ucircumflex;
unicodes = (
);
width = 735;
};
layer_02 = {
anchors = (
);
components = (
);
contours = (
);
lib = {
};
name = Ucircumflex;
unicodes = (
);
width = 735;
};
};
};
},
{
glyphname = Udieresis;
lastChange = "2015-04-28 13:51:32 +0000";
layers = (
{
background = {
paths = (
{
closed = 1;
nodes = (
"617 580 LINE",
"716 597 LINE",
"716 626 LINE",
"456 626 LINE",
"456 605 LINE",
"556 571 LINE",
"556 334 LINE SMOOTH",
"556 149 OFFCURVE",
"521 41 OFFCURVE",
"390 41 CURVE SMOOTH",
"300 41 OFFCURVE",
"219 81 OFFCURVE",
"219 265 CURVE SMOOTH",
"219 580 LINE",
"318 597 LINE",
"318 626 LINE",
"34 626 LINE",
"34 605 LINE",
"133 571 LINE",
"133 230 LINE SMOOTH",
"133 50 OFFCURVE",
"231 -20 OFFCURVE",
"361 -20 CURVE SMOOTH",
"575 -20 OFFCURVE",
"617 133 OFFCURVE",
"617 297 CURVE SMOOTH"
);
},
{
closed = 1;
nodes = (
"206 748 OFFCURVE",
"229 724 OFFCURVE",
"258 724 CURVE SMOOTH",
"288 724 OFFCURVE",
"311 748 OFFCURVE",
"311 779 CURVE SMOOTH",
"311 809 OFFCURVE",
"288 834 OFFCURVE",
"258 834 CURVE SMOOTH",
"229 834 OFFCURVE",
"206 809 OFFCURVE",
"206 779 CURVE SMOOTH"
);
},
{
closed = 1;
nodes = (
"475 748 OFFCURVE",
"498 724 OFFCURVE",
"527 724 CURVE SMOOTH",
"557 724 OFFCURVE",
"580 748 OFFCURVE",
"580 779 CURVE SMOOTH",
"580 809 OFFCURVE",
"557 834 OFFCURVE",
"527 834 CURVE SMOOTH",
"498 834 OFFCURVE",
"475 809 OFFCURVE",
"475 779 CURVE SMOOTH"
);
}
);
};
components = (
{
name = U;
},
{
name = dieresis.cap;
transform = "{1, 0, 0, 1, 108, 0}";
}
);
layerId = "E777F328-EA17-4AE7-9EBA-8002E537BA4F";
name = Light;
width = 674;
},
{
components = (
{
name = U;
},
{
name = dieresis.cap;
transform = "{1, 0, 0, 1, 117, -61}";
}
);
layerId = "AE81D269-4BA9-4AA4-8188-ACE3070EB296";
name = Bold;
width = 672;
}
);
leftKerningGroup = U;
rightKerningGroup = U;
unicode = 00DC;
userData = {
com.typemytype.robofont.layerData = {
background = {
anchors = (
);
components = (
);
contours = (
);
lib = {
};
name = Udieresis;
unicodes = (
);
width = 735;
};
layer_01 = {
anchors = (
);
components = (
);
contours = (
);
lib = {
};
name = Udieresis;
unicodes = (
);
width = 735;
};
layer_02 = {
anchors = (
);
components = (
);
contours = (
);
lib = {
};
name = Udieresis;
unicodes = (
);
width = 735;
};
};
};
},
